{"glyphs":{"0":{"ha":540,"x_min":47,"x_max":493,"o":"m 47 738 q 102 916 47 850 q 269 982 157 982 q 438 916 382 982 q 493 738 493 850 l 493 236 q 438 57 493 124 q 269 -10 382 -10 q 102 57 157 -10 q 47 236 47 124 l 47 738 m 154 229 q 183 126 154 163 q 269 89 211 89 q 357 126 329 89 q 385 229 385 163 l 385 743 q 357 847 385 810 q 269 885 329 885 q 183 847 211 885 q 154 743 154 810 l 154 229 z "},"1":{"ha":469,"x_min":119,"x_max":361,"o":"m 254 796 q 192 768 226 779 q 119 754 158 757 l 119 843 q 186 856 158 844 q 233 884 214 867 q 264 924 251 901 q 286 972 276 947 l 361 972 l 361 0 l 254 0 l 254 796 z "},"2":{"ha":538,"x_min":56,"x_max":493,"o":"m 274 982 q 440 915 388 982 q 493 736 493 849 q 469 603 493 663 q 408 494 444 544 q 328 399 371 443 q 249 310 286 354 q 188 217 213 265 q 163 114 163 169 l 163 99 l 482 99 l 482 0 l 56 0 l 56 83 q 80 221 56 161 q 141 330 104 281 q 220 423 178 379 q 299 513 263 467 q 360 611 336 558 q 385 732 385 664 q 358 846 385 807 q 271 885 332 885 q 184 846 211 885 q 157 742 157 807 l 157 656 l 56 656 l 56 735 q 108 915 56 847 q 274 982 161 982 z "},"3":{"ha":538,"x_min":50,"x_max":488,"o":"m 268 982 q 434 916 381 982 q 488 738 488 850 l 488 713 q 458 586 488 638 q 369 513 428 535 q 460 437 432 489 q 488 311 488 385 l 488 236 q 434 57 488 124 q 268 -10 381 -10 q 103 58 157 -10 q 50 236 50 125 l 50 303 l 151 303 l 151 229 q 179 126 151 163 q 265 89 207 89 q 352 126 325 89 q 379 239 379 164 l 379 314 q 257 458 379 454 l 199 458 l 199 556 l 263 556 q 348 592 317 558 q 379 689 379 625 l 379 733 q 352 847 379 808 q 265 885 325 885 q 179 847 207 885 q 151 743 151 810 l 151 693 l 50 693 l 50 738 q 103 916 50 850 q 268 982 156 982 z "},"4":{"ha":556,"x_min":31,"x_max":528,"o":"m 450 196 l 450 0 l 344 0 l 344 196 l 31 196 l 31 294 l 332 972 l 450 972 l 450 294 l 528 294 l 528 196 l 450 196 m 131 294 l 344 294 l 344 769 l 131 294 z "},"5":{"ha":538,"x_min":51,"x_max":489,"o":"m 164 576 q 308 657 211 657 q 446 594 403 657 q 489 426 489 531 l 489 236 q 435 58 489 125 q 269 -10 381 -10 q 105 58 158 -10 q 51 236 51 125 l 51 301 l 153 301 l 153 229 q 181 126 153 163 q 267 89 208 89 q 353 126 325 89 q 381 229 381 163 l 381 418 q 353 522 381 485 q 267 558 325 558 q 193 533 222 558 q 157 454 164 507 l 157 432 l 56 432 l 82 972 l 465 972 l 465 875 l 179 875 l 164 576 z "},"6":{"ha":540,"x_min":49,"x_max":494,"o":"m 272 982 q 438 917 385 982 q 492 739 492 851 l 492 721 l 390 721 l 390 746 q 363 849 390 813 q 275 885 335 885 q 185 846 213 885 q 157 728 157 807 l 157 510 q 216 587 176 560 q 314 614 256 614 q 451 551 408 614 q 494 383 494 489 l 494 236 q 440 57 494 124 q 272 -10 385 -10 q 104 57 160 -10 q 49 236 49 124 l 49 732 q 102 915 49 849 q 272 982 156 982 m 272 515 q 185 478 213 515 q 157 375 157 442 l 157 229 q 185 126 157 163 q 272 89 213 89 q 359 126 331 89 q 388 229 388 163 l 388 375 q 359 478 388 442 q 272 515 331 515 z "},"7":{"ha":538,"x_min":49,"x_max":489,"o":"m 379 875 l 49 875 l 49 972 l 489 972 l 489 878 l 239 0 l 131 0 l 379 875 z "},"8":{"ha":544,"x_min":43,"x_max":501,"o":"m 272 982 q 443 918 385 982 q 501 742 501 854 l 501 711 q 475 585 501 636 q 390 511 449 533 q 476 433 451 488 q 501 306 501 379 l 501 233 q 444 56 501 121 q 272 -10 386 -10 q 101 56 158 -10 q 43 233 43 121 l 43 306 q 68 433 43 381 q 156 511 93 486 q 69 585 96 535 q 43 711 43 636 l 43 742 q 101 918 43 854 q 272 982 160 982 m 272 885 q 182 849 214 885 q 150 739 150 814 l 150 692 q 182 588 150 621 q 272 556 214 556 q 363 588 331 556 q 394 692 394 621 l 394 739 q 363 849 394 814 q 272 885 331 885 m 272 458 q 150 318 150 458 l 150 236 q 182 125 150 161 q 272 89 214 89 q 362 125 331 89 q 394 236 393 161 l 394 318 q 272 458 394 458 z "},"9":{"ha":540,"x_min":46,"x_max":492,"o":"m 268 982 q 436 916 381 982 q 492 738 492 850 l 492 242 q 438 58 492 126 q 267 -10 383 -10 q 101 56 154 -10 q 47 235 47 122 l 47 253 l 149 253 l 149 228 q 177 125 149 161 q 264 89 206 89 q 355 128 326 89 q 383 244 383 167 l 383 463 q 226 360 343 360 q 89 422 132 360 q 46 589 46 483 l 46 738 q 101 916 46 850 q 268 982 156 982 m 268 883 q 181 847 210 883 q 153 743 153 810 l 153 597 q 181 494 153 531 q 268 457 210 457 q 356 494 328 457 q 383 597 383 531 l 383 743 q 356 847 383 810 q 268 883 328 883 z "},"\u0000":{"ha":0,"x_min":0,"x_max":0,"o":""},"\r":{"ha":215,"x_min":0,"x_max":0,"o":""}," ":{"ha":215,"x_min":0,"x_max":0,"o":""},"Â":{"ha":586,"x_min":28,"x_max":557,"o":"m 218 1024 l 124 1024 l 243 1163 l 340 1163 l 460 1024 l 365 1024 l 292 1106 l 218 1024 m 165 196 l 128 0 l 28 0 l 214 972 l 371 972 l 557 0 l 449 0 l 411 196 l 165 196 m 179 289 l 396 289 l 286 850 l 179 289 z "},"Ä":{"ha":586,"x_min":28,"x_max":557,"o":"m 253 1149 l 253 1024 l 158 1024 l 158 1149 l 253 1149 m 425 1149 l 425 1024 l 331 1024 l 331 1149 l 425 1149 m 165 196 l 128 0 l 28 0 l 214 972 l 371 972 l 557 0 l 449 0 l 411 196 l 165 196 m 179 289 l 396 289 l 286 850 l 179 289 z "},"À":{"ha":586,"x_min":28,"x_max":557,"o":"m 264 1167 l 361 1024 l 282 1024 l 153 1167 l 264 1167 m 165 196 l 128 0 l 28 0 l 214 972 l 371 972 l 557 0 l 449 0 l 411 196 l 165 196 m 179 289 l 396 289 l 286 850 l 179 289 z "},"Ā":{"ha":586,"x_min":28,"x_max":557,"o":"m 439 1119 l 439 1042 l 144 1042 l 144 1119 l 439 1119 m 165 196 l 128 0 l 28 0 l 214 972 l 371 972 l 557 0 l 449 0 l 411 196 l 165 196 m 179 289 l 396 289 l 286 850 l 179 289 z "},"Ą":{"ha":586,"x_min":28,"x_max":575,"o":"m 518 0 q 480 -49 493 -21 q 468 -96 467 -76 q 485 -128 469 -118 q 519 -137 500 -137 q 551 -134 539 -137 q 575 -125 564 -131 l 575 -182 q 535 -195 554 -192 q 489 -199 515 -199 q 415 -180 443 -199 q 385 -121 386 -161 q 401 -62 383 -92 q 451 -10 419 -33 l 411 196 l 165 196 l 128 0 l 28 0 l 214 972 l 371 972 l 557 0 l 518 0 m 179 289 l 396 289 l 286 850 l 179 289 z "},"Å":{"ha":586,"x_min":28,"x_max":557,"o":"m 292 1226 q 364 1197 335 1226 q 393 1125 393 1168 q 364 1052 393 1081 q 292 1024 335 1024 q 218 1052 247 1024 q 189 1125 189 1081 q 218 1197 189 1168 q 292 1226 247 1226 m 292 1175 q 255 1160 269 1175 q 240 1125 240 1146 q 255 1089 240 1103 q 292 1075 269 1075 q 327 1089 313 1075 q 342 1125 342 1103 q 327 1160 342 1146 q 292 1175 313 1175 m 165 196 l 128 0 l 28 0 l 214 972 l 371 972 l 557 0 l 449 0 l 411 196 l 165 196 m 179 289 l 396 289 l 286 850 l 179 289 z "},"Ã":{"ha":586,"x_min":28,"x_max":557,"o":"m 224 1147 q 262 1141 244 1147 q 294 1126 279 1135 q 322 1112 308 1118 q 351 1106 336 1106 q 383 1116 369 1107 q 407 1147 396 1125 l 461 1110 q 419 1050 444 1069 q 363 1031 394 1031 q 325 1037 342 1031 q 294 1051 308 1043 q 265 1065 279 1058 q 235 1071 251 1071 q 201 1062 215 1071 q 176 1029 188 1053 l 122 1067 q 165 1128 139 1110 q 224 1147 192 1146 m 165 196 l 128 0 l 28 0 l 214 972 l 371 972 l 557 0 l 449 0 l 411 196 l 165 196 m 179 289 l 396 289 l 286 850 l 179 289 z "},"Æ":{"ha":813,"x_min":22,"x_max":768,"o":"m 717 542 l 717 444 l 493 444 l 493 99 l 768 99 l 768 0 l 386 0 l 386 197 l 188 197 l 125 0 l 22 0 l 325 972 l 768 972 l 768 874 l 493 874 l 493 542 l 717 542 m 213 292 l 386 292 l 386 836 l 213 292 z "},"Ǽ":{"ha":813,"x_min":22,"x_max":768,"o":"m 569 1172 l 440 1029 l 365 1029 l 463 1172 l 569 1172 m 717 542 l 717 444 l 493 444 l 493 99 l 768 99 l 768 0 l 386 0 l 386 197 l 188 197 l 125 0 l 22 0 l 325 972 l 768 972 l 768 874 l 493 874 l 493 542 l 717 542 m 213 292 l 386 292 l 386 836 l 213 292 z "},"B":{"ha":544,"x_min":56,"x_max":501,"o":"m 274 972 q 436 919 388 972 q 485 757 485 865 l 485 711 q 460 585 485 633 q 371 518 435 538 q 472 444 442 499 q 501 310 501 390 l 501 228 q 447 59 501 118 q 279 0 393 0 l 56 0 l 56 972 l 274 972 m 247 560 q 345 586 313 560 q 378 689 378 613 l 378 746 q 353 842 378 811 q 271 874 329 874 l 164 874 l 164 560 l 247 560 m 279 99 q 394 231 394 99 l 394 317 q 362 430 394 399 q 258 461 329 461 l 164 461 l 164 99 l 279 99 z "},"C":{"ha":528,"x_min":47,"x_max":485,"o":"m 265 982 q 431 915 378 982 q 485 738 485 849 l 485 650 l 382 650 l 382 743 q 355 847 382 810 q 268 883 328 883 q 182 847 210 883 q 154 743 154 810 l 154 229 q 182 126 154 163 q 268 89 210 89 q 355 126 328 89 q 382 229 382 163 l 382 356 l 485 356 l 485 235 q 431 57 485 124 q 265 -10 378 -10 q 101 57 154 -10 q 47 235 47 124 l 47 738 q 60 838 47 793 q 101 915 74 883 q 169 965 128 947 q 265 982 210 982 z "},"Ć":{"ha":528,"x_min":47,"x_max":485,"o":"m 407 1174 l 278 1031 l 201 1031 l 299 1174 l 407 1174 m 265 982 q 431 915 378 982 q 485 738 485 849 l 485 650 l 382 650 l 382 743 q 355 847 382 810 q 268 883 328 883 q 182 847 210 883 q 154 743 154 810 l 154 229 q 182 126 154 163 q 268 89 210 89 q 355 126 328 89 q 382 229 382 163 l 382 356 l 485 356 l 485 235 q 431 57 485 124 q 265 -10 378 -10 q 101 57 154 -10 q 47 235 47 124 l 47 738 q 60 838 47 793 q 101 915 74 883 q 169 965 128 947 q 265 982 210 982 z "},"Č":{"ha":528,"x_min":47,"x_max":485,"o":"m 196 1168 l 268 1085 l 342 1168 l 438 1168 l 317 1029 l 221 1029 l 101 1168 l 196 1168 m 265 982 q 431 915 378 982 q 485 738 485 849 l 485 650 l 382 650 l 382 743 q 355 847 382 810 q 268 883 328 883 q 182 847 210 883 q 154 743 154 810 l 154 229 q 182 126 154 163 q 268 89 210 89 q 355 126 328 89 q 382 229 382 163 l 382 356 l 485 356 l 485 235 q 431 57 485 124 q 265 -10 378 -10 q 101 57 154 -10 q 47 235 47 124 l 47 738 q 60 838 47 793 q 101 915 74 883 q 169 965 128 947 q 265 982 210 982 z "},"Ç":{"ha":528,"x_min":47,"x_max":485,"o":"m 265 982 q 431 915 378 982 q 485 738 485 849 l 485 650 l 382 650 l 382 743 q 355 847 382 810 q 268 883 328 883 q 182 847 210 883 q 154 743 154 810 l 154 229 q 182 126 154 163 q 268 89 210 89 q 355 126 328 89 q 382 229 382 163 l 382 356 l 485 356 l 485 235 q 437 65 485 131 q 289 -8 389 -1 l 289 -51 q 365 -70 338 -51 q 392 -122 392 -89 q 357 -187 392 -164 q 260 -211 322 -211 q 165 -188 199 -211 q 132 -125 132 -165 l 132 -114 l 203 -114 l 203 -124 q 260 -164 203 -160 q 319 -119 319 -164 q 251 -78 319 -78 l 239 -78 l 239 -8 q 94 65 140 -1 q 47 235 47 132 l 47 738 q 60 838 47 793 q 101 915 74 883 q 169 965 128 947 q 265 982 210 982 z "},"Ĉ":{"ha":528,"x_min":47,"x_max":485,"o":"m 194 1028 l 100 1028 l 219 1168 l 315 1168 l 436 1028 l 342 1028 l 268 1110 l 194 1028 m 265 982 q 431 915 378 982 q 485 738 485 849 l 485 650 l 382 650 l 382 743 q 355 847 382 810 q 268 883 328 883 q 182 847 210 883 q 154 743 154 810 l 154 229 q 182 126 154 163 q 268 89 210 89 q 355 126 328 89 q 382 229 382 163 l 382 356 l 485 356 l 485 235 q 431 57 485 124 q 265 -10 378 -10 q 101 57 154 -10 q 47 235 47 124 l 47 738 q 60 838 47 793 q 101 915 74 883 q 169 965 128 947 q 265 982 210 982 z "},"Ċ":{"ha":528,"x_min":47,"x_max":485,"o":"m 313 1150 l 313 1025 l 218 1025 l 218 1150 l 313 1150 m 265 982 q 431 915 378 982 q 485 738 485 849 l 485 650 l 382 650 l 382 743 q 355 847 382 810 q 268 883 328 883 q 182 847 210 883 q 154 743 154 810 l 154 229 q 182 126 154 163 q 268 89 210 89 q 355 126 328 89 q 382 229 382 163 l 382 356 l 485 356 l 485 235 q 431 57 485 124 q 265 -10 378 -10 q 101 57 154 -10 q 47 235 47 124 l 47 738 q 60 838 47 793 q 101 915 74 883 q 169 965 128 947 q 265 982 210 982 z "},"D":{"ha":550,"x_min":56,"x_max":504,"o":"m 283 972 q 451 908 397 972 q 504 731 504 843 l 504 240 q 451 64 504 128 q 283 0 397 0 l 56 0 l 56 972 l 283 972 m 282 99 q 369 134 340 99 q 397 236 397 169 l 397 736 q 369 838 397 803 q 281 874 340 874 l 164 874 l 164 99 l 282 99 z "},"Ð":{"ha":550,"x_min":-1,"x_max":504,"o":"m 283 972 q 451 908 397 972 q 504 731 504 843 l 504 240 q 451 64 504 128 q 283 0 397 0 l 56 0 l 56 442 l -1 442 l -1 531 l 56 531 l 56 972 l 283 972 m 272 442 l 164 442 l 164 99 l 282 99 q 369 134 340 99 q 397 236 397 169 l 397 736 q 369 838 397 803 q 281 874 340 874 l 164 874 l 164 531 l 272 531 l 272 442 z "},"Ď":{"ha":550,"x_min":56,"x_max":504,"o":"m 188 1165 l 261 1082 l 335 1165 l 431 1165 l 310 1026 l 214 1026 l 93 1165 l 188 1165 m 283 972 q 451 908 397 972 q 504 731 504 843 l 504 240 q 451 64 504 128 q 283 0 397 0 l 56 0 l 56 972 l 283 972 m 282 99 q 369 134 340 99 q 397 236 397 169 l 397 736 q 369 838 397 803 q 281 874 340 874 l 164 874 l 164 99 l 282 99 z "},"Đ":{"ha":550,"x_min":1,"x_max":504,"o":"m 283 972 q 451 908 397 972 q 504 731 504 843 l 504 240 q 451 64 504 128 q 283 0 397 0 l 56 0 l 56 442 l 1 442 l 1 529 l 56 529 l 56 972 l 283 972 m 274 442 l 164 442 l 164 99 l 282 99 q 369 134 340 99 q 397 236 397 169 l 397 736 q 369 838 397 803 q 281 874 340 874 l 164 874 l 164 529 l 274 529 l 274 442 z "},"E":{"ha":500,"x_min":56,"x_max":456,"o":"m 401 542 l 401 444 l 164 444 l 164 99 l 456 99 l 456 0 l 56 0 l 56 972 l 456 972 l 456 874 l 164 874 l 164 542 l 401 542 z "},"É":{"ha":500,"x_min":56,"x_max":456,"o":"m 393 1169 l 264 1026 l 189 1026 l 286 1169 l 393 1169 m 401 542 l 401 444 l 164 444 l 164 99 l 456 99 l 456 0 l 56 0 l 56 972 l 456 972 l 456 874 l 164 874 l 164 542 l 401 542 z "},"Ĕ":{"ha":500,"x_min":56,"x_max":456,"o":"m 399 1167 q 359 1063 397 1100 q 251 1026 321 1026 q 147 1063 185 1026 q 108 1167 110 1100 l 174 1167 q 198 1110 176 1126 q 251 1094 219 1094 q 308 1110 286 1094 q 333 1167 331 1126 l 399 1167 m 401 542 l 401 444 l 164 444 l 164 99 l 456 99 l 456 0 l 56 0 l 56 972 l 456 972 l 456 874 l 164 874 l 164 542 l 401 542 z "},"Ě":{"ha":500,"x_min":56,"x_max":456,"o":"m 182 1165 l 254 1082 l 329 1165 l 424 1165 l 303 1026 l 207 1026 l 88 1165 l 182 1165 m 401 542 l 401 444 l 164 444 l 164 99 l 456 99 l 456 0 l 56 0 l 56 972 l 456 972 l 456 874 l 164 874 l 164 542 l 401 542 z "},"Ê":{"ha":500,"x_min":56,"x_max":456,"o":"m 181 1026 l 86 1026 l 206 1167 l 301 1167 l 422 1026 l 328 1026 l 253 1110 l 181 1026 m 401 542 l 401 444 l 164 444 l 164 99 l 456 99 l 456 0 l 56 0 l 56 972 l 456 972 l 456 874 l 164 874 l 164 542 l 401 542 z "},"Ë":{"ha":500,"x_min":56,"x_max":456,"o":"m 215 1151 l 215 1026 l 121 1026 l 121 1151 l 215 1151 m 388 1151 l 388 1026 l 293 1026 l 293 1151 l 388 1151 m 401 542 l 401 444 l 164 444 l 164 99 l 456 99 l 456 0 l 56 0 l 56 972 l 456 972 l 456 874 l 164 874 l 164 542 l 401 542 z "},"Ė":{"ha":500,"x_min":56,"x_max":456,"o":"m 303 1153 l 303 1028 l 208 1028 l 208 1153 l 303 1153 m 401 542 l 401 444 l 164 444 l 164 99 l 456 99 l 456 0 l 56 0 l 56 972 l 456 972 l 456 874 l 164 874 l 164 542 l 401 542 z "},"È":{"ha":500,"x_min":56,"x_max":456,"o":"m 232 1174 l 328 1031 l 249 1031 l 119 1174 l 232 1174 m 401 542 l 401 444 l 164 444 l 164 99 l 456 99 l 456 0 l 56 0 l 56 972 l 456 972 l 456 874 l 164 874 l 164 542 l 401 542 z "},"Ē":{"ha":500,"x_min":56,"x_max":456,"o":"m 397 1121 l 397 1044 l 107 1044 l 107 1121 l 397 1121 m 401 542 l 401 444 l 164 444 l 164 99 l 456 99 l 456 0 l 56 0 l 56 972 l 456 972 l 456 874 l 164 874 l 164 542 l 401 542 z "},"Ę":{"ha":500,"x_min":56,"x_max":465,"o":"m 401 542 l 401 444 l 164 444 l 164 99 l 456 99 l 456 0 l 410 0 q 371 -49 383 -21 q 358 -96 358 -76 q 375 -128 360 -118 q 411 -137 390 -137 q 442 -134 431 -137 q 465 -125 454 -131 l 465 -182 q 425 -195 444 -192 q 381 -199 406 -199 q 305 -180 333 -199 q 275 -121 276 -161 q 298 -56 275 -87 q 360 0 321 -24 l 56 0 l 56 972 l 456 972 l 456 874 l 164 874 l 164 542 l 401 542 z "},"F":{"ha":472,"x_min":56,"x_max":442,"o":"m 388 519 l 388 421 l 164 421 l 164 0 l 56 0 l 56 972 l 442 972 l 442 874 l 164 874 l 164 519 l 388 519 z "},"G":{"ha":532,"x_min":47,"x_max":485,"o":"m 265 982 q 431 915 378 982 q 485 738 485 849 l 485 654 l 382 654 l 382 743 q 355 847 382 810 q 268 883 328 883 q 182 847 210 883 q 154 743 154 810 l 154 229 q 182 126 154 163 q 268 89 210 89 q 355 126 328 89 q 382 229 382 163 l 382 424 l 282 424 l 282 521 l 485 521 l 485 235 q 431 57 485 124 q 265 -10 378 -10 q 101 57 154 -10 q 47 235 47 124 l 47 738 q 60 838 47 793 q 101 915 74 883 q 169 965 128 947 q 265 982 210 982 z "},"Ğ":{"ha":532,"x_min":47,"x_max":485,"o":"m 411 1168 q 372 1065 410 1101 q 265 1028 333 1028 q 160 1065 197 1028 q 121 1168 122 1101 l 186 1168 q 210 1112 189 1128 q 265 1096 232 1096 q 321 1112 299 1096 q 346 1168 343 1128 l 411 1168 m 265 982 q 431 915 378 982 q 485 738 485 849 l 485 654 l 382 654 l 382 743 q 355 847 382 810 q 268 883 328 883 q 182 847 210 883 q 154 743 154 810 l 154 229 q 182 126 154 163 q 268 89 210 89 q 355 126 328 89 q 382 229 382 163 l 382 424 l 282 424 l 282 521 l 485 521 l 485 235 q 431 57 485 124 q 265 -10 378 -10 q 101 57 154 -10 q 47 235 47 124 l 47 738 q 60 838 47 793 q 101 915 74 883 q 169 965 128 947 q 265 982 210 982 z "},"Ĝ":{"ha":532,"x_min":47,"x_max":485,"o":"m 193 1031 l 99 1031 l 218 1169 l 314 1169 l 435 1031 l 340 1031 l 265 1113 l 193 1031 m 265 982 q 431 915 378 982 q 485 738 485 849 l 485 654 l 382 654 l 382 743 q 355 847 382 810 q 268 883 328 883 q 182 847 210 883 q 154 743 154 810 l 154 229 q 182 126 154 163 q 268 89 210 89 q 355 126 328 89 q 382 229 382 163 l 382 424 l 282 424 l 282 521 l 485 521 l 485 235 q 431 57 485 124 q 265 -10 378 -10 q 101 57 154 -10 q 47 235 47 124 l 47 738 q 60 838 47 793 q 101 915 74 883 q 169 965 128 947 q 265 982 210 982 z "},"Ġ":{"ha":532,"x_min":47,"x_max":485,"o":"m 317 1153 l 317 1028 l 222 1028 l 222 1153 l 317 1153 m 265 982 q 431 915 378 982 q 485 738 485 849 l 485 654 l 382 654 l 382 743 q 355 847 382 810 q 268 883 328 883 q 182 847 210 883 q 154 743 154 810 l 154 229 q 182 126 154 163 q 268 89 210 89 q 355 126 328 89 q 382 229 382 163 l 382 424 l 282 424 l 282 521 l 485 521 l 485 235 q 431 57 485 124 q 265 -10 378 -10 q 101 57 154 -10 q 47 235 47 124 l 47 738 q 60 838 47 793 q 101 915 74 883 q 169 965 128 947 q 265 982 210 982 z "},"H":{"ha":567,"x_min":56,"x_max":511,"o":"m 164 438 l 164 0 l 56 0 l 56 972 l 164 972 l 164 535 l 403 535 l 403 972 l 511 972 l 511 0 l 403 0 l 403 438 l 164 438 z "},"Ħ":{"ha":576,"x_min":10,"x_max":567,"o":"m 517 714 l 517 0 l 407 0 l 407 438 l 168 438 l 168 0 l 60 0 l 60 714 l 10 714 l 10 794 l 60 794 l 60 972 l 168 972 l 168 794 l 407 794 l 407 972 l 517 972 l 517 794 l 567 794 l 567 714 l 517 714 m 407 714 l 168 714 l 168 535 l 407 535 l 407 714 z "},"Ĥ":{"ha":567,"x_min":56,"x_max":511,"o":"m 210 1029 l 115 1029 l 236 1169 l 332 1169 l 451 1029 l 357 1029 l 283 1111 l 210 1029 m 164 438 l 164 0 l 56 0 l 56 972 l 164 972 l 164 535 l 403 535 l 403 972 l 511 972 l 511 0 l 403 0 l 403 438 l 164 438 z "},"I":{"ha":219,"x_min":56,"x_max":164,"o":"m 164 972 l 164 0 l 56 0 l 56 972 l 164 972 z "},"Ĳ":{"ha":572,"x_min":56,"x_max":522,"o":"m 164 972 l 164 0 l 56 0 l 56 972 l 164 972 m 522 240 q 506 125 522 171 q 462 51 490 79 q 395 12 433 24 q 313 -1 357 0 q 278 -1 293 -1 q 246 0 264 -1 l 246 99 q 273 97 260 97 q 299 97 286 97 q 384 130 354 100 q 414 233 414 160 l 414 972 l 522 972 l 522 240 z "},"Í":{"ha":219,"x_min":43,"x_max":247,"o":"m 139 1169 l 247 1169 l 118 1026 l 43 1026 l 139 1169 m 56 972 l 164 972 l 164 0 l 56 0 l 56 972 z "},"Ĭ":{"ha":219,"x_min":-35,"x_max":254,"o":"m 254 1164 q 215 1060 254 1097 q 108 1022 176 1022 q 3 1060 40 1022 q -35 1164 -33 1097 l 31 1164 q 55 1106 33 1122 q 108 1090 76 1090 q 164 1106 142 1090 q 189 1164 186 1122 l 254 1164 m 56 972 l 164 972 l 164 0 l 56 0 l 56 972 z "},"Î":{"ha":219,"x_min":-58,"x_max":278,"o":"m 157 1165 l 278 1026 l 183 1026 l 110 1108 l 36 1026 l -58 1026 l 61 1165 l 157 1165 m 56 972 l 164 972 l 164 0 l 56 0 l 56 972 z "},"Ï":{"ha":219,"x_min":-24,"x_max":243,"o":"m 71 1151 l 71 1026 l -24 1026 l -24 1151 l 71 1151 m 243 1151 l 243 1026 l 149 1026 l 149 1151 l 243 1151 m 164 972 l 164 0 l 56 0 l 56 972 l 164 972 z "},"İ":{"ha":219,"x_min":56,"x_max":164,"o":"m 157 1151 l 157 1026 l 63 1026 l 63 1151 l 157 1151 m 164 972 l 164 0 l 56 0 l 56 972 l 164 972 z "},"Ì":{"ha":219,"x_min":-35,"x_max":175,"o":"m -35 1169 l 78 1169 l 175 1026 l 94 1026 l -35 1169 m 56 972 l 164 972 l 164 0 l 56 0 l 56 972 z "},"Ī":{"ha":219,"x_min":-29,"x_max":247,"o":"m 247 1119 l 247 1042 l -29 1042 l -29 1119 l 247 1119 m 164 972 l 164 0 l 56 0 l 56 972 l 164 972 z "},"Į":{"ha":219,"x_min":10,"x_max":201,"o":"m 144 0 q 106 -49 118 -21 q 94 -96 93 -76 q 110 -128 94 -118 q 146 -137 125 -137 q 177 -134 165 -137 q 201 -125 189 -131 l 201 -182 q 160 -195 181 -192 q 115 -199 140 -199 q 40 -180 69 -199 q 11 -121 11 -161 q 32 -57 10 -89 q 96 0 54 -25 l 56 0 l 56 972 l 164 972 l 164 0 l 144 0 z "},"Ĩ":{"ha":219,"x_min":-60,"x_max":279,"o":"m 279 1114 q 181 1033 249 1033 q 144 1040 160 1033 q 113 1053 128 1046 q 83 1067 97 1061 q 53 1074 69 1074 q 19 1065 33 1074 q -6 1033 6 1057 l -60 1069 q -15 1131 -42 1113 q 43 1150 11 1150 q 81 1144 64 1150 q 112 1130 97 1138 q 141 1116 126 1122 q 171 1110 156 1110 q 202 1119 189 1110 q 226 1150 215 1128 l 279 1114 m 164 972 l 164 0 l 56 0 l 56 972 l 164 972 z "},"J":{"ha":354,"x_min":28,"x_max":303,"o":"m 28 99 q 56 97 42 97 q 82 97 69 97 q 165 130 135 100 q 196 233 196 160 l 196 972 l 303 972 l 303 240 q 287 126 303 172 q 243 52 271 81 q 177 12 215 24 q 96 -1 139 0 q 61 -2 76 -1 q 28 0 46 -3 l 28 99 z "},"Ĵ":{"ha":354,"x_min":28,"x_max":400,"o":"m 158 1026 l 64 1026 l 183 1167 l 279 1167 l 400 1026 l 306 1026 l 232 1110 l 158 1026 m 303 240 q 287 126 303 172 q 243 52 271 81 q 177 12 215 24 q 96 -1 139 0 q 61 -2 76 -1 q 28 0 46 -3 l 28 99 q 56 97 42 97 q 82 97 69 97 q 165 130 135 100 q 196 233 196 160 l 196 972 l 303 972 l 303 240 z "},"K":{"ha":568,"x_min":56,"x_max":540,"o":"m 221 422 l 164 326 l 164 0 l 56 0 l 56 972 l 164 972 l 164 503 l 422 972 l 532 972 l 286 529 l 540 0 l 429 0 l 221 422 z "},"L":{"ha":468,"x_min":56,"x_max":442,"o":"m 56 0 l 56 972 l 164 972 l 164 99 l 442 99 l 442 0 l 56 0 z "},"Ĺ":{"ha":468,"x_min":56,"x_max":442,"o":"m 286 1169 l 157 1026 l 82 1026 l 179 1169 l 286 1169 m 56 0 l 56 972 l 164 972 l 164 99 l 442 99 l 442 0 l 56 0 z "},"Ľ":{"ha":468,"x_min":56,"x_max":442,"o":"m 56 0 l 56 972 l 164 972 l 164 99 l 442 99 l 442 0 l 56 0 m 336 838 l 296 838 l 296 972 l 400 972 l 400 849 l 347 715 l 301 715 l 336 838 z "},"Ŀ":{"ha":468,"x_min":56,"x_max":442,"o":"m 56 0 l 56 972 l 164 972 l 164 99 l 442 99 l 442 0 l 56 0 m 378 556 l 378 421 l 274 421 l 274 556 l 378 556 z "},"Ł":{"ha":483,"x_min":0,"x_max":457,"o":"m 178 404 l 178 99 l 457 99 l 457 0 l 71 0 l 71 289 l 0 219 l 0 319 l 71 389 l 71 972 l 178 972 l 178 504 l 329 661 l 329 561 l 178 404 z "},"M":{"ha":726,"x_min":54,"x_max":671,"o":"m 414 1 l 310 1 l 149 775 l 149 0 l 54 0 l 54 972 l 206 972 l 365 196 l 519 972 l 671 972 l 671 0 l 568 0 l 568 782 l 414 1 z "},"N":{"ha":568,"x_min":54,"x_max":513,"o":"m 151 0 l 54 0 l 54 972 l 192 972 l 417 269 l 417 972 l 513 972 l 513 0 l 400 0 l 151 786 l 151 0 z "},"Ń":{"ha":568,"x_min":54,"x_max":513,"o":"m 425 1169 l 296 1028 l 221 1028 l 318 1169 l 425 1169 m 151 0 l 54 0 l 54 972 l 192 972 l 417 269 l 417 972 l 513 972 l 513 0 l 400 0 l 151 788 l 151 0 z "},"Ň":{"ha":568,"x_min":54,"x_max":513,"o":"m 211 1169 l 285 1086 l 358 1169 l 453 1169 l 333 1029 l 238 1029 l 117 1169 l 211 1169 m 151 0 l 54 0 l 54 972 l 192 972 l 417 269 l 417 972 l 513 972 l 513 0 l 400 0 l 151 786 l 151 0 z "},"Ñ":{"ha":568,"x_min":54,"x_max":513,"o":"m 454 1117 q 413 1056 438 1075 q 356 1036 388 1036 q 318 1042 335 1036 q 287 1056 301 1049 q 258 1070 272 1064 q 228 1076 244 1076 q 194 1068 208 1076 q 169 1036 181 1060 l 115 1072 q 158 1134 132 1115 q 218 1153 185 1153 q 256 1147 239 1153 q 287 1133 272 1140 q 315 1119 301 1125 q 344 1113 329 1113 q 400 1153 381 1113 l 454 1117 m 151 0 l 54 0 l 54 972 l 192 972 l 417 269 l 417 972 l 513 972 l 513 0 l 400 0 l 151 786 l 151 0 z "},"O":{"ha":540,"x_min":47,"x_max":493,"o":"m 47 738 q 102 916 47 850 q 269 982 157 982 q 438 916 382 982 q 493 738 493 850 l 493 235 q 438 57 493 124 q 269 -10 382 -10 q 102 57 157 -10 q 47 235 47 124 l 47 738 m 154 229 q 183 126 154 163 q 269 89 211 89 q 357 126 329 89 q 385 229 385 163 l 385 743 q 357 847 385 810 q 269 883 329 883 q 183 847 211 883 q 154 743 154 810 l 154 229 z "},"Ó":{"ha":540,"x_min":47,"x_max":493,"o":"m 407 1174 l 278 1031 l 203 1031 l 300 1174 l 407 1174 m 269 982 q 438 916 382 982 q 493 738 493 850 l 493 235 q 438 57 493 124 q 269 -10 382 -10 q 102 57 157 -10 q 47 235 47 124 l 47 738 q 102 916 47 850 q 269 982 157 982 m 269 883 q 183 847 211 883 q 154 743 154 810 l 154 229 q 183 126 154 163 q 269 89 211 89 q 357 126 329 89 q 385 229 385 163 l 385 743 q 357 847 385 810 q 269 883 329 883 z "},"Ŏ":{"ha":540,"x_min":47,"x_max":493,"o":"m 415 1168 q 376 1065 414 1101 q 268 1028 338 1028 q 164 1065 201 1028 q 125 1168 126 1101 l 190 1168 q 215 1112 193 1128 q 268 1096 236 1096 q 325 1112 303 1096 q 350 1168 347 1128 l 415 1168 m 269 982 q 438 916 382 982 q 493 738 493 850 l 493 235 q 438 57 493 124 q 269 -10 382 -10 q 102 57 157 -10 q 47 235 47 124 l 47 738 q 102 916 47 850 q 269 982 157 982 m 269 883 q 183 847 211 883 q 154 743 154 810 l 154 229 q 183 126 154 163 q 269 89 211 89 q 357 126 329 89 q 385 229 385 163 l 385 743 q 357 847 385 810 q 269 883 329 883 z "},"Ô":{"ha":540,"x_min":47,"x_max":493,"o":"m 196 1029 l 101 1029 l 221 1169 l 317 1169 l 438 1029 l 343 1029 l 268 1111 l 196 1029 m 269 982 q 438 916 382 982 q 493 738 493 850 l 493 235 q 438 57 493 124 q 269 -10 382 -10 q 102 57 157 -10 q 47 235 47 124 l 47 738 q 102 916 47 850 q 269 982 157 982 m 269 883 q 183 847 211 883 q 154 743 154 810 l 154 229 q 183 126 154 163 q 269 89 211 89 q 357 126 329 89 q 385 229 385 163 l 385 743 q 357 847 385 810 q 269 883 329 883 z "},"Ö":{"ha":540,"x_min":47,"x_max":493,"o":"m 231 1154 l 231 1029 l 136 1029 l 136 1154 l 231 1154 m 403 1154 l 403 1029 l 308 1029 l 308 1154 l 403 1154 m 269 982 q 438 916 382 982 q 493 738 493 850 l 493 235 q 438 57 493 124 q 269 -10 382 -10 q 102 57 157 -10 q 47 235 47 124 l 47 738 q 102 916 47 850 q 269 982 157 982 m 269 883 q 183 847 211 883 q 154 743 154 810 l 154 229 q 183 126 154 163 q 269 89 211 89 q 357 126 329 89 q 385 229 385 163 l 385 743 q 357 847 385 810 q 269 883 329 883 z "},"Ò":{"ha":540,"x_min":47,"x_max":493,"o":"m 242 1174 l 338 1031 l 258 1031 l 129 1174 l 242 1174 m 269 982 q 438 916 382 982 q 493 738 493 850 l 493 235 q 438 57 493 124 q 269 -10 382 -10 q 102 57 157 -10 q 47 235 47 124 l 47 738 q 102 916 47 850 q 269 982 157 982 m 269 883 q 183 847 211 883 q 154 743 154 810 l 154 229 q 183 126 154 163 q 269 89 211 89 q 357 126 329 89 q 385 229 385 163 l 385 743 q 357 847 385 810 q 269 883 329 883 z "},"Ő":{"ha":540,"x_min":47,"x_max":493,"o":"m 319 1174 l 208 1031 l 140 1031 l 219 1174 l 319 1174 m 469 1174 l 357 1031 l 289 1031 l 368 1174 l 469 1174 m 269 982 q 438 916 382 982 q 493 738 493 850 l 493 235 q 438 57 493 124 q 269 -10 382 -10 q 102 57 157 -10 q 47 235 47 124 l 47 738 q 102 916 47 850 q 269 982 157 982 m 269 883 q 183 847 211 883 q 154 743 154 810 l 154 229 q 183 126 154 163 q 269 89 211 89 q 357 126 329 89 q 385 229 385 163 l 385 743 q 357 847 385 810 q 269 883 329 883 z "},"Ō":{"ha":540,"x_min":47,"x_max":493,"o":"m 415 1119 l 415 1043 l 126 1043 l 126 1119 l 415 1119 m 269 982 q 438 916 382 982 q 493 738 493 850 l 493 235 q 438 57 493 124 q 269 -10 382 -10 q 102 57 157 -10 q 47 235 47 124 l 47 738 q 102 916 47 850 q 269 982 157 982 m 269 883 q 183 847 211 883 q 154 743 154 810 l 154 229 q 183 126 154 163 q 269 89 211 89 q 357 126 329 89 q 385 229 385 163 l 385 743 q 357 847 385 810 q 269 883 329 883 z "},"Ø":{"ha":540,"x_min":47,"x_max":493,"o":"m 451 897 q 493 738 493 835 l 493 235 q 438 57 493 124 q 269 -10 382 -10 q 128 33 182 -10 l 101 -36 l 54 -18 l 89 75 q 47 235 47 138 l 47 738 q 102 916 47 850 q 269 982 157 982 q 413 939 357 982 l 438 1007 l 486 989 l 451 897 m 369 825 q 269 883 342 883 q 183 847 211 883 q 154 743 154 810 l 154 250 l 369 825 m 269 89 q 357 126 329 89 q 385 229 385 163 l 385 719 l 169 146 q 269 89 197 89 z "},"Ǿ":{"ha":540,"x_min":47,"x_max":493,"o":"m 304 1174 l 413 1174 l 283 1031 l 207 1031 l 304 1174 m 451 897 q 493 738 493 835 l 493 235 q 438 57 493 124 q 269 -10 382 -10 q 128 33 182 -10 l 101 -36 l 54 -18 l 89 75 q 47 235 47 138 l 47 738 q 102 916 47 850 q 269 982 157 982 q 413 939 357 982 l 438 1007 l 486 989 l 451 897 m 369 825 q 269 883 342 883 q 183 847 211 883 q 154 743 154 810 l 154 250 l 369 825 m 269 89 q 357 126 329 89 q 385 229 385 163 l 385 719 l 169 146 q 269 89 197 89 z "},"Õ":{"ha":540,"x_min":47,"x_max":493,"o":"m 442 1114 q 401 1053 426 1072 q 343 1035 375 1035 q 306 1041 322 1035 q 275 1055 290 1047 q 246 1069 260 1063 q 215 1075 232 1075 q 182 1066 196 1075 q 157 1033 168 1057 l 103 1071 q 147 1132 121 1114 q 206 1151 174 1150 q 243 1145 226 1151 q 274 1131 260 1139 q 303 1116 289 1122 q 333 1110 318 1110 q 365 1120 351 1111 q 389 1151 378 1129 l 442 1114 m 269 982 q 438 916 382 982 q 493 738 493 850 l 493 235 q 438 57 493 124 q 269 -10 382 -10 q 102 57 157 -10 q 47 235 47 124 l 47 738 q 102 916 47 850 q 269 982 157 982 m 269 883 q 183 847 211 883 q 154 743 154 810 l 154 229 q 183 126 154 163 q 269 89 211 89 q 357 126 329 89 q 385 229 385 163 l 385 743 q 357 847 385 810 q 269 883 329 883 z "},"Œ":{"ha":801,"x_min":46,"x_max":757,"o":"m 706 542 l 706 444 l 482 444 l 482 99 l 757 99 l 757 0 l 261 0 q 97 66 149 0 q 46 242 46 132 l 46 731 q 97 906 46 840 q 261 972 149 972 l 757 972 l 757 874 l 482 874 l 482 542 l 706 542 m 263 874 q 179 836 204 874 q 154 736 154 799 l 154 236 q 179 136 154 174 q 263 99 204 99 l 375 99 l 375 874 l 263 874 z "},"P":{"ha":519,"x_min":56,"x_max":486,"o":"m 268 972 q 435 909 383 972 q 486 735 486 846 l 486 618 q 431 442 486 501 q 260 383 376 383 l 164 383 l 164 0 l 56 0 l 56 972 l 268 972 m 260 481 q 350 510 321 481 q 379 611 379 540 l 379 740 q 353 840 379 807 q 268 874 328 874 l 164 874 l 164 481 l 260 481 z "},"Þ":{"ha":524,"x_min":56,"x_max":486,"o":"m 268 832 q 435 769 383 832 q 486 593 486 706 l 486 478 q 431 301 486 360 q 260 242 376 242 l 164 242 l 164 0 l 56 0 l 56 972 l 164 972 l 164 832 l 268 832 m 260 340 q 350 370 321 340 q 379 471 379 400 l 379 600 q 353 700 379 667 q 268 733 328 733 l 164 733 l 164 340 l 260 340 z "},"Q":{"ha":558,"x_min":47,"x_max":529,"o":"m 269 982 q 438 916 382 982 q 493 738 493 850 l 493 235 q 456 83 493 142 q 478 59 464 65 q 515 53 492 53 l 529 53 l 529 -43 l 511 -43 q 388 19 422 -43 q 335 -2 364 6 q 269 -10 306 -10 q 102 57 157 -10 q 47 235 47 124 l 47 738 q 102 916 47 850 q 269 982 157 982 m 269 883 q 183 847 211 883 q 154 743 154 810 l 154 229 q 183 126 154 163 q 269 89 211 89 q 357 126 329 89 q 385 229 385 163 l 385 743 q 357 847 385 810 q 269 883 329 883 z "},"R":{"ha":547,"x_min":56,"x_max":510,"o":"m 272 972 q 438 915 388 972 q 489 750 489 858 l 489 671 q 460 540 489 590 q 368 471 431 490 q 463 399 435 451 q 490 268 490 347 l 490 117 q 493 55 490 85 q 510 0 496 25 l 400 0 q 386 45 390 21 q 382 118 382 69 l 382 271 q 345 384 382 353 q 240 415 308 415 l 164 415 l 164 0 l 56 0 l 56 972 l 272 972 m 244 514 q 346 541 310 514 q 382 647 382 568 l 382 740 q 356 840 382 807 q 269 874 331 874 l 164 874 l 164 514 l 244 514 z "},"Ŕ":{"ha":547,"x_min":56,"x_max":510,"o":"m 399 1174 l 269 1031 l 194 1031 l 290 1174 l 399 1174 m 272 972 q 438 915 388 972 q 489 750 489 858 l 489 671 q 460 540 489 590 q 368 471 431 490 q 463 399 435 451 q 490 268 490 347 l 490 117 q 493 55 490 85 q 510 0 496 25 l 400 0 q 386 45 390 21 q 382 118 382 69 l 382 271 q 345 384 382 353 q 240 415 308 415 l 164 415 l 164 0 l 56 0 l 56 972 l 272 972 m 244 514 q 346 541 310 514 q 382 647 382 568 l 382 740 q 356 840 382 807 q 269 874 331 874 l 164 874 l 164 514 l 244 514 z "},"Ř":{"ha":547,"x_min":56,"x_max":510,"o":"m 185 1169 l 258 1086 l 332 1169 l 426 1169 l 306 1031 l 210 1031 l 90 1169 l 185 1169 m 272 972 q 438 915 388 972 q 489 750 489 858 l 489 671 q 460 540 489 590 q 368 471 431 490 q 463 399 435 451 q 490 268 490 347 l 490 117 q 493 55 490 85 q 510 0 496 25 l 400 0 q 386 45 390 21 q 382 118 382 69 l 382 271 q 345 384 382 353 q 240 415 308 415 l 164 415 l 164 0 l 56 0 l 56 972 l 272 972 m 244 514 q 346 541 310 514 q 382 647 382 568 l 382 740 q 356 840 382 807 q 269 874 331 874 l 164 874 l 164 514 l 244 514 z "},"S":{"ha":517,"x_min":40,"x_max":478,"o":"m 260 982 q 424 916 371 982 q 476 739 476 850 l 476 713 l 374 713 l 374 744 q 347 847 374 811 q 263 883 321 883 q 178 847 204 883 q 151 746 151 811 q 176 651 151 692 q 236 577 200 611 q 315 510 272 543 q 393 439 357 478 q 453 351 429 400 q 478 233 478 301 q 424 56 478 122 q 258 -10 371 -10 q 93 56 146 -10 q 40 233 40 122 l 40 289 l 142 289 l 142 228 q 169 125 142 161 q 256 89 197 89 q 342 125 314 89 q 369 228 369 161 q 345 322 369 282 q 285 395 321 361 q 207 462 249 429 q 129 533 165 494 q 69 622 93 572 q 44 739 44 671 q 97 917 44 851 q 260 982 150 982 z "},"Ś":{"ha":517,"x_min":40,"x_max":478,"o":"m 401 1174 l 272 1031 l 197 1031 l 293 1174 l 401 1174 m 260 982 q 424 916 371 982 q 476 739 476 850 l 476 713 l 374 713 l 374 744 q 347 847 374 811 q 263 883 321 883 q 178 847 204 883 q 151 746 151 811 q 176 651 151 692 q 236 577 200 611 q 315 510 272 543 q 393 439 357 478 q 453 351 429 400 q 478 233 478 301 q 424 56 478 122 q 258 -10 371 -10 q 93 56 146 -10 q 40 233 40 122 l 40 289 l 142 289 l 142 228 q 169 125 142 161 q 256 89 197 89 q 342 125 314 89 q 369 228 369 161 q 345 322 369 282 q 285 395 321 361 q 207 462 249 429 q 129 533 165 494 q 69 622 93 572 q 44 739 44 671 q 97 917 44 851 q 260 982 150 982 z "},"Š":{"ha":517,"x_min":40,"x_max":478,"o":"m 188 1169 l 260 1086 l 333 1169 l 429 1169 l 308 1031 l 213 1031 l 93 1169 l 188 1169 m 260 982 q 424 916 371 982 q 476 739 476 850 l 476 713 l 374 713 l 374 744 q 347 847 374 811 q 263 883 321 883 q 178 847 204 883 q 151 746 151 811 q 176 651 151 692 q 236 577 200 611 q 315 510 272 543 q 393 439 357 478 q 453 351 429 400 q 478 233 478 301 q 424 56 478 122 q 258 -10 371 -10 q 93 56 146 -10 q 40 233 40 122 l 40 289 l 142 289 l 142 228 q 169 125 142 161 q 256 89 197 89 q 342 125 314 89 q 369 228 369 161 q 345 322 369 282 q 285 395 321 361 q 207 462 249 429 q 129 533 165 494 q 69 622 93 572 q 44 739 44 671 q 97 917 44 851 q 260 982 150 982 z "},"Ş":{"ha":517,"x_min":40,"x_max":478,"o":"m 279 -51 q 355 -70 328 -51 q 382 -122 382 -89 q 347 -187 382 -164 q 250 -211 313 -211 q 156 -188 189 -211 q 122 -125 122 -165 l 122 -114 l 193 -114 l 193 -124 q 250 -164 193 -160 q 310 -119 310 -164 q 242 -78 310 -78 l 229 -78 l 229 -8 q 85 65 131 0 q 40 233 40 129 l 40 289 l 142 289 l 142 228 q 169 125 142 161 q 256 89 197 89 q 342 125 314 89 q 369 228 369 161 q 345 322 369 282 q 285 395 321 361 q 207 462 249 429 q 129 533 165 494 q 69 622 93 572 q 44 739 44 671 q 97 917 44 851 q 260 982 150 982 q 424 916 371 982 q 476 739 476 850 l 476 713 l 374 713 l 374 744 q 347 847 374 811 q 263 883 321 883 q 178 847 204 883 q 151 746 151 811 q 176 651 151 692 q 236 577 200 611 q 315 510 272 543 q 393 439 357 478 q 453 351 429 400 q 478 233 478 301 q 429 63 478 128 q 279 -8 381 -1 l 279 -51 z "},"Ŝ":{"ha":517,"x_min":40,"x_max":478,"o":"m 188 1029 l 93 1029 l 214 1169 l 310 1169 l 429 1029 l 335 1029 l 261 1111 l 188 1029 m 260 982 q 424 916 371 982 q 476 739 476 850 l 476 713 l 374 713 l 374 744 q 347 847 374 811 q 263 883 321 883 q 178 847 204 883 q 151 746 151 811 q 176 651 151 692 q 236 577 200 611 q 315 510 272 543 q 393 439 357 478 q 453 351 429 400 q 478 233 478 301 q 424 56 478 122 q 258 -10 371 -10 q 93 56 146 -10 q 40 233 40 122 l 40 289 l 142 289 l 142 228 q 169 125 142 161 q 256 89 197 89 q 342 125 314 89 q 369 228 369 161 q 345 322 369 282 q 285 395 321 361 q 207 462 249 429 q 129 533 165 494 q 69 622 93 572 q 44 739 44 671 q 97 917 44 851 q 260 982 150 982 z "},"T":{"ha":504,"x_min":18,"x_max":485,"o":"m 197 0 l 197 874 l 18 874 l 18 972 l 485 972 l 485 874 l 306 874 l 306 0 l 197 0 z "},"Ŧ":{"ha":517,"x_min":25,"x_max":492,"o":"m 411 661 l 411 581 l 313 581 l 313 0 l 204 0 l 204 581 l 106 581 l 106 661 l 204 661 l 204 874 l 25 874 l 25 972 l 492 972 l 492 874 l 313 874 l 313 661 l 411 661 z "},"Ť":{"ha":517,"x_min":25,"x_max":492,"o":"m 185 1167 l 257 1083 l 332 1167 l 426 1167 l 306 1026 l 210 1026 l 90 1167 l 185 1167 m 204 0 l 204 874 l 25 874 l 25 972 l 492 972 l 492 874 l 313 874 l 313 0 l 204 0 z "},"U":{"ha":538,"x_min":51,"x_max":486,"o":"m 158 229 q 185 126 158 163 q 272 89 213 89 q 358 126 331 89 q 385 229 385 163 l 385 972 l 486 972 l 486 235 q 433 56 486 124 q 268 -11 381 -11 q 104 56 157 -11 q 51 235 51 124 l 51 972 l 158 972 l 158 229 z "},"Ú":{"ha":538,"x_min":51,"x_max":486,"o":"m 411 1174 l 282 1031 l 207 1031 l 304 1174 l 411 1174 m 486 235 q 433 56 486 124 q 268 -11 381 -11 q 104 56 157 -11 q 51 235 51 124 l 51 972 l 158 972 l 158 229 q 185 126 158 163 q 272 89 213 89 q 358 126 331 89 q 385 229 385 163 l 385 972 l 486 972 l 486 235 z "},"Ŭ":{"ha":538,"x_min":51,"x_max":486,"o":"m 415 1164 q 376 1060 414 1097 q 269 1022 338 1022 q 164 1060 201 1022 q 125 1164 126 1097 l 190 1164 q 215 1106 193 1122 q 269 1090 236 1090 q 325 1106 303 1090 q 350 1164 347 1122 l 415 1164 m 486 235 q 433 56 486 124 q 268 -11 381 -11 q 104 56 157 -11 q 51 235 51 124 l 51 972 l 158 972 l 158 229 q 185 126 158 163 q 272 89 213 89 q 358 126 331 89 q 385 229 385 163 l 385 972 l 486 972 l 486 235 z "},"Û":{"ha":538,"x_min":51,"x_max":486,"o":"m 197 1029 l 103 1029 l 222 1169 l 318 1169 l 439 1029 l 344 1029 l 269 1111 l 197 1029 m 486 235 q 433 56 486 124 q 268 -11 381 -11 q 104 56 157 -11 q 51 235 51 124 l 51 972 l 158 972 l 158 229 q 185 126 158 163 q 272 89 213 89 q 358 126 331 89 q 385 229 385 163 l 385 972 l 486 972 l 486 235 z "},"Ü":{"ha":538,"x_min":51,"x_max":486,"o":"m 232 1153 l 232 1028 l 136 1028 l 136 1153 l 232 1153 m 404 1153 l 404 1028 l 310 1028 l 310 1153 l 404 1153 m 486 235 q 433 56 486 124 q 268 -11 381 -11 q 104 56 157 -11 q 51 235 51 124 l 51 972 l 158 972 l 158 229 q 185 126 158 163 q 272 89 213 89 q 358 126 331 89 q 385 229 385 163 l 385 972 l 486 972 l 486 235 z "},"Ù":{"ha":538,"x_min":51,"x_max":486,"o":"m 240 1169 l 338 1026 l 257 1026 l 128 1169 l 240 1169 m 486 235 q 433 56 486 124 q 268 -11 381 -11 q 104 56 157 -11 q 51 235 51 124 l 51 972 l 158 972 l 158 229 q 185 126 158 163 q 272 89 213 89 q 358 126 331 89 q 385 229 385 163 l 385 972 l 486 972 l 486 235 z "},"Ű":{"ha":538,"x_min":51,"x_max":486,"o":"m 318 1172 l 207 1029 l 139 1029 l 218 1172 l 318 1172 m 468 1172 l 356 1029 l 289 1029 l 367 1172 l 468 1172 m 486 235 q 433 56 486 124 q 268 -11 381 -11 q 104 56 157 -11 q 51 235 51 124 l 51 972 l 158 972 l 158 229 q 185 126 158 163 q 272 89 213 89 q 358 126 331 89 q 385 229 385 163 l 385 972 l 486 972 l 486 235 z "},"Ū":{"ha":538,"x_min":51,"x_max":486,"o":"m 414 1119 l 414 1042 l 129 1042 l 129 1119 l 414 1119 m 486 235 q 433 56 486 124 q 268 -11 381 -11 q 104 56 157 -11 q 51 235 51 124 l 51 972 l 158 972 l 158 229 q 185 126 158 163 q 272 89 213 89 q 358 126 331 89 q 385 229 385 163 l 385 972 l 486 972 l 486 235 z "},"Ų":{"ha":538,"x_min":51,"x_max":486,"o":"m 486 235 q 482 167 486 200 q 466 105 478 135 q 434 50 454 75 q 382 7 414 25 q 340 -45 354 -15 q 328 -96 326 -75 q 344 -128 328 -118 q 379 -137 360 -137 q 411 -134 399 -137 q 435 -125 424 -131 l 435 -182 q 394 -195 414 -192 q 349 -199 375 -199 q 274 -180 303 -199 q 244 -121 244 -161 q 263 -59 243 -89 q 318 -6 283 -29 q 268 -11 297 -11 q 104 56 157 -11 q 51 235 51 124 l 51 972 l 158 972 l 158 229 q 185 126 158 163 q 272 89 213 89 q 358 126 331 89 q 385 229 385 163 l 385 972 l 486 972 l 486 235 z "},"Ů":{"ha":538,"x_min":51,"x_max":486,"o":"m 272 1224 q 345 1194 315 1224 q 375 1122 375 1165 q 345 1050 375 1079 q 272 1021 315 1021 q 200 1050 229 1021 q 171 1122 171 1079 q 200 1194 171 1165 q 272 1224 229 1224 m 272 1172 q 237 1158 251 1172 q 222 1122 222 1144 q 237 1086 222 1100 q 272 1072 251 1072 q 308 1086 293 1072 q 324 1122 324 1100 q 308 1158 324 1144 q 272 1172 293 1172 m 486 235 q 433 56 486 124 q 268 -11 381 -11 q 104 56 157 -11 q 51 235 51 124 l 51 972 l 158 972 l 158 229 q 185 126 158 163 q 272 89 213 89 q 358 126 331 89 q 385 229 385 163 l 385 972 l 486 972 l 486 235 z "},"Ũ":{"ha":538,"x_min":51,"x_max":486,"o":"m 440 1114 q 398 1053 424 1072 q 340 1035 372 1035 q 303 1041 319 1035 q 273 1055 288 1047 q 244 1069 258 1063 q 214 1075 231 1075 q 181 1066 194 1075 q 156 1033 167 1057 l 101 1071 q 144 1132 118 1114 q 203 1151 171 1150 q 240 1145 224 1151 q 272 1131 257 1139 q 301 1116 286 1122 q 331 1110 315 1110 q 362 1120 349 1111 q 386 1151 375 1129 l 440 1114 m 486 235 q 433 56 486 124 q 268 -11 381 -11 q 104 56 157 -11 q 51 235 51 124 l 51 972 l 158 972 l 158 229 q 185 126 158 163 q 272 89 213 89 q 358 126 331 89 q 385 229 385 163 l 385 972 l 486 972 l 486 235 z "},"V":{"ha":581,"x_min":28,"x_max":553,"o":"m 138 972 l 296 126 l 453 972 l 553 972 l 371 0 l 211 0 l 28 972 l 138 972 z "},"W":{"ha":810,"x_min":32,"x_max":778,"o":"m 314 0 l 165 0 l 32 972 l 138 972 l 251 144 l 360 971 l 467 971 l 574 143 l 683 972 l 778 972 l 646 0 l 503 0 l 410 660 l 314 0 z "},"Ẃ":{"ha":810,"x_min":32,"x_max":778,"o":"m 543 1169 l 414 1026 l 338 1026 l 435 1169 l 543 1169 m 314 0 l 165 0 l 32 972 l 138 972 l 251 144 l 360 971 l 467 971 l 574 143 l 683 972 l 778 972 l 646 0 l 503 0 l 410 660 l 314 0 z "},"Ŵ":{"ha":810,"x_min":32,"x_max":778,"o":"m 333 1028 l 239 1028 l 358 1168 l 454 1168 l 575 1028 l 481 1028 l 407 1110 l 333 1028 m 314 0 l 165 0 l 32 972 l 138 972 l 251 144 l 360 971 l 467 971 l 574 143 l 683 972 l 778 972 l 646 0 l 503 0 l 410 660 l 314 0 z "},"Ẅ":{"ha":810,"x_min":32,"x_max":778,"o":"m 368 1154 l 368 1029 l 274 1029 l 274 1154 l 368 1154 m 540 1154 l 540 1029 l 446 1029 l 446 1154 l 540 1154 m 314 0 l 165 0 l 32 972 l 138 972 l 251 144 l 360 971 l 467 971 l 574 143 l 683 972 l 778 972 l 646 0 l 503 0 l 410 660 l 314 0 z "},"Ẁ":{"ha":810,"x_min":32,"x_max":778,"o":"m 385 1174 l 481 1031 l 401 1031 l 272 1174 l 385 1174 m 314 0 l 165 0 l 32 972 l 138 972 l 251 144 l 360 971 l 467 971 l 574 143 l 683 972 l 778 972 l 646 0 l 503 0 l 410 660 l 314 0 z "},"X":{"ha":604,"x_min":32,"x_max":572,"o":"m 297 419 l 135 0 l 32 0 l 228 501 l 44 972 l 157 972 l 307 583 l 458 972 l 560 972 l 378 501 l 572 0 l 458 0 l 297 419 z "},"Y":{"ha":564,"x_min":22,"x_max":542,"o":"m 228 349 l 22 972 l 135 972 l 286 494 l 439 972 l 542 972 l 335 349 l 335 0 l 228 0 l 228 349 z "},"Ý":{"ha":564,"x_min":22,"x_max":542,"o":"m 426 1169 l 297 1026 l 222 1026 l 319 1169 l 426 1169 m 228 349 l 22 972 l 135 972 l 286 494 l 439 972 l 542 972 l 335 349 l 335 0 l 228 0 l 228 349 z "},"Ŷ":{"ha":564,"x_min":22,"x_max":542,"o":"m 213 1028 l 118 1028 l 238 1167 l 333 1167 l 454 1028 l 360 1028 l 286 1110 l 213 1028 m 228 349 l 22 972 l 135 972 l 286 494 l 439 972 l 542 972 l 335 349 l 335 0 l 228 0 l 228 349 z "},"Ÿ":{"ha":564,"x_min":22,"x_max":542,"o":"m 246 1151 l 246 1026 l 151 1026 l 151 1151 l 246 1151 m 418 1151 l 418 1026 l 324 1026 l 324 1151 l 418 1151 m 228 349 l 22 972 l 135 972 l 286 494 l 439 972 l 542 972 l 335 349 l 335 0 l 228 0 l 228 349 z "},"Ỳ":{"ha":564,"x_min":22,"x_max":542,"o":"m 258 1174 l 354 1031 l 275 1031 l 146 1174 l 258 1174 m 228 349 l 22 972 l 135 972 l 286 494 l 439 972 l 542 972 l 335 349 l 335 0 l 228 0 l 228 349 z "},"Z":{"ha":526,"x_min":40,"x_max":485,"o":"m 482 0 l 40 0 l 40 97 l 374 874 l 56 874 l 56 972 l 485 972 l 485 875 l 150 99 l 482 99 l 482 0 z "},"Ź":{"ha":526,"x_min":40,"x_max":485,"o":"m 413 1174 l 283 1031 l 208 1031 l 304 1174 l 413 1174 m 482 0 l 40 0 l 40 97 l 374 874 l 56 874 l 56 972 l 485 972 l 485 875 l 150 99 l 482 99 l 482 0 z "},"Ž":{"ha":526,"x_min":40,"x_max":485,"o":"m 196 1169 l 268 1086 l 343 1169 l 438 1169 l 317 1029 l 221 1029 l 101 1169 l 196 1169 m 482 0 l 40 0 l 40 97 l 374 874 l 56 874 l 56 972 l 485 972 l 485 875 l 150 99 l 482 99 l 482 0 z "},"Ż":{"ha":526,"x_min":40,"x_max":485,"o":"m 321 1156 l 321 1031 l 226 1031 l 226 1156 l 321 1156 m 482 0 l 40 0 l 40 97 l 374 874 l 56 874 l 56 972 l 485 972 l 485 875 l 150 99 l 482 99 l 482 0 z "},"Ģ":{"ha":532,"x_min":47,"x_max":485,"o":"m 265 982 q 431 915 378 982 q 485 738 485 849 l 485 654 l 382 654 l 382 743 q 355 847 382 810 q 268 883 328 883 q 182 847 210 883 q 154 743 154 810 l 154 229 q 182 126 154 163 q 268 89 210 89 q 355 126 328 89 q 382 229 382 163 l 382 424 l 282 424 l 282 521 l 485 521 l 485 235 q 431 57 485 124 q 265 -10 378 -10 q 101 57 154 -10 q 47 235 47 124 l 47 738 q 60 838 47 793 q 101 915 74 883 q 169 965 128 947 q 265 982 210 982 m 254 -168 l 219 -168 l 219 -46 l 311 -46 l 311 -158 l 263 -246 l 222 -246 l 254 -168 z "},"Ķ":{"ha":568,"x_min":56,"x_max":540,"o":"m 221 422 l 164 326 l 164 0 l 56 0 l 56 972 l 164 972 l 164 503 l 422 972 l 532 972 l 286 529 l 540 0 l 429 0 l 221 422 m 274 -168 l 239 -168 l 239 -46 l 331 -46 l 331 -158 l 282 -246 l 242 -246 l 274 -168 z "},"Ļ":{"ha":468,"x_min":56,"x_max":442,"o":"m 56 0 l 56 972 l 164 972 l 164 99 l 442 99 l 442 0 l 56 0 m 242 -169 l 207 -169 l 207 -49 l 299 -49 l 299 -161 l 250 -249 l 210 -249 l 242 -169 z "},"Ņ":{"ha":568,"x_min":54,"x_max":513,"o":"m 151 0 l 54 0 l 54 972 l 192 972 l 417 269 l 417 972 l 513 972 l 513 0 l 400 0 l 151 786 l 151 0 m 272 -168 l 238 -168 l 238 -46 l 328 -46 l 328 -158 l 279 -246 l 240 -246 l 272 -168 z "},"Ŗ":{"ha":547,"x_min":56,"x_max":510,"o":"m 272 972 q 438 915 388 972 q 489 750 489 858 l 489 671 q 460 540 489 590 q 368 471 431 490 q 463 399 435 451 q 490 268 490 347 l 490 117 q 493 55 490 85 q 510 0 496 25 l 400 0 q 386 45 390 21 q 382 118 382 69 l 382 271 q 345 384 382 353 q 240 415 308 415 l 164 415 l 164 0 l 56 0 l 56 972 l 272 972 m 244 514 q 346 541 310 514 q 382 647 382 568 l 382 740 q 356 840 382 807 q 269 874 331 874 l 164 874 l 164 514 l 244 514 m 261 -167 l 228 -167 l 228 -46 l 318 -46 l 318 -158 l 269 -246 l 229 -246 l 261 -167 z "},"Ţ":{"ha":517,"x_min":25,"x_max":492,"o":"m 283 0 l 283 -53 q 350 -72 324 -53 q 376 -131 376 -90 q 366 -178 376 -158 q 339 -211 356 -199 q 300 -228 322 -224 q 254 -233 278 -233 q 210 -228 232 -233 q 172 -211 189 -222 q 145 -183 156 -200 q 135 -142 135 -165 l 135 -131 l 200 -131 l 200 -142 q 217 -174 200 -165 q 253 -182 235 -182 q 292 -171 275 -182 q 310 -135 310 -160 q 291 -98 310 -107 q 244 -89 272 -89 l 232 -89 l 232 0 l 204 0 l 204 874 l 25 874 l 25 972 l 492 972 l 492 874 l 313 874 l 313 0 l 283 0 z "},"Ș":{"ha":517,"x_min":40,"x_max":478,"o":"m 260 982 q 424 916 371 982 q 476 739 476 850 l 476 713 l 374 713 l 374 744 q 347 847 374 811 q 263 883 321 883 q 178 847 204 883 q 151 746 151 811 q 176 651 151 692 q 236 577 200 611 q 315 510 272 543 q 393 439 357 478 q 453 351 429 400 q 478 233 478 301 q 424 56 478 122 q 258 -10 371 -10 q 93 56 146 -10 q 40 233 40 122 l 40 289 l 142 289 l 142 228 q 169 125 142 161 q 256 89 197 89 q 342 125 314 89 q 369 228 369 161 q 345 322 369 282 q 285 395 321 361 q 207 462 249 429 q 129 533 165 494 q 69 622 93 572 q 44 739 44 671 q 97 917 44 851 q 260 982 150 982 m 244 -168 l 210 -168 l 210 -46 l 301 -46 l 301 -158 l 253 -246 l 213 -246 l 244 -168 z "},"Ț":{"ha":517,"x_min":25,"x_max":492,"o":"m 204 0 l 204 874 l 25 874 l 25 972 l 492 972 l 492 874 l 313 874 l 313 0 l 204 0 m 247 -168 l 213 -168 l 213 -46 l 304 -46 l 304 -158 l 256 -246 l 215 -246 l 247 -168 z "},"Ḃ":{"ha":544,"x_min":56,"x_max":501,"o":"m 294 1153 l 294 1028 l 200 1028 l 200 1153 l 294 1153 m 274 972 q 436 919 388 972 q 485 757 485 865 l 485 711 q 460 585 485 633 q 371 518 435 538 q 472 444 442 499 q 501 310 501 390 l 501 228 q 447 59 501 118 q 279 0 393 0 l 56 0 l 56 972 l 274 972 m 247 560 q 345 586 313 560 q 378 689 378 613 l 378 746 q 353 842 378 811 q 271 874 329 874 l 164 874 l 164 560 l 247 560 m 279 99 q 394 231 394 99 l 394 317 q 362 430 394 399 q 258 461 329 461 l 164 461 l 164 99 l 279 99 z "},"Ḋ":{"ha":550,"x_min":56,"x_max":504,"o":"m 304 1153 l 304 1028 l 210 1028 l 210 1153 l 304 1153 m 283 972 q 451 908 397 972 q 504 731 504 843 l 504 240 q 451 64 504 128 q 283 0 397 0 l 56 0 l 56 972 l 283 972 m 282 99 q 369 134 340 99 q 397 236 397 169 l 397 736 q 369 838 397 803 q 281 874 340 874 l 164 874 l 164 99 l 282 99 z "},"Ḟ":{"ha":472,"x_min":56,"x_max":442,"o":"m 293 1151 l 293 1026 l 199 1026 l 199 1151 l 293 1151 m 388 519 l 388 421 l 164 421 l 164 0 l 56 0 l 56 972 l 442 972 l 442 874 l 164 874 l 164 519 l 388 519 z "},"Ṁ":{"ha":726,"x_min":54,"x_max":671,"o":"m 410 1156 l 410 1029 l 315 1029 l 315 1156 l 410 1156 m 414 1 l 310 1 l 149 775 l 149 0 l 54 0 l 54 972 l 206 972 l 365 196 l 519 972 l 671 972 l 671 0 l 568 0 l 568 782 l 414 1 z "},"Ṗ":{"ha":515,"x_min":56,"x_max":486,"o":"m 297 1153 l 297 1028 l 203 1028 l 203 1153 l 297 1153 m 268 972 q 435 909 383 972 q 486 735 486 846 l 486 618 q 431 442 486 501 q 260 383 376 383 l 164 383 l 164 0 l 56 0 l 56 972 l 268 972 m 260 481 q 350 510 321 481 q 379 611 379 540 l 379 740 q 353 840 379 807 q 268 874 328 874 l 164 874 l 164 481 l 260 481 z "},"Ṡ":{"ha":517,"x_min":40,"x_max":478,"o":"m 306 1153 l 306 1028 l 211 1028 l 211 1153 l 306 1153 m 260 982 q 424 916 371 982 q 476 739 476 850 l 476 713 l 374 713 l 374 744 q 347 847 374 811 q 263 883 321 883 q 178 847 204 883 q 151 746 151 811 q 176 651 151 692 q 236 577 200 611 q 315 510 272 543 q 393 439 357 478 q 453 351 429 400 q 478 233 478 301 q 424 56 478 122 q 258 -10 371 -10 q 93 56 146 -10 q 40 233 40 122 l 40 289 l 142 289 l 142 228 q 169 125 142 161 q 256 89 197 89 q 342 125 314 89 q 369 228 369 161 q 345 322 369 282 q 285 395 321 361 q 207 462 249 429 q 129 533 165 494 q 69 622 93 572 q 44 739 44 671 q 97 917 44 851 q 260 982 150 982 z "},"Ṫ":{"ha":517,"x_min":25,"x_max":492,"o":"m 306 1153 l 306 1028 l 211 1028 l 211 1153 l 306 1153 m 204 0 l 204 874 l 25 874 l 25 972 l 492 972 l 492 874 l 313 874 l 313 0 l 204 0 z "},"a":{"ha":586,"x_min":28,"x_max":557,"o":"m 165 196 l 128 0 l 28 0 l 214 972 l 371 972 l 557 0 l 449 0 l 411 196 l 165 196 m 179 289 l 396 289 l 286 850 l 179 289 z "},"á":{"ha":586,"x_min":28,"x_max":557,"o":"m 424 1167 l 296 1024 l 219 1024 l 317 1167 l 424 1167 m 165 196 l 128 0 l 28 0 l 214 972 l 371 972 l 557 0 l 449 0 l 411 196 l 165 196 m 179 289 l 396 289 l 286 850 l 179 289 z "},"ă":{"ha":586,"x_min":28,"x_max":557,"o":"m 436 1158 q 397 1056 436 1093 q 290 1018 358 1018 q 185 1056 222 1018 q 147 1158 149 1093 l 213 1158 q 237 1102 215 1118 q 290 1086 258 1086 q 346 1102 324 1086 q 371 1158 368 1118 l 436 1158 m 165 196 l 128 0 l 28 0 l 214 972 l 371 972 l 557 0 l 449 0 l 411 196 l 165 196 m 179 289 l 396 289 l 286 850 l 179 289 z "},"â":{"ha":586,"x_min":28,"x_max":557,"o":"m 218 1024 l 124 1024 l 243 1163 l 340 1163 l 460 1024 l 365 1024 l 292 1106 l 218 1024 m 165 196 l 128 0 l 28 0 l 214 972 l 371 972 l 557 0 l 449 0 l 411 196 l 165 196 m 179 289 l 396 289 l 286 850 l 179 289 z "},"ä":{"ha":586,"x_min":28,"x_max":557,"o":"m 253 1149 l 253 1024 l 158 1024 l 158 1149 l 253 1149 m 425 1149 l 425 1024 l 331 1024 l 331 1149 l 425 1149 m 165 196 l 128 0 l 28 0 l 214 972 l 371 972 l 557 0 l 449 0 l 411 196 l 165 196 m 179 289 l 396 289 l 286 850 l 179 289 z "},"à":{"ha":586,"x_min":28,"x_max":557,"o":"m 264 1167 l 361 1024 l 282 1024 l 153 1167 l 264 1167 m 165 196 l 128 0 l 28 0 l 214 972 l 371 972 l 557 0 l 449 0 l 411 196 l 165 196 m 179 289 l 396 289 l 286 850 l 179 289 z "},"ā":{"ha":586,"x_min":28,"x_max":557,"o":"m 439 1119 l 439 1042 l 144 1042 l 144 1119 l 439 1119 m 165 196 l 128 0 l 28 0 l 214 972 l 371 972 l 557 0 l 449 0 l 411 196 l 165 196 m 179 289 l 396 289 l 286 850 l 179 289 z "},"ą":{"ha":586,"x_min":28,"x_max":575,"o":"m 518 0 q 480 -49 493 -21 q 468 -96 467 -76 q 485 -128 469 -118 q 519 -137 500 -137 q 551 -134 539 -137 q 575 -125 564 -131 l 575 -182 q 535 -195 554 -192 q 489 -199 515 -199 q 415 -180 443 -199 q 385 -121 386 -161 q 401 -62 383 -92 q 451 -10 419 -33 l 411 196 l 165 196 l 128 0 l 28 0 l 214 972 l 371 972 l 557 0 l 518 0 m 179 289 l 396 289 l 286 850 l 179 289 z "},"å":{"ha":586,"x_min":28,"x_max":557,"o":"m 292 1226 q 364 1197 335 1226 q 393 1125 393 1168 q 364 1052 393 1081 q 292 1024 335 1024 q 218 1052 247 1024 q 189 1125 189 1081 q 218 1197 189 1168 q 292 1226 247 1226 m 292 1175 q 255 1160 269 1175 q 240 1125 240 1146 q 255 1089 240 1103 q 292 1075 269 1075 q 327 1089 313 1075 q 342 1125 342 1103 q 327 1160 342 1146 q 292 1175 313 1175 m 165 196 l 128 0 l 28 0 l 214 972 l 371 972 l 557 0 l 449 0 l 411 196 l 165 196 m 179 289 l 396 289 l 286 850 l 179 289 z "},"ã":{"ha":586,"x_min":28,"x_max":557,"o":"m 224 1147 q 262 1141 244 1147 q 294 1126 279 1135 q 322 1112 308 1118 q 351 1106 336 1106 q 383 1116 369 1107 q 407 1147 396 1125 l 461 1110 q 419 1050 444 1069 q 363 1031 394 1031 q 325 1037 342 1031 q 294 1051 308 1043 q 265 1065 279 1058 q 235 1071 251 1071 q 201 1062 215 1071 q 176 1029 188 1053 l 122 1067 q 165 1128 139 1110 q 224 1147 192 1146 m 165 196 l 128 0 l 28 0 l 214 972 l 371 972 l 557 0 l 449 0 l 411 196 l 165 196 m 179 289 l 396 289 l 286 850 l 179 289 z "},"æ":{"ha":813,"x_min":22,"x_max":768,"o":"m 717 542 l 717 444 l 493 444 l 493 99 l 768 99 l 768 0 l 386 0 l 386 197 l 188 197 l 125 0 l 22 0 l 325 972 l 768 972 l 768 874 l 493 874 l 493 542 l 717 542 m 213 292 l 386 292 l 386 836 l 213 292 z "},"ǽ":{"ha":813,"x_min":22,"x_max":768,"o":"m 569 1172 l 440 1029 l 365 1029 l 463 1172 l 569 1172 m 717 542 l 717 444 l 493 444 l 493 99 l 768 99 l 768 0 l 386 0 l 386 197 l 188 197 l 125 0 l 22 0 l 325 972 l 768 972 l 768 874 l 493 874 l 493 542 l 717 542 m 213 292 l 386 292 l 386 836 l 213 292 z "},"b":{"ha":544,"x_min":56,"x_max":501,"o":"m 274 972 q 436 919 388 972 q 485 757 485 865 l 485 711 q 460 585 485 633 q 371 518 435 538 q 472 444 442 499 q 501 310 501 390 l 501 228 q 447 59 501 118 q 279 0 393 0 l 56 0 l 56 972 l 274 972 m 247 560 q 345 586 313 560 q 378 689 378 613 l 378 746 q 353 842 378 811 q 271 874 329 874 l 164 874 l 164 560 l 247 560 m 279 99 q 394 231 394 99 l 394 317 q 362 430 394 399 q 258 461 329 461 l 164 461 l 164 99 l 279 99 z "},"c":{"ha":528,"x_min":47,"x_max":485,"o":"m 265 982 q 431 915 378 982 q 485 738 485 849 l 485 650 l 382 650 l 382 743 q 355 847 382 810 q 268 883 328 883 q 182 847 210 883 q 154 743 154 810 l 154 229 q 182 126 154 163 q 268 89 210 89 q 355 126 328 89 q 382 229 382 163 l 382 356 l 485 356 l 485 235 q 431 57 485 124 q 265 -10 378 -10 q 101 57 154 -10 q 47 235 47 124 l 47 738 q 60 838 47 793 q 101 915 74 883 q 169 965 128 947 q 265 982 210 982 z "},"ć":{"ha":528,"x_min":47,"x_max":485,"o":"m 407 1174 l 278 1031 l 201 1031 l 299 1174 l 407 1174 m 265 982 q 431 915 378 982 q 485 738 485 849 l 485 650 l 382 650 l 382 743 q 355 847 382 810 q 268 883 328 883 q 182 847 210 883 q 154 743 154 810 l 154 229 q 182 126 154 163 q 268 89 210 89 q 355 126 328 89 q 382 229 382 163 l 382 356 l 485 356 l 485 235 q 431 57 485 124 q 265 -10 378 -10 q 101 57 154 -10 q 47 235 47 124 l 47 738 q 60 838 47 793 q 101 915 74 883 q 169 965 128 947 q 265 982 210 982 z "},"č":{"ha":528,"x_min":47,"x_max":485,"o":"m 196 1168 l 268 1085 l 342 1168 l 438 1168 l 317 1029 l 221 1029 l 101 1168 l 196 1168 m 265 982 q 431 915 378 982 q 485 738 485 849 l 485 650 l 382 650 l 382 743 q 355 847 382 810 q 268 883 328 883 q 182 847 210 883 q 154 743 154 810 l 154 229 q 182 126 154 163 q 268 89 210 89 q 355 126 328 89 q 382 229 382 163 l 382 356 l 485 356 l 485 235 q 431 57 485 124 q 265 -10 378 -10 q 101 57 154 -10 q 47 235 47 124 l 47 738 q 60 838 47 793 q 101 915 74 883 q 169 965 128 947 q 265 982 210 982 z "},"ç":{"ha":528,"x_min":47,"x_max":485,"o":"m 265 982 q 431 915 378 982 q 485 738 485 849 l 485 650 l 382 650 l 382 743 q 355 847 382 810 q 268 883 328 883 q 182 847 210 883 q 154 743 154 810 l 154 229 q 182 126 154 163 q 268 89 210 89 q 355 126 328 89 q 382 229 382 163 l 382 356 l 485 356 l 485 235 q 437 65 485 131 q 289 -8 389 -1 l 289 -51 q 365 -70 338 -51 q 392 -122 392 -89 q 357 -187 392 -164 q 260 -211 322 -211 q 165 -188 199 -211 q 132 -125 132 -165 l 132 -114 l 203 -114 l 203 -124 q 260 -164 203 -160 q 319 -119 319 -164 q 251 -78 319 -78 l 239 -78 l 239 -8 q 94 65 140 -1 q 47 235 47 132 l 47 738 q 60 838 47 793 q 101 915 74 883 q 169 965 128 947 q 265 982 210 982 z "},"ĉ":{"ha":528,"x_min":47,"x_max":485,"o":"m 194 1028 l 100 1028 l 219 1168 l 315 1168 l 436 1028 l 342 1028 l 268 1110 l 194 1028 m 265 982 q 431 915 378 982 q 485 738 485 849 l 485 650 l 382 650 l 382 743 q 355 847 382 810 q 268 883 328 883 q 182 847 210 883 q 154 743 154 810 l 154 229 q 182 126 154 163 q 268 89 210 89 q 355 126 328 89 q 382 229 382 163 l 382 356 l 485 356 l 485 235 q 431 57 485 124 q 265 -10 378 -10 q 101 57 154 -10 q 47 235 47 124 l 47 738 q 60 838 47 793 q 101 915 74 883 q 169 965 128 947 q 265 982 210 982 z "},"ċ":{"ha":528,"x_min":47,"x_max":485,"o":"m 313 1150 l 313 1025 l 218 1025 l 218 1150 l 313 1150 m 265 982 q 431 915 378 982 q 485 738 485 849 l 485 650 l 382 650 l 382 743 q 355 847 382 810 q 268 883 328 883 q 182 847 210 883 q 154 743 154 810 l 154 229 q 182 126 154 163 q 268 89 210 89 q 355 126 328 89 q 382 229 382 163 l 382 356 l 485 356 l 485 235 q 431 57 485 124 q 265 -10 378 -10 q 101 57 154 -10 q 47 235 47 124 l 47 738 q 60 838 47 793 q 101 915 74 883 q 169 965 128 947 q 265 982 210 982 z "},"d":{"ha":550,"x_min":56,"x_max":504,"o":"m 283 972 q 451 908 397 972 q 504 731 504 843 l 504 240 q 451 64 504 128 q 283 0 397 0 l 56 0 l 56 972 l 283 972 m 282 99 q 369 134 340 99 q 397 236 397 169 l 397 736 q 369 838 397 803 q 281 874 340 874 l 164 874 l 164 99 l 282 99 z "},"ð":{"ha":550,"x_min":1,"x_max":504,"o":"m 283 972 q 451 908 397 972 q 504 731 504 843 l 504 240 q 451 64 504 128 q 283 0 397 0 l 56 0 l 56 442 l 1 442 l 1 529 l 56 529 l 56 972 l 283 972 m 274 442 l 164 442 l 164 99 l 282 99 q 369 134 340 99 q 397 236 397 169 l 397 736 q 369 838 397 803 q 281 874 340 874 l 164 874 l 164 529 l 274 529 l 274 442 z "},"ď":{"ha":550,"x_min":56,"x_max":504,"o":"m 188 1165 l 261 1082 l 335 1165 l 431 1165 l 310 1026 l 214 1026 l 93 1165 l 188 1165 m 283 972 q 451 908 397 972 q 504 731 504 843 l 504 240 q 451 64 504 128 q 283 0 397 0 l 56 0 l 56 972 l 283 972 m 282 99 q 369 134 340 99 q 397 236 397 169 l 397 736 q 369 838 397 803 q 281 874 340 874 l 164 874 l 164 99 l 282 99 z "},"đ":{"ha":550,"x_min":1,"x_max":504,"o":"m 283 972 q 451 908 397 972 q 504 731 504 843 l 504 240 q 451 64 504 128 q 283 0 397 0 l 56 0 l 56 442 l 1 442 l 1 529 l 56 529 l 56 972 l 283 972 m 274 442 l 164 442 l 164 99 l 282 99 q 369 134 340 99 q 397 236 397 169 l 397 736 q 369 838 397 803 q 281 874 340 874 l 164 874 l 164 529 l 274 529 l 274 442 z "},"e":{"ha":500,"x_min":56,"x_max":456,"o":"m 401 542 l 401 444 l 164 444 l 164 99 l 456 99 l 456 0 l 56 0 l 56 972 l 456 972 l 456 874 l 164 874 l 164 542 l 401 542 z "},"é":{"ha":500,"x_min":56,"x_max":456,"o":"m 393 1169 l 264 1026 l 189 1026 l 286 1169 l 393 1169 m 401 542 l 401 444 l 164 444 l 164 99 l 456 99 l 456 0 l 56 0 l 56 972 l 456 972 l 456 874 l 164 874 l 164 542 l 401 542 z "},"ĕ":{"ha":500,"x_min":56,"x_max":456,"o":"m 399 1167 q 359 1063 397 1100 q 251 1026 321 1026 q 147 1063 185 1026 q 108 1167 110 1100 l 174 1167 q 198 1110 176 1126 q 251 1094 219 1094 q 308 1110 286 1094 q 333 1167 331 1126 l 399 1167 m 401 542 l 401 444 l 164 444 l 164 99 l 456 99 l 456 0 l 56 0 l 56 972 l 456 972 l 456 874 l 164 874 l 164 542 l 401 542 z "},"ě":{"ha":500,"x_min":56,"x_max":456,"o":"m 182 1165 l 254 1082 l 329 1165 l 424 1165 l 303 1026 l 207 1026 l 88 1165 l 182 1165 m 401 542 l 401 444 l 164 444 l 164 99 l 456 99 l 456 0 l 56 0 l 56 972 l 456 972 l 456 874 l 164 874 l 164 542 l 401 542 z "},"ê":{"ha":500,"x_min":56,"x_max":456,"o":"m 181 1026 l 86 1026 l 206 1167 l 301 1167 l 422 1026 l 328 1026 l 253 1110 l 181 1026 m 401 542 l 401 444 l 164 444 l 164 99 l 456 99 l 456 0 l 56 0 l 56 972 l 456 972 l 456 874 l 164 874 l 164 542 l 401 542 z "},"ë":{"ha":500,"x_min":56,"x_max":456,"o":"m 215 1151 l 215 1026 l 121 1026 l 121 1151 l 215 1151 m 388 1151 l 388 1026 l 293 1026 l 293 1151 l 388 1151 m 401 542 l 401 444 l 164 444 l 164 99 l 456 99 l 456 0 l 56 0 l 56 972 l 456 972 l 456 874 l 164 874 l 164 542 l 401 542 z "},"ė":{"ha":500,"x_min":56,"x_max":456,"o":"m 303 1153 l 303 1028 l 208 1028 l 208 1153 l 303 1153 m 401 542 l 401 444 l 164 444 l 164 99 l 456 99 l 456 0 l 56 0 l 56 972 l 456 972 l 456 874 l 164 874 l 164 542 l 401 542 z "},"è":{"ha":500,"x_min":56,"x_max":456,"o":"m 232 1174 l 328 1031 l 249 1031 l 119 1174 l 232 1174 m 401 542 l 401 444 l 164 444 l 164 99 l 456 99 l 456 0 l 56 0 l 56 972 l 456 972 l 456 874 l 164 874 l 164 542 l 401 542 z "},"ē":{"ha":500,"x_min":56,"x_max":456,"o":"m 397 1121 l 397 1044 l 107 1044 l 107 1121 l 397 1121 m 401 542 l 401 444 l 164 444 l 164 99 l 456 99 l 456 0 l 56 0 l 56 972 l 456 972 l 456 874 l 164 874 l 164 542 l 401 542 z "},"ę":{"ha":500,"x_min":56,"x_max":465,"o":"m 401 542 l 401 444 l 164 444 l 164 99 l 456 99 l 456 0 l 410 0 q 371 -49 383 -21 q 358 -96 358 -76 q 375 -128 360 -118 q 411 -137 390 -137 q 442 -134 431 -137 q 465 -125 454 -131 l 465 -182 q 425 -195 444 -192 q 381 -199 406 -199 q 305 -180 333 -199 q 275 -121 276 -161 q 298 -56 275 -87 q 360 0 321 -24 l 56 0 l 56 972 l 456 972 l 456 874 l 164 874 l 164 542 l 401 542 z "},"f":{"ha":472,"x_min":56,"x_max":442,"o":"m 388 519 l 388 421 l 164 421 l 164 0 l 56 0 l 56 972 l 442 972 l 442 874 l 164 874 l 164 519 l 388 519 z "},"g":{"ha":532,"x_min":47,"x_max":485,"o":"m 265 982 q 431 915 378 982 q 485 738 485 849 l 485 654 l 382 654 l 382 743 q 355 847 382 810 q 268 883 328 883 q 182 847 210 883 q 154 743 154 810 l 154 229 q 182 126 154 163 q 268 89 210 89 q 355 126 328 89 q 382 229 382 163 l 382 424 l 282 424 l 282 521 l 485 521 l 485 235 q 431 57 485 124 q 265 -10 378 -10 q 101 57 154 -10 q 47 235 47 124 l 47 738 q 60 838 47 793 q 101 915 74 883 q 169 965 128 947 q 265 982 210 982 z "},"ğ":{"ha":532,"x_min":47,"x_max":485,"o":"m 411 1168 q 372 1065 410 1101 q 265 1028 333 1028 q 160 1065 197 1028 q 121 1168 122 1101 l 186 1168 q 210 1112 189 1128 q 265 1096 232 1096 q 321 1112 299 1096 q 346 1168 343 1128 l 411 1168 m 265 982 q 431 915 378 982 q 485 738 485 849 l 485 654 l 382 654 l 382 743 q 355 847 382 810 q 268 883 328 883 q 182 847 210 883 q 154 743 154 810 l 154 229 q 182 126 154 163 q 268 89 210 89 q 355 126 328 89 q 382 229 382 163 l 382 424 l 282 424 l 282 521 l 485 521 l 485 235 q 431 57 485 124 q 265 -10 378 -10 q 101 57 154 -10 q 47 235 47 124 l 47 738 q 60 838 47 793 q 101 915 74 883 q 169 965 128 947 q 265 982 210 982 z "},"ĝ":{"ha":532,"x_min":47,"x_max":485,"o":"m 193 1031 l 99 1031 l 218 1169 l 314 1169 l 435 1031 l 340 1031 l 265 1113 l 193 1031 m 265 982 q 431 915 378 982 q 485 738 485 849 l 485 654 l 382 654 l 382 743 q 355 847 382 810 q 268 883 328 883 q 182 847 210 883 q 154 743 154 810 l 154 229 q 182 126 154 163 q 268 89 210 89 q 355 126 328 89 q 382 229 382 163 l 382 424 l 282 424 l 282 521 l 485 521 l 485 235 q 431 57 485 124 q 265 -10 378 -10 q 101 57 154 -10 q 47 235 47 124 l 47 738 q 60 838 47 793 q 101 915 74 883 q 169 965 128 947 q 265 982 210 982 z "},"ġ":{"ha":532,"x_min":47,"x_max":485,"o":"m 317 1153 l 317 1028 l 222 1028 l 222 1153 l 317 1153 m 265 982 q 431 915 378 982 q 485 738 485 849 l 485 654 l 382 654 l 382 743 q 355 847 382 810 q 268 883 328 883 q 182 847 210 883 q 154 743 154 810 l 154 229 q 182 126 154 163 q 268 89 210 89 q 355 126 328 89 q 382 229 382 163 l 382 424 l 282 424 l 282 521 l 485 521 l 485 235 q 431 57 485 124 q 265 -10 378 -10 q 101 57 154 -10 q 47 235 47 124 l 47 738 q 60 838 47 793 q 101 915 74 883 q 169 965 128 947 q 265 982 210 982 z "},"h":{"ha":567,"x_min":56,"x_max":511,"o":"m 164 438 l 164 0 l 56 0 l 56 972 l 164 972 l 164 535 l 403 535 l 403 972 l 511 972 l 511 0 l 403 0 l 403 438 l 164 438 z "},"ħ":{"ha":576,"x_min":10,"x_max":567,"o":"m 517 714 l 517 0 l 407 0 l 407 438 l 168 438 l 168 0 l 60 0 l 60 714 l 10 714 l 10 794 l 60 794 l 60 972 l 168 972 l 168 794 l 407 794 l 407 972 l 517 972 l 517 794 l 567 794 l 567 714 l 517 714 m 407 714 l 168 714 l 168 535 l 407 535 l 407 714 z "},"ĥ":{"ha":567,"x_min":56,"x_max":511,"o":"m 210 1029 l 115 1029 l 236 1169 l 332 1169 l 451 1029 l 357 1029 l 283 1111 l 210 1029 m 164 438 l 164 0 l 56 0 l 56 972 l 164 972 l 164 535 l 403 535 l 403 972 l 511 972 l 511 0 l 403 0 l 403 438 l 164 438 z "},"i":{"ha":219,"x_min":56,"x_max":164,"o":"m 164 972 l 164 0 l 56 0 l 56 972 l 164 972 z "},"ı":{"ha":219,"x_min":56,"x_max":164,"o":"m 164 972 l 164 0 l 56 0 l 56 972 l 164 972 z "},"í":{"ha":219,"x_min":43,"x_max":247,"o":"m 139 1169 l 247 1169 l 118 1026 l 43 1026 l 139 1169 m 56 972 l 164 972 l 164 0 l 56 0 l 56 972 z "},"ĭ":{"ha":219,"x_min":-35,"x_max":254,"o":"m 254 1164 q 215 1060 254 1097 q 108 1022 176 1022 q 3 1060 40 1022 q -35 1164 -33 1097 l 31 1164 q 55 1106 33 1122 q 108 1090 76 1090 q 164 1106 142 1090 q 189 1164 186 1122 l 254 1164 m 56 972 l 164 972 l 164 0 l 56 0 l 56 972 z "},"î":{"ha":219,"x_min":-58,"x_max":278,"o":"m 157 1165 l 278 1026 l 183 1026 l 110 1108 l 36 1026 l -58 1026 l 61 1165 l 157 1165 m 56 972 l 164 972 l 164 0 l 56 0 l 56 972 z "},"ï":{"ha":219,"x_min":-24,"x_max":243,"o":"m 71 1151 l 71 1026 l -24 1026 l -24 1151 l 71 1151 m 243 1151 l 243 1026 l 149 1026 l 149 1151 l 243 1151 m 164 972 l 164 0 l 56 0 l 56 972 l 164 972 z "},"ì":{"ha":219,"x_min":-35,"x_max":175,"o":"m -35 1169 l 78 1169 l 175 1026 l 94 1026 l -35 1169 m 56 972 l 164 972 l 164 0 l 56 0 l 56 972 z "},"ĳ":{"ha":572,"x_min":56,"x_max":522,"o":"m 164 972 l 164 0 l 56 0 l 56 972 l 164 972 m 522 240 q 506 125 522 171 q 462 51 490 79 q 395 12 433 24 q 313 -1 357 0 q 278 -1 293 -1 q 246 0 264 -1 l 246 99 q 273 97 260 97 q 299 97 286 97 q 384 130 354 100 q 414 233 414 160 l 414 972 l 522 972 l 522 240 z "},"ī":{"ha":219,"x_min":-29,"x_max":247,"o":"m 247 1119 l 247 1042 l -29 1042 l -29 1119 l 247 1119 m 164 972 l 164 0 l 56 0 l 56 972 l 164 972 z "},"į":{"ha":219,"x_min":10,"x_max":201,"o":"m 144 0 q 106 -49 118 -21 q 94 -96 93 -76 q 110 -128 94 -118 q 146 -137 125 -137 q 177 -134 165 -137 q 201 -125 189 -131 l 201 -182 q 160 -195 181 -192 q 115 -199 140 -199 q 40 -180 69 -199 q 11 -121 11 -161 q 32 -57 10 -89 q 96 0 54 -25 l 56 0 l 56 972 l 164 972 l 164 0 l 144 0 z "},"ĩ":{"ha":219,"x_min":-60,"x_max":279,"o":"m 279 1114 q 181 1033 249 1033 q 144 1040 160 1033 q 113 1053 128 1046 q 83 1067 97 1061 q 53 1074 69 1074 q 19 1065 33 1074 q -6 1033 6 1057 l -60 1069 q -15 1131 -42 1113 q 43 1150 11 1150 q 81 1144 64 1150 q 112 1130 97 1138 q 141 1116 126 1122 q 171 1110 156 1110 q 202 1119 189 1110 q 226 1150 215 1128 l 279 1114 m 164 972 l 164 0 l 56 0 l 56 972 l 164 972 z "},"j":{"ha":354,"x_min":28,"x_max":303,"o":"m 28 99 q 56 97 42 97 q 82 97 69 97 q 165 130 135 100 q 196 233 196 160 l 196 972 l 303 972 l 303 240 q 287 126 303 172 q 243 52 271 81 q 177 12 215 24 q 96 -1 139 0 q 61 -2 76 -1 q 28 0 46 -3 l 28 99 z "},"ȷ":{"ha":354,"x_min":28,"x_max":303,"o":"m 28 99 q 56 97 42 97 q 82 97 69 97 q 165 130 135 100 q 196 233 196 160 l 196 972 l 303 972 l 303 240 q 287 126 303 172 q 243 52 271 81 q 177 12 215 24 q 96 -1 139 0 q 61 -2 76 -1 q 28 0 46 -3 l 28 99 z "},"ĵ":{"ha":354,"x_min":28,"x_max":400,"o":"m 158 1026 l 64 1026 l 183 1167 l 279 1167 l 400 1026 l 306 1026 l 232 1110 l 158 1026 m 303 240 q 287 126 303 172 q 243 52 271 81 q 177 12 215 24 q 96 -1 139 0 q 61 -2 76 -1 q 28 0 46 -3 l 28 99 q 56 97 42 97 q 82 97 69 97 q 165 130 135 100 q 196 233 196 160 l 196 972 l 303 972 l 303 240 z "},"k":{"ha":568,"x_min":56,"x_max":540,"o":"m 221 422 l 164 326 l 164 0 l 56 0 l 56 972 l 164 972 l 164 503 l 422 972 l 532 972 l 286 529 l 540 0 l 429 0 l 221 422 z "},"ĸ":{"ha":568,"x_min":56,"x_max":540,"o":"m 221 422 l 164 326 l 164 0 l 56 0 l 56 972 l 164 972 l 164 503 l 422 972 l 532 972 l 286 529 l 540 0 l 429 0 l 221 422 z "},"l":{"ha":468,"x_min":56,"x_max":442,"o":"m 56 0 l 56 972 l 164 972 l 164 99 l 442 99 l 442 0 l 56 0 z "},"ĺ":{"ha":468,"x_min":56,"x_max":442,"o":"m 282 1169 l 153 1026 l 78 1026 l 174 1169 l 282 1169 m 56 0 l 56 972 l 164 972 l 164 99 l 442 99 l 442 0 l 56 0 z "},"ľ":{"ha":468,"x_min":56,"x_max":442,"o":"m 56 0 l 56 972 l 164 972 l 164 99 l 442 99 l 442 0 l 56 0 m 336 838 l 296 838 l 296 972 l 400 972 l 400 849 l 347 715 l 301 715 l 336 838 z "},"ŀ":{"ha":468,"x_min":56,"x_max":442,"o":"m 56 0 l 56 972 l 164 972 l 164 99 l 442 99 l 442 0 l 56 0 m 378 556 l 378 421 l 274 421 l 274 556 l 378 556 z "},"ł":{"ha":483,"x_min":0,"x_max":457,"o":"m 178 404 l 178 99 l 457 99 l 457 0 l 71 0 l 71 289 l 0 219 l 0 319 l 71 389 l 71 972 l 178 972 l 178 504 l 329 661 l 329 561 l 178 404 z "},"m":{"ha":726,"x_min":54,"x_max":671,"o":"m 414 1 l 310 1 l 149 775 l 149 0 l 54 0 l 54 972 l 206 972 l 365 196 l 519 972 l 671 972 l 671 0 l 568 0 l 568 782 l 414 1 z "},"n":{"ha":568,"x_min":54,"x_max":513,"o":"m 151 0 l 54 0 l 54 972 l 192 972 l 417 269 l 417 972 l 513 972 l 513 0 l 400 0 l 151 786 l 151 0 z "},"ń":{"ha":568,"x_min":54,"x_max":513,"o":"m 425 1169 l 296 1028 l 221 1028 l 318 1169 l 425 1169 m 151 0 l 54 0 l 54 972 l 192 972 l 417 269 l 417 972 l 513 972 l 513 0 l 400 0 l 151 788 l 151 0 z "},"ŉ":{"ha":699,"x_min":15,"x_max":644,"o":"m 56 838 l 15 838 l 15 972 l 119 972 l 119 849 l 67 715 l 21 715 l 56 838 m 283 0 l 186 0 l 186 972 l 324 972 l 549 269 l 549 972 l 644 972 l 644 0 l 532 0 l 283 786 l 283 0 z "},"ň":{"ha":568,"x_min":54,"x_max":513,"o":"m 211 1169 l 285 1086 l 358 1169 l 453 1169 l 333 1029 l 238 1029 l 117 1169 l 211 1169 m 151 0 l 54 0 l 54 972 l 192 972 l 417 269 l 417 972 l 513 972 l 513 0 l 400 0 l 151 786 l 151 0 z "},"ñ":{"ha":568,"x_min":54,"x_max":513,"o":"m 454 1117 q 413 1056 438 1075 q 356 1036 388 1036 q 318 1042 335 1036 q 287 1056 301 1049 q 258 1070 272 1064 q 228 1076 244 1076 q 194 1068 208 1076 q 169 1036 181 1060 l 115 1072 q 158 1134 132 1115 q 218 1153 185 1153 q 256 1147 239 1153 q 287 1133 272 1140 q 315 1119 301 1125 q 344 1113 329 1113 q 400 1153 381 1113 l 454 1117 m 151 0 l 54 0 l 54 972 l 192 972 l 417 269 l 417 972 l 513 972 l 513 0 l 400 0 l 151 786 l 151 0 z "},"o":{"ha":540,"x_min":47,"x_max":493,"o":"m 47 738 q 102 916 47 850 q 269 982 157 982 q 438 916 382 982 q 493 738 493 850 l 493 235 q 438 57 493 124 q 269 -10 382 -10 q 102 57 157 -10 q 47 235 47 124 l 47 738 m 154 229 q 183 126 154 163 q 269 89 211 89 q 357 126 329 89 q 385 229 385 163 l 385 743 q 357 847 385 810 q 269 883 329 883 q 183 847 211 883 q 154 743 154 810 l 154 229 z "},"ó":{"ha":540,"x_min":47,"x_max":493,"o":"m 407 1174 l 278 1031 l 203 1031 l 300 1174 l 407 1174 m 269 982 q 438 916 382 982 q 493 738 493 850 l 493 235 q 438 57 493 124 q 269 -10 382 -10 q 102 57 157 -10 q 47 235 47 124 l 47 738 q 102 916 47 850 q 269 982 157 982 m 269 883 q 183 847 211 883 q 154 743 154 810 l 154 229 q 183 126 154 163 q 269 89 211 89 q 357 126 329 89 q 385 229 385 163 l 385 743 q 357 847 385 810 q 269 883 329 883 z "},"ŏ":{"ha":540,"x_min":47,"x_max":493,"o":"m 415 1168 q 376 1065 414 1101 q 268 1028 338 1028 q 164 1065 201 1028 q 125 1168 126 1101 l 190 1168 q 215 1112 193 1128 q 268 1096 236 1096 q 325 1112 303 1096 q 350 1168 347 1128 l 415 1168 m 269 982 q 438 916 382 982 q 493 738 493 850 l 493 235 q 438 57 493 124 q 269 -10 382 -10 q 102 57 157 -10 q 47 235 47 124 l 47 738 q 102 916 47 850 q 269 982 157 982 m 269 883 q 183 847 211 883 q 154 743 154 810 l 154 229 q 183 126 154 163 q 269 89 211 89 q 357 126 329 89 q 385 229 385 163 l 385 743 q 357 847 385 810 q 269 883 329 883 z "},"ô":{"ha":540,"x_min":47,"x_max":493,"o":"m 196 1029 l 101 1029 l 221 1169 l 317 1169 l 438 1029 l 343 1029 l 268 1111 l 196 1029 m 269 982 q 438 916 382 982 q 493 738 493 850 l 493 235 q 438 57 493 124 q 269 -10 382 -10 q 102 57 157 -10 q 47 235 47 124 l 47 738 q 102 916 47 850 q 269 982 157 982 m 269 883 q 183 847 211 883 q 154 743 154 810 l 154 229 q 183 126 154 163 q 269 89 211 89 q 357 126 329 89 q 385 229 385 163 l 385 743 q 357 847 385 810 q 269 883 329 883 z "},"ö":{"ha":540,"x_min":47,"x_max":493,"o":"m 231 1154 l 231 1029 l 136 1029 l 136 1154 l 231 1154 m 403 1154 l 403 1029 l 308 1029 l 308 1154 l 403 1154 m 269 982 q 438 916 382 982 q 493 738 493 850 l 493 235 q 438 57 493 124 q 269 -10 382 -10 q 102 57 157 -10 q 47 235 47 124 l 47 738 q 102 916 47 850 q 269 982 157 982 m 269 883 q 183 847 211 883 q 154 743 154 810 l 154 229 q 183 126 154 163 q 269 89 211 89 q 357 126 329 89 q 385 229 385 163 l 385 743 q 357 847 385 810 q 269 883 329 883 z "},"ò":{"ha":540,"x_min":47,"x_max":493,"o":"m 242 1174 l 338 1031 l 258 1031 l 129 1174 l 242 1174 m 269 982 q 438 916 382 982 q 493 738 493 850 l 493 235 q 438 57 493 124 q 269 -10 382 -10 q 102 57 157 -10 q 47 235 47 124 l 47 738 q 102 916 47 850 q 269 982 157 982 m 269 883 q 183 847 211 883 q 154 743 154 810 l 154 229 q 183 126 154 163 q 269 89 211 89 q 357 126 329 89 q 385 229 385 163 l 385 743 q 357 847 385 810 q 269 883 329 883 z "},"ő":{"ha":540,"x_min":47,"x_max":493,"o":"m 319 1174 l 208 1031 l 140 1031 l 219 1174 l 319 1174 m 469 1174 l 357 1031 l 289 1031 l 368 1174 l 469 1174 m 269 982 q 438 916 382 982 q 493 738 493 850 l 493 235 q 438 57 493 124 q 269 -10 382 -10 q 102 57 157 -10 q 47 235 47 124 l 47 738 q 102 916 47 850 q 269 982 157 982 m 269 883 q 183 847 211 883 q 154 743 154 810 l 154 229 q 183 126 154 163 q 269 89 211 89 q 357 126 329 89 q 385 229 385 163 l 385 743 q 357 847 385 810 q 269 883 329 883 z "},"ō":{"ha":540,"x_min":47,"x_max":493,"o":"m 415 1119 l 415 1043 l 126 1043 l 126 1119 l 415 1119 m 269 982 q 438 916 382 982 q 493 738 493 850 l 493 235 q 438 57 493 124 q 269 -10 382 -10 q 102 57 157 -10 q 47 235 47 124 l 47 738 q 102 916 47 850 q 269 982 157 982 m 269 883 q 183 847 211 883 q 154 743 154 810 l 154 229 q 183 126 154 163 q 269 89 211 89 q 357 126 329 89 q 385 229 385 163 l 385 743 q 357 847 385 810 q 269 883 329 883 z "},"ø":{"ha":540,"x_min":47,"x_max":493,"o":"m 451 897 q 493 738 493 835 l 493 235 q 438 57 493 124 q 269 -10 382 -10 q 128 33 182 -10 l 101 -36 l 54 -18 l 89 75 q 47 235 47 138 l 47 738 q 102 916 47 850 q 269 982 157 982 q 413 939 357 982 l 438 1007 l 486 989 l 451 897 m 369 825 q 269 883 342 883 q 183 847 211 883 q 154 743 154 810 l 154 250 l 369 825 m 269 89 q 357 126 329 89 q 385 229 385 163 l 385 719 l 169 146 q 269 89 197 89 z "},"ǿ":{"ha":540,"x_min":47,"x_max":493,"o":"m 304 1174 l 413 1174 l 283 1031 l 207 1031 l 304 1174 m 451 897 q 493 738 493 835 l 493 235 q 438 57 493 124 q 269 -10 382 -10 q 128 33 182 -10 l 101 -36 l 54 -18 l 89 75 q 47 235 47 138 l 47 738 q 102 916 47 850 q 269 982 157 982 q 413 939 357 982 l 438 1007 l 486 989 l 451 897 m 369 825 q 269 883 342 883 q 183 847 211 883 q 154 743 154 810 l 154 250 l 369 825 m 269 89 q 357 126 329 89 q 385 229 385 163 l 385 719 l 169 146 q 269 89 197 89 z "},"õ":{"ha":540,"x_min":47,"x_max":493,"o":"m 442 1114 q 401 1053 426 1072 q 343 1035 375 1035 q 306 1041 322 1035 q 275 1055 290 1047 q 246 1069 260 1063 q 215 1075 232 1075 q 182 1066 196 1075 q 157 1033 168 1057 l 103 1071 q 147 1132 121 1114 q 206 1151 174 1150 q 243 1145 226 1151 q 274 1131 260 1139 q 303 1116 289 1122 q 333 1110 318 1110 q 365 1120 351 1111 q 389 1151 378 1129 l 442 1114 m 269 982 q 438 916 382 982 q 493 738 493 850 l 493 235 q 438 57 493 124 q 269 -10 382 -10 q 102 57 157 -10 q 47 235 47 124 l 47 738 q 102 916 47 850 q 269 982 157 982 m 269 883 q 183 847 211 883 q 154 743 154 810 l 154 229 q 183 126 154 163 q 269 89 211 89 q 357 126 329 89 q 385 229 385 163 l 385 743 q 357 847 385 810 q 269 883 329 883 z "},"œ":{"ha":801,"x_min":46,"x_max":757,"o":"m 706 542 l 706 444 l 482 444 l 482 99 l 757 99 l 757 0 l 261 0 q 97 66 149 0 q 46 242 46 132 l 46 731 q 97 906 46 840 q 261 972 149 972 l 757 972 l 757 874 l 482 874 l 482 542 l 706 542 m 263 874 q 179 836 204 874 q 154 736 154 799 l 154 236 q 179 136 154 174 q 263 99 204 99 l 375 99 l 375 874 l 263 874 z "},"p":{"ha":515,"x_min":56,"x_max":486,"o":"m 268 972 q 435 909 383 972 q 486 735 486 846 l 486 618 q 431 442 486 501 q 260 383 376 383 l 164 383 l 164 0 l 56 0 l 56 972 l 268 972 m 260 481 q 350 510 321 481 q 379 611 379 540 l 379 740 q 353 840 379 807 q 268 874 328 874 l 164 874 l 164 481 l 260 481 z "},"þ":{"ha":524,"x_min":56,"x_max":486,"o":"m 268 832 q 435 769 383 832 q 486 593 486 706 l 486 478 q 431 301 486 360 q 260 242 376 242 l 164 242 l 164 0 l 56 0 l 56 972 l 164 972 l 164 832 l 268 832 m 260 340 q 350 370 321 340 q 379 471 379 400 l 379 600 q 353 700 379 667 q 268 733 328 733 l 164 733 l 164 340 l 260 340 z "},"q":{"ha":544,"x_min":47,"x_max":529,"o":"m 269 982 q 438 916 382 982 q 493 738 493 850 l 493 235 q 456 83 493 142 q 478 59 464 65 q 515 53 492 53 l 529 53 l 529 -43 l 511 -43 q 388 19 422 -43 q 335 -2 364 6 q 269 -10 306 -10 q 102 57 157 -10 q 47 235 47 124 l 47 738 q 102 916 47 850 q 269 982 157 982 m 269 883 q 183 847 211 883 q 154 743 154 810 l 154 229 q 183 126 154 163 q 269 89 211 89 q 357 126 329 89 q 385 229 385 163 l 385 743 q 357 847 385 810 q 269 883 329 883 z "},"r":{"ha":547,"x_min":56,"x_max":510,"o":"m 272 972 q 438 915 388 972 q 489 750 489 858 l 489 671 q 460 540 489 590 q 368 471 431 490 q 463 399 435 451 q 490 268 490 347 l 490 117 q 493 55 490 85 q 510 0 496 25 l 400 0 q 386 45 390 21 q 382 118 382 69 l 382 271 q 345 384 382 353 q 240 415 308 415 l 164 415 l 164 0 l 56 0 l 56 972 l 272 972 m 244 514 q 346 541 310 514 q 382 647 382 568 l 382 740 q 356 840 382 807 q 269 874 331 874 l 164 874 l 164 514 l 244 514 z "},"ŕ":{"ha":547,"x_min":56,"x_max":510,"o":"m 399 1174 l 269 1031 l 194 1031 l 290 1174 l 399 1174 m 272 972 q 438 915 388 972 q 489 750 489 858 l 489 671 q 460 540 489 590 q 368 471 431 490 q 463 399 435 451 q 490 268 490 347 l 490 117 q 493 55 490 85 q 510 0 496 25 l 400 0 q 386 45 390 21 q 382 118 382 69 l 382 271 q 345 384 382 353 q 240 415 308 415 l 164 415 l 164 0 l 56 0 l 56 972 l 272 972 m 244 514 q 346 541 310 514 q 382 647 382 568 l 382 740 q 356 840 382 807 q 269 874 331 874 l 164 874 l 164 514 l 244 514 z "},"ř":{"ha":547,"x_min":56,"x_max":510,"o":"m 185 1169 l 258 1086 l 332 1169 l 426 1169 l 306 1031 l 210 1031 l 90 1169 l 185 1169 m 272 972 q 438 915 388 972 q 489 750 489 858 l 489 671 q 460 540 489 590 q 368 471 431 490 q 463 399 435 451 q 490 268 490 347 l 490 117 q 493 55 490 85 q 510 0 496 25 l 400 0 q 386 45 390 21 q 382 118 382 69 l 382 271 q 345 384 382 353 q 240 415 308 415 l 164 415 l 164 0 l 56 0 l 56 972 l 272 972 m 244 514 q 346 541 310 514 q 382 647 382 568 l 382 740 q 356 840 382 807 q 269 874 331 874 l 164 874 l 164 514 l 244 514 z "},"s":{"ha":517,"x_min":40,"x_max":478,"o":"m 260 982 q 424 916 371 982 q 476 739 476 850 l 476 713 l 374 713 l 374 744 q 347 847 374 811 q 263 883 321 883 q 178 847 204 883 q 151 746 151 811 q 176 651 151 692 q 236 577 200 611 q 315 510 272 543 q 393 439 357 478 q 453 351 429 400 q 478 233 478 301 q 424 56 478 122 q 258 -10 371 -10 q 93 56 146 -10 q 40 233 40 122 l 40 289 l 142 289 l 142 228 q 169 125 142 161 q 256 89 197 89 q 342 125 314 89 q 369 228 369 161 q 345 322 369 282 q 285 395 321 361 q 207 462 249 429 q 129 533 165 494 q 69 622 93 572 q 44 739 44 671 q 97 917 44 851 q 260 982 150 982 z "},"ś":{"ha":517,"x_min":40,"x_max":478,"o":"m 401 1174 l 272 1031 l 197 1031 l 293 1174 l 401 1174 m 260 982 q 424 916 371 982 q 476 739 476 850 l 476 713 l 374 713 l 374 744 q 347 847 374 811 q 263 883 321 883 q 178 847 204 883 q 151 746 151 811 q 176 651 151 692 q 236 577 200 611 q 315 510 272 543 q 393 439 357 478 q 453 351 429 400 q 478 233 478 301 q 424 56 478 122 q 258 -10 371 -10 q 93 56 146 -10 q 40 233 40 122 l 40 289 l 142 289 l 142 228 q 169 125 142 161 q 256 89 197 89 q 342 125 314 89 q 369 228 369 161 q 345 322 369 282 q 285 395 321 361 q 207 462 249 429 q 129 533 165 494 q 69 622 93 572 q 44 739 44 671 q 97 917 44 851 q 260 982 150 982 z "},"š":{"ha":517,"x_min":40,"x_max":478,"o":"m 186 1169 l 260 1086 l 333 1169 l 428 1169 l 307 1031 l 211 1031 l 92 1169 l 186 1169 m 260 982 q 424 916 371 982 q 476 739 476 850 l 476 713 l 374 713 l 374 744 q 347 847 374 811 q 263 883 321 883 q 178 847 204 883 q 151 746 151 811 q 176 651 151 692 q 236 577 200 611 q 315 510 272 543 q 393 439 357 478 q 453 351 429 400 q 478 233 478 301 q 424 56 478 122 q 258 -10 371 -10 q 93 56 146 -10 q 40 233 40 122 l 40 289 l 142 289 l 142 228 q 169 125 142 161 q 256 89 197 89 q 342 125 314 89 q 369 228 369 161 q 345 322 369 282 q 285 395 321 361 q 207 462 249 429 q 129 533 165 494 q 69 622 93 572 q 44 739 44 671 q 97 917 44 851 q 260 982 150 982 z "},"ş":{"ha":517,"x_min":40,"x_max":478,"o":"m 279 -51 q 355 -70 328 -51 q 382 -122 382 -89 q 347 -187 382 -164 q 250 -211 313 -211 q 156 -188 189 -211 q 122 -125 122 -165 l 122 -114 l 193 -114 l 193 -124 q 250 -164 193 -160 q 310 -119 310 -164 q 242 -78 310 -78 l 229 -78 l 229 -8 q 85 65 131 0 q 40 233 40 129 l 40 289 l 142 289 l 142 228 q 169 125 142 161 q 256 89 197 89 q 342 125 314 89 q 369 228 369 161 q 345 322 369 282 q 285 395 321 361 q 207 462 249 429 q 129 533 165 494 q 69 622 93 572 q 44 739 44 671 q 97 917 44 851 q 260 982 150 982 q 424 916 371 982 q 476 739 476 850 l 476 713 l 374 713 l 374 744 q 347 847 374 811 q 263 883 321 883 q 178 847 204 883 q 151 746 151 811 q 176 651 151 692 q 236 577 200 611 q 315 510 272 543 q 393 439 357 478 q 453 351 429 400 q 478 233 478 301 q 429 63 478 128 q 279 -8 381 -1 l 279 -51 z "},"ŝ":{"ha":517,"x_min":40,"x_max":478,"o":"m 188 1029 l 93 1029 l 214 1169 l 310 1169 l 429 1029 l 335 1029 l 261 1111 l 188 1029 m 260 982 q 424 916 371 982 q 476 739 476 850 l 476 713 l 374 713 l 374 744 q 347 847 374 811 q 263 883 321 883 q 178 847 204 883 q 151 746 151 811 q 176 651 151 692 q 236 577 200 611 q 315 510 272 543 q 393 439 357 478 q 453 351 429 400 q 478 233 478 301 q 424 56 478 122 q 258 -10 371 -10 q 93 56 146 -10 q 40 233 40 122 l 40 289 l 142 289 l 142 228 q 169 125 142 161 q 256 89 197 89 q 342 125 314 89 q 369 228 369 161 q 345 322 369 282 q 285 395 321 361 q 207 462 249 429 q 129 533 165 494 q 69 622 93 572 q 44 739 44 671 q 97 917 44 851 q 260 982 150 982 z "},"ß":{"ha":1013,"x_min":38,"x_max":975,"o":"m 257 982 q 422 916 369 982 q 474 739 474 850 l 474 713 l 371 713 l 371 744 q 344 847 371 811 q 260 883 318 883 q 175 847 201 883 q 149 746 149 811 q 173 651 149 692 q 233 577 197 611 q 312 510 269 543 q 390 439 354 478 q 451 351 426 400 q 475 233 475 301 q 422 56 475 122 q 256 -10 368 -10 q 90 56 143 -10 q 38 233 38 122 l 38 289 l 139 289 l 139 228 q 167 125 139 161 q 253 89 194 89 q 340 125 313 89 q 367 228 367 161 q 342 322 367 282 q 282 395 318 361 q 204 462 246 429 q 126 533 163 494 q 66 622 90 572 q 42 739 42 671 q 94 917 42 851 q 257 982 147 982 m 758 982 q 922 916 869 982 q 974 739 974 850 l 974 713 l 872 713 l 872 744 q 846 847 872 811 q 761 883 819 883 q 676 847 703 883 q 650 746 650 811 q 674 651 650 692 q 735 577 699 611 q 813 510 771 543 q 890 439 854 478 q 951 351 926 400 q 975 233 975 301 q 922 56 975 122 q 757 -10 869 -10 q 591 56 644 -10 q 538 233 538 122 l 538 289 l 640 289 l 640 228 q 668 125 640 161 q 754 89 696 89 q 840 125 813 89 q 868 228 868 161 q 844 322 868 282 q 783 395 819 361 q 705 462 747 429 q 626 533 663 494 q 566 622 590 572 q 542 739 542 671 q 595 917 542 851 q 758 982 649 982 z "},"t":{"ha":500,"x_min":17,"x_max":482,"o":"m 196 0 l 196 874 l 17 874 l 17 972 l 482 972 l 482 874 l 303 874 l 303 0 l 196 0 z "},"ŧ":{"ha":517,"x_min":25,"x_max":492,"o":"m 411 661 l 411 581 l 313 581 l 313 0 l 204 0 l 204 581 l 106 581 l 106 661 l 204 661 l 204 874 l 25 874 l 25 972 l 492 972 l 492 874 l 313 874 l 313 661 l 411 661 z "},"ť":{"ha":517,"x_min":25,"x_max":492,"o":"m 185 1167 l 257 1083 l 332 1167 l 426 1167 l 306 1026 l 210 1026 l 90 1167 l 185 1167 m 204 0 l 204 874 l 25 874 l 25 972 l 492 972 l 492 874 l 313 874 l 313 0 l 204 0 z "},"u":{"ha":538,"x_min":51,"x_max":486,"o":"m 158 229 q 185 126 158 163 q 272 89 213 89 q 358 126 331 89 q 385 229 385 163 l 385 972 l 486 972 l 486 235 q 433 56 486 124 q 268 -11 381 -11 q 104 56 157 -11 q 51 235 51 124 l 51 972 l 158 972 l 158 229 z "},"ú":{"ha":538,"x_min":51,"x_max":486,"o":"m 411 1174 l 282 1031 l 207 1031 l 304 1174 l 411 1174 m 486 235 q 433 56 486 124 q 268 -11 381 -11 q 104 56 157 -11 q 51 235 51 124 l 51 972 l 158 972 l 158 229 q 185 126 158 163 q 272 89 213 89 q 358 126 331 89 q 385 229 385 163 l 385 972 l 486 972 l 486 235 z "},"ŭ":{"ha":538,"x_min":51,"x_max":486,"o":"m 415 1164 q 376 1060 414 1097 q 269 1022 338 1022 q 164 1060 201 1022 q 125 1164 126 1097 l 190 1164 q 215 1106 193 1122 q 269 1090 236 1090 q 325 1106 303 1090 q 350 1164 347 1122 l 415 1164 m 486 235 q 433 56 486 124 q 268 -11 381 -11 q 104 56 157 -11 q 51 235 51 124 l 51 972 l 158 972 l 158 229 q 185 126 158 163 q 272 89 213 89 q 358 126 331 89 q 385 229 385 163 l 385 972 l 486 972 l 486 235 z "},"û":{"ha":538,"x_min":51,"x_max":486,"o":"m 197 1029 l 103 1029 l 222 1169 l 318 1169 l 439 1029 l 344 1029 l 269 1111 l 197 1029 m 486 235 q 433 56 486 124 q 268 -11 381 -11 q 104 56 157 -11 q 51 235 51 124 l 51 972 l 158 972 l 158 229 q 185 126 158 163 q 272 89 213 89 q 358 126 331 89 q 385 229 385 163 l 385 972 l 486 972 l 486 235 z "},"ü":{"ha":538,"x_min":51,"x_max":486,"o":"m 232 1153 l 232 1028 l 136 1028 l 136 1153 l 232 1153 m 404 1153 l 404 1028 l 310 1028 l 310 1153 l 404 1153 m 486 235 q 433 56 486 124 q 268 -11 381 -11 q 104 56 157 -11 q 51 235 51 124 l 51 972 l 158 972 l 158 229 q 185 126 158 163 q 272 89 213 89 q 358 126 331 89 q 385 229 385 163 l 385 972 l 486 972 l 486 235 z "},"ù":{"ha":538,"x_min":51,"x_max":486,"o":"m 240 1169 l 338 1026 l 257 1026 l 128 1169 l 240 1169 m 486 235 q 433 56 486 124 q 268 -11 381 -11 q 104 56 157 -11 q 51 235 51 124 l 51 972 l 158 972 l 158 229 q 185 126 158 163 q 272 89 213 89 q 358 126 331 89 q 385 229 385 163 l 385 972 l 486 972 l 486 235 z "},"ű":{"ha":538,"x_min":51,"x_max":486,"o":"m 318 1172 l 207 1029 l 139 1029 l 218 1172 l 318 1172 m 468 1172 l 356 1029 l 289 1029 l 367 1172 l 468 1172 m 486 235 q 433 56 486 124 q 268 -11 381 -11 q 104 56 157 -11 q 51 235 51 124 l 51 972 l 158 972 l 158 229 q 185 126 158 163 q 272 89 213 89 q 358 126 331 89 q 385 229 385 163 l 385 972 l 486 972 l 486 235 z "},"ū":{"ha":538,"x_min":51,"x_max":486,"o":"m 414 1119 l 414 1042 l 129 1042 l 129 1119 l 414 1119 m 486 235 q 433 56 486 124 q 268 -11 381 -11 q 104 56 157 -11 q 51 235 51 124 l 51 972 l 158 972 l 158 229 q 185 126 158 163 q 272 89 213 89 q 358 126 331 89 q 385 229 385 163 l 385 972 l 486 972 l 486 235 z "},"ģ":{"ha":532,"x_min":47,"x_max":485,"o":"m 265 982 q 431 915 378 982 q 485 738 485 849 l 485 654 l 382 654 l 382 743 q 355 847 382 810 q 268 883 328 883 q 182 847 210 883 q 154 743 154 810 l 154 229 q 182 126 154 163 q 268 89 210 89 q 355 126 328 89 q 382 229 382 163 l 382 424 l 282 424 l 282 521 l 485 521 l 485 235 q 431 57 485 124 q 265 -10 378 -10 q 101 57 154 -10 q 47 235 47 124 l 47 738 q 60 838 47 793 q 101 915 74 883 q 169 965 128 947 q 265 982 210 982 m 254 -168 l 221 -168 l 221 -46 l 311 -46 l 311 -158 l 263 -246 l 224 -246 l 254 -168 z "},"ķ":{"ha":568,"x_min":56,"x_max":540,"o":"m 221 422 l 164 326 l 164 0 l 56 0 l 56 972 l 164 972 l 164 503 l 422 972 l 532 972 l 286 529 l 540 0 l 429 0 l 221 422 m 274 -168 l 239 -168 l 239 -46 l 331 -46 l 331 -158 l 282 -246 l 242 -246 l 274 -168 z "},"ļ":{"ha":468,"x_min":56,"x_max":442,"o":"m 56 0 l 56 972 l 164 972 l 164 99 l 442 99 l 442 0 l 56 0 m 246 -168 l 213 -168 l 213 -46 l 303 -46 l 303 -158 l 254 -246 l 215 -246 l 246 -168 z "},"ņ":{"ha":568,"x_min":54,"x_max":513,"o":"m 151 0 l 54 0 l 54 972 l 192 972 l 417 269 l 417 972 l 513 972 l 513 0 l 400 0 l 151 786 l 151 0 m 272 -168 l 238 -168 l 238 -46 l 328 -46 l 328 -158 l 279 -246 l 240 -246 l 272 -168 z "},"ŗ":{"ha":547,"x_min":56,"x_max":510,"o":"m 272 972 q 438 915 388 972 q 489 750 489 858 l 489 671 q 460 540 489 590 q 368 471 431 490 q 463 399 435 451 q 490 268 490 347 l 490 117 q 493 55 490 85 q 510 0 496 25 l 400 0 q 386 45 390 21 q 382 118 382 69 l 382 271 q 345 384 382 353 q 240 415 308 415 l 164 415 l 164 0 l 56 0 l 56 972 l 272 972 m 244 514 q 346 541 310 514 q 382 647 382 568 l 382 740 q 356 840 382 807 q 269 874 331 874 l 164 874 l 164 514 l 244 514 m 263 -168 l 228 -168 l 228 -46 l 319 -46 l 319 -158 l 271 -246 l 231 -246 l 263 -168 z "},"ţ":{"ha":517,"x_min":25,"x_max":492,"o":"m 283 0 l 283 -53 q 350 -72 324 -53 q 376 -131 376 -90 q 366 -178 376 -158 q 339 -211 356 -199 q 300 -228 322 -224 q 254 -233 278 -233 q 210 -228 232 -233 q 172 -211 189 -222 q 145 -183 156 -200 q 135 -142 135 -165 l 135 -131 l 200 -131 l 200 -142 q 217 -174 200 -165 q 253 -182 235 -182 q 292 -171 275 -182 q 310 -135 310 -160 q 291 -98 310 -107 q 244 -89 272 -89 l 232 -89 l 232 0 l 204 0 l 204 874 l 25 874 l 25 972 l 492 972 l 492 874 l 313 874 l 313 0 l 283 0 z "},"ș":{"ha":517,"x_min":40,"x_max":478,"o":"m 260 982 q 424 916 371 982 q 476 739 476 850 l 476 713 l 374 713 l 374 744 q 347 847 374 811 q 263 883 321 883 q 178 847 204 883 q 151 746 151 811 q 176 651 151 692 q 236 577 200 611 q 315 510 272 543 q 393 439 357 478 q 453 351 429 400 q 478 233 478 301 q 424 56 478 122 q 258 -10 371 -10 q 93 56 146 -10 q 40 233 40 122 l 40 289 l 142 289 l 142 228 q 169 125 142 161 q 256 89 197 89 q 342 125 314 89 q 369 228 369 161 q 345 322 369 282 q 285 395 321 361 q 207 462 249 429 q 129 533 165 494 q 69 622 93 572 q 44 739 44 671 q 97 917 44 851 q 260 982 150 982 m 244 -168 l 210 -168 l 210 -46 l 301 -46 l 301 -158 l 253 -246 l 213 -246 l 244 -168 z "},"ț":{"ha":517,"x_min":25,"x_max":492,"o":"m 204 0 l 204 874 l 25 874 l 25 972 l 492 972 l 492 874 l 313 874 l 313 0 l 204 0 m 247 -168 l 213 -168 l 213 -46 l 304 -46 l 304 -158 l 256 -246 l 215 -246 l 247 -168 z "},"ḃ":{"ha":544,"x_min":56,"x_max":501,"o":"m 294 1153 l 294 1028 l 200 1028 l 200 1153 l 294 1153 m 274 972 q 436 919 388 972 q 485 757 485 865 l 485 711 q 460 585 485 633 q 371 518 435 538 q 472 444 442 499 q 501 310 501 390 l 501 228 q 447 59 501 118 q 279 0 393 0 l 56 0 l 56 972 l 274 972 m 247 560 q 345 586 313 560 q 378 689 378 613 l 378 746 q 353 842 378 811 q 271 874 329 874 l 164 874 l 164 560 l 247 560 m 279 99 q 394 231 394 99 l 394 317 q 362 430 394 399 q 258 461 329 461 l 164 461 l 164 99 l 279 99 z "},"ḋ":{"ha":550,"x_min":56,"x_max":504,"o":"m 304 1153 l 304 1028 l 210 1028 l 210 1153 l 304 1153 m 283 972 q 451 908 397 972 q 504 731 504 843 l 504 240 q 451 64 504 128 q 283 0 397 0 l 56 0 l 56 972 l 283 972 m 282 99 q 369 134 340 99 q 397 236 397 169 l 397 736 q 369 838 397 803 q 281 874 340 874 l 164 874 l 164 99 l 282 99 z "},"ḟ":{"ha":472,"x_min":56,"x_max":442,"o":"m 297 1153 l 297 1028 l 203 1028 l 203 1153 l 297 1153 m 388 519 l 388 421 l 164 421 l 164 0 l 56 0 l 56 972 l 442 972 l 442 874 l 164 874 l 164 519 l 388 519 z "},"ṁ":{"ha":726,"x_min":54,"x_max":671,"o":"m 410 1156 l 410 1031 l 315 1031 l 315 1156 l 410 1156 m 414 1 l 310 1 l 149 775 l 149 0 l 54 0 l 54 972 l 206 972 l 365 196 l 519 972 l 671 972 l 671 0 l 568 0 l 568 782 l 414 1 z "},"ṗ":{"ha":515,"x_min":56,"x_max":486,"o":"m 301 1153 l 301 1028 l 207 1028 l 207 1153 l 301 1153 m 268 972 q 435 909 383 972 q 486 735 486 846 l 486 618 q 431 442 486 501 q 260 383 376 383 l 164 383 l 164 0 l 56 0 l 56 972 l 268 972 m 260 481 q 350 510 321 481 q 379 611 379 540 l 379 740 q 353 840 379 807 q 268 874 328 874 l 164 874 l 164 481 l 260 481 z "},"ṡ":{"ha":517,"x_min":40,"x_max":478,"o":"m 310 1157 l 310 1032 l 215 1032 l 215 1157 l 310 1157 m 260 982 q 424 916 371 982 q 476 739 476 850 l 476 713 l 374 713 l 374 744 q 347 847 374 811 q 263 883 321 883 q 178 847 204 883 q 151 746 151 811 q 176 651 151 692 q 236 577 200 611 q 315 510 272 543 q 393 439 357 478 q 453 351 429 400 q 478 233 478 301 q 424 56 478 122 q 258 -10 371 -10 q 93 56 146 -10 q 40 233 40 122 l 40 289 l 142 289 l 142 228 q 169 125 142 161 q 256 89 197 89 q 342 125 314 89 q 369 228 369 161 q 345 322 369 282 q 285 395 321 361 q 207 462 249 429 q 129 533 165 494 q 69 622 93 572 q 44 739 44 671 q 97 917 44 851 q 260 982 150 982 z "},"ṫ":{"ha":517,"x_min":24,"x_max":490,"o":"m 304 1153 l 304 1028 l 210 1028 l 210 1153 l 304 1153 m 203 0 l 203 874 l 24 874 l 24 972 l 490 972 l 490 874 l 311 874 l 311 0 l 203 0 z "},"ų":{"ha":538,"x_min":51,"x_max":486,"o":"m 486 235 q 482 167 486 200 q 466 105 478 135 q 434 50 454 75 q 382 7 414 25 q 340 -45 354 -15 q 328 -96 326 -75 q 344 -128 328 -118 q 379 -137 360 -137 q 411 -134 399 -137 q 435 -125 424 -131 l 435 -182 q 394 -195 414 -192 q 349 -199 375 -199 q 274 -180 303 -199 q 244 -121 244 -161 q 263 -59 243 -89 q 318 -6 283 -29 q 268 -11 297 -11 q 104 56 157 -11 q 51 235 51 124 l 51 972 l 158 972 l 158 229 q 185 126 158 163 q 272 89 213 89 q 358 126 331 89 q 385 229 385 163 l 385 972 l 486 972 l 486 235 z "},"ů":{"ha":538,"x_min":51,"x_max":486,"o":"m 272 1224 q 345 1194 315 1224 q 375 1122 375 1165 q 345 1050 375 1079 q 272 1021 315 1021 q 200 1050 229 1021 q 171 1122 171 1079 q 200 1194 171 1165 q 272 1224 229 1224 m 272 1172 q 237 1158 251 1172 q 222 1122 222 1144 q 237 1086 222 1100 q 272 1072 251 1072 q 308 1086 293 1072 q 324 1122 324 1100 q 308 1158 324 1144 q 272 1172 293 1172 m 486 235 q 433 56 486 124 q 268 -11 381 -11 q 104 56 157 -11 q 51 235 51 124 l 51 972 l 158 972 l 158 229 q 185 126 158 163 q 272 89 213 89 q 358 126 331 89 q 385 229 385 163 l 385 972 l 486 972 l 486 235 z "},"ũ":{"ha":538,"x_min":51,"x_max":486,"o":"m 440 1114 q 398 1053 424 1072 q 340 1035 372 1035 q 303 1041 319 1035 q 273 1055 288 1047 q 244 1069 258 1063 q 214 1075 231 1075 q 181 1066 194 1075 q 156 1033 167 1057 l 101 1071 q 144 1132 118 1114 q 203 1151 171 1150 q 240 1145 224 1151 q 272 1131 257 1139 q 301 1116 286 1122 q 331 1110 315 1110 q 362 1120 349 1111 q 386 1151 375 1129 l 440 1114 m 486 235 q 433 56 486 124 q 268 -11 381 -11 q 104 56 157 -11 q 51 235 51 124 l 51 972 l 158 972 l 158 229 q 185 126 158 163 q 272 89 213 89 q 358 126 331 89 q 385 229 385 163 l 385 972 l 486 972 l 486 235 z "},"v":{"ha":581,"x_min":28,"x_max":553,"o":"m 138 972 l 296 126 l 453 972 l 553 972 l 371 0 l 211 0 l 28 972 l 138 972 z "},"w":{"ha":810,"x_min":32,"x_max":778,"o":"m 314 0 l 165 0 l 32 972 l 138 972 l 251 144 l 360 971 l 467 971 l 574 143 l 683 972 l 778 972 l 646 0 l 503 0 l 410 660 l 314 0 z "},"ẃ":{"ha":810,"x_min":32,"x_max":778,"o":"m 543 1169 l 414 1026 l 338 1026 l 435 1169 l 543 1169 m 314 0 l 165 0 l 32 972 l 138 972 l 251 144 l 360 971 l 467 971 l 574 143 l 683 972 l 778 972 l 646 0 l 503 0 l 410 660 l 314 0 z "},"ŵ":{"ha":810,"x_min":32,"x_max":778,"o":"m 333 1028 l 239 1028 l 358 1168 l 454 1168 l 575 1028 l 481 1028 l 407 1110 l 333 1028 m 314 0 l 165 0 l 32 972 l 138 972 l 251 144 l 360 971 l 467 971 l 574 143 l 683 972 l 778 972 l 646 0 l 503 0 l 410 660 l 314 0 z "},"ẅ":{"ha":810,"x_min":32,"x_max":778,"o":"m 368 1154 l 368 1029 l 274 1029 l 274 1154 l 368 1154 m 540 1154 l 540 1029 l 446 1029 l 446 1154 l 540 1154 m 314 0 l 165 0 l 32 972 l 138 972 l 251 144 l 360 971 l 467 971 l 574 143 l 683 972 l 778 972 l 646 0 l 503 0 l 410 660 l 314 0 z "},"ẁ":{"ha":810,"x_min":32,"x_max":778,"o":"m 385 1174 l 481 1031 l 401 1031 l 272 1174 l 385 1174 m 314 0 l 165 0 l 32 972 l 138 972 l 251 144 l 360 971 l 467 971 l 574 143 l 683 972 l 778 972 l 646 0 l 503 0 l 410 660 l 314 0 z "},"x":{"ha":604,"x_min":32,"x_max":572,"o":"m 297 419 l 135 0 l 32 0 l 228 501 l 44 972 l 157 972 l 307 583 l 458 972 l 560 972 l 378 501 l 572 0 l 458 0 l 297 419 z "},"y":{"ha":564,"x_min":22,"x_max":542,"o":"m 228 349 l 22 972 l 135 972 l 286 494 l 439 972 l 542 972 l 335 349 l 335 0 l 228 0 l 228 349 z "},"ý":{"ha":564,"x_min":22,"x_max":542,"o":"m 426 1169 l 297 1026 l 222 1026 l 319 1169 l 426 1169 m 228 349 l 22 972 l 135 972 l 286 494 l 439 972 l 542 972 l 335 349 l 335 0 l 228 0 l 228 349 z "},"ŷ":{"ha":564,"x_min":22,"x_max":542,"o":"m 213 1028 l 118 1028 l 238 1167 l 333 1167 l 454 1028 l 360 1028 l 286 1110 l 213 1028 m 228 349 l 22 972 l 135 972 l 286 494 l 439 972 l 542 972 l 335 349 l 335 0 l 228 0 l 228 349 z "},"ÿ":{"ha":564,"x_min":22,"x_max":542,"o":"m 246 1151 l 246 1026 l 151 1026 l 151 1151 l 246 1151 m 418 1151 l 418 1026 l 324 1026 l 324 1151 l 418 1151 m 228 349 l 22 972 l 135 972 l 286 494 l 439 972 l 542 972 l 335 349 l 335 0 l 228 0 l 228 349 z "},"ỳ":{"ha":564,"x_min":22,"x_max":542,"o":"m 258 1174 l 354 1031 l 275 1031 l 146 1174 l 258 1174 m 228 349 l 22 972 l 135 972 l 286 494 l 439 972 l 542 972 l 335 349 l 335 0 l 228 0 l 228 349 z "},"z":{"ha":526,"x_min":40,"x_max":485,"o":"m 482 0 l 40 0 l 40 97 l 374 874 l 56 874 l 56 972 l 485 972 l 485 875 l 150 99 l 482 99 l 482 0 z "},"ź":{"ha":526,"x_min":40,"x_max":485,"o":"m 413 1174 l 283 1031 l 208 1031 l 304 1174 l 413 1174 m 482 0 l 40 0 l 40 97 l 374 874 l 56 874 l 56 972 l 485 972 l 485 875 l 150 99 l 482 99 l 482 0 z "},"ž":{"ha":526,"x_min":40,"x_max":485,"o":"m 196 1169 l 268 1086 l 343 1169 l 438 1169 l 317 1029 l 221 1029 l 101 1169 l 196 1169 m 482 0 l 40 0 l 40 97 l 374 874 l 56 874 l 56 972 l 485 972 l 485 875 l 150 99 l 482 99 l 482 0 z "},"ż":{"ha":526,"x_min":40,"x_max":485,"o":"m 321 1156 l 321 1031 l 226 1031 l 226 1156 l 321 1156 m 482 0 l 40 0 l 40 97 l 374 874 l 56 874 l 56 972 l 485 972 l 485 875 l 150 99 l 482 99 l 482 0 z "},"ª":{"ha":382,"x_min":46,"x_max":331,"o":"m 204 979 q 303 938 275 979 q 331 826 331 896 l 331 464 l 271 464 l 267 540 q 227 479 254 501 q 158 457 200 457 q 74 492 101 457 q 46 594 46 528 l 46 600 q 64 681 46 650 q 112 731 82 713 q 181 758 142 750 q 261 767 219 765 l 261 836 q 248 894 261 872 q 201 915 235 915 q 132 831 132 915 l 132 806 l 67 806 l 67 826 q 99 938 67 897 q 204 979 132 979 m 261 714 q 155 685 193 711 q 117 610 117 658 l 117 600 q 185 522 117 522 q 239 545 221 522 q 261 604 257 568 l 261 714 m 331 385 l 331 315 l 47 315 l 47 385 l 331 385 z "},"º":{"ha":385,"x_min":50,"x_max":335,"o":"m 192 979 q 299 937 264 979 q 335 824 335 894 l 335 611 q 299 498 335 540 q 192 456 264 456 q 85 498 119 456 q 50 611 50 540 l 50 824 q 85 937 50 894 q 192 979 119 979 m 192 915 q 137 892 154 915 q 119 828 119 869 l 119 607 q 137 542 119 565 q 192 519 154 519 q 247 542 229 519 q 264 607 264 565 l 264 828 q 247 892 264 869 q 192 915 229 915 m 335 386 l 335 317 l 51 317 l 51 386 l 335 386 z "},"А":{"ha":586,"x_min":28,"x_max":557,"o":"m 165 196 l 128 0 l 28 0 l 214 972 l 371 972 l 557 0 l 449 0 l 411 196 l 165 196 m 179 289 l 396 289 l 286 850 l 179 289 z "},"Б":{"ha":557,"x_min":57,"x_max":507,"o":"m 278 571 q 449 516 392 571 q 507 343 507 461 l 507 236 q 453 61 507 122 q 283 0 399 0 l 57 0 l 57 972 l 467 972 l 467 874 l 164 874 l 164 571 l 278 571 m 283 99 q 371 130 343 99 q 399 229 399 161 l 399 350 q 368 447 399 421 q 278 474 338 474 l 164 474 l 164 99 l 283 99 z "},"В":{"ha":544,"x_min":56,"x_max":501,"o":"m 274 972 q 436 919 388 972 q 485 757 485 865 l 485 711 q 460 585 485 633 q 371 518 435 538 q 472 444 442 499 q 501 310 501 390 l 501 228 q 447 59 501 118 q 279 0 393 0 l 56 0 l 56 972 l 274 972 m 247 560 q 345 586 313 560 q 378 689 378 613 l 378 746 q 353 842 378 811 q 271 874 329 874 l 164 874 l 164 560 l 247 560 m 279 99 q 394 231 394 99 l 394 317 q 362 430 394 399 q 258 461 329 461 l 164 461 l 164 99 l 279 99 z "},"Г":{"ha":494,"x_min":57,"x_max":444,"o":"m 164 874 l 164 0 l 57 0 l 57 972 l 444 972 l 444 874 l 164 874 z "},"Д":{"ha":679,"x_min":33,"x_max":640,"o":"m 535 -133 l 535 0 l 138 0 l 138 -133 l 33 -133 l 33 96 l 96 96 q 128 158 121 124 q 139 238 136 193 l 176 972 l 567 972 l 567 96 l 640 96 l 640 -133 l 535 -133 m 244 239 q 233 153 242 186 q 200 96 224 119 l 457 96 l 457 874 l 276 874 l 244 239 z "},"Е":{"ha":500,"x_min":56,"x_max":456,"o":"m 401 542 l 401 444 l 164 444 l 164 99 l 456 99 l 456 0 l 56 0 l 56 972 l 456 972 l 456 874 l 164 874 l 164 542 l 401 542 z "},"Ё":{"ha":500,"x_min":56,"x_max":456,"o":"m 215 1154 l 215 1029 l 121 1029 l 121 1154 l 215 1154 m 389 1154 l 389 1029 l 293 1029 l 293 1154 l 389 1154 m 401 542 l 401 444 l 164 444 l 164 99 l 456 99 l 456 0 l 56 0 l 56 972 l 456 972 l 456 874 l 164 874 l 164 542 l 401 542 z "},"Ж":{"ha":851,"x_min":25,"x_max":828,"o":"m 531 458 l 479 367 l 479 0 l 372 0 l 372 367 l 322 460 l 136 0 l 25 0 l 247 560 l 31 972 l 139 972 l 372 525 l 372 972 l 479 972 l 479 525 l 714 972 l 822 972 l 607 563 l 828 0 l 717 0 l 531 458 z "},"З":{"ha":538,"x_min":50,"x_max":488,"o":"m 268 982 q 434 915 381 982 q 488 738 488 849 l 488 713 q 458 585 488 638 q 368 511 428 533 q 459 438 431 490 q 488 311 488 385 l 488 235 q 434 57 488 124 q 268 -10 381 -10 q 103 57 157 -10 q 50 235 50 124 l 50 329 l 151 329 l 151 229 q 179 126 151 163 q 265 89 207 89 q 352 126 325 89 q 379 238 379 164 l 379 314 q 254 458 379 458 l 208 458 l 208 556 l 260 556 q 347 590 314 556 q 379 689 379 625 l 379 733 q 352 846 379 808 q 265 883 325 883 q 179 847 207 883 q 151 743 151 810 l 151 678 l 51 678 l 51 739 q 103 917 51 851 q 268 982 156 982 z "},"И":{"ha":568,"x_min":56,"x_max":514,"o":"m 313 451 l 168 0 l 56 0 l 56 972 l 151 972 l 151 247 l 251 554 l 393 972 l 514 972 l 514 0 l 417 0 l 417 774 l 313 451 z "},"Й":{"ha":569,"x_min":56,"x_max":514,"o":"m 440 1172 q 401 1072 440 1108 q 290 1036 361 1036 q 181 1072 219 1036 q 140 1172 143 1108 l 208 1172 q 233 1117 211 1132 q 290 1101 256 1101 q 348 1117 325 1101 q 374 1172 371 1132 l 440 1172 m 315 460 l 168 0 l 56 0 l 56 972 l 151 972 l 151 247 l 243 532 l 393 972 l 514 972 l 514 0 l 417 0 l 417 774 l 315 460 z "},"К":{"ha":568,"x_min":56,"x_max":540,"o":"m 221 422 l 164 326 l 164 0 l 56 0 l 56 972 l 164 972 l 164 503 l 422 972 l 532 972 l 286 529 l 540 0 l 429 0 l 221 422 z "},"Л":{"ha":617,"x_min":26,"x_max":557,"o":"m 263 874 l 240 242 q 228 139 238 183 q 196 63 218 94 q 137 15 174 32 q 44 -1 100 -1 l 26 -1 l 26 97 q 81 106 60 97 q 113 131 101 114 q 129 175 125 149 q 135 236 133 201 l 161 972 l 557 972 l 557 0 l 449 0 l 449 874 l 263 874 z "},"М":{"ha":726,"x_min":54,"x_max":671,"o":"m 414 1 l 310 1 l 149 775 l 149 0 l 54 0 l 54 972 l 206 972 l 365 196 l 519 972 l 671 972 l 671 0 l 568 0 l 568 782 l 414 1 z "},"Н":{"ha":567,"x_min":56,"x_max":511,"o":"m 164 438 l 164 0 l 56 0 l 56 972 l 164 972 l 164 535 l 403 535 l 403 972 l 511 972 l 511 0 l 403 0 l 403 438 l 164 438 z "},"О":{"ha":540,"x_min":47,"x_max":493,"o":"m 47 738 q 102 916 47 850 q 269 982 157 982 q 438 916 382 982 q 493 738 493 850 l 493 235 q 438 57 493 124 q 269 -10 382 -10 q 102 57 157 -10 q 47 235 47 124 l 47 738 m 154 229 q 183 126 154 163 q 269 89 211 89 q 357 126 329 89 q 385 229 385 163 l 385 743 q 357 847 385 810 q 269 883 329 883 q 183 847 211 883 q 154 743 154 810 l 154 229 z "},"П":{"ha":567,"x_min":56,"x_max":511,"o":"m 164 874 l 164 0 l 56 0 l 56 972 l 511 972 l 511 0 l 403 0 l 403 874 l 164 874 z "},"Р":{"ha":515,"x_min":56,"x_max":486,"o":"m 268 972 q 435 909 383 972 q 486 735 486 846 l 486 618 q 431 442 486 501 q 260 383 376 383 l 164 383 l 164 0 l 56 0 l 56 972 l 268 972 m 260 481 q 350 510 321 481 q 379 611 379 540 l 379 740 q 353 840 379 807 q 268 874 328 874 l 164 874 l 164 481 l 260 481 z "},"С":{"ha":528,"x_min":47,"x_max":485,"o":"m 265 982 q 431 915 378 982 q 485 738 485 849 l 485 650 l 382 650 l 382 743 q 355 847 382 810 q 268 883 328 883 q 182 847 210 883 q 154 743 154 810 l 154 229 q 182 126 154 163 q 268 89 210 89 q 355 126 328 89 q 382 229 382 163 l 382 356 l 485 356 l 485 235 q 431 57 485 124 q 265 -10 378 -10 q 101 57 154 -10 q 47 235 47 124 l 47 738 q 60 838 47 793 q 101 915 74 883 q 169 965 128 947 q 265 982 210 982 z "},"Т":{"ha":517,"x_min":25,"x_max":492,"o":"m 204 0 l 204 874 l 25 874 l 25 972 l 492 972 l 492 874 l 313 874 l 313 0 l 204 0 z "},"У":{"ha":579,"x_min":25,"x_max":556,"o":"m 347 214 q 317 118 335 160 q 271 49 300 76 q 198 8 242 21 q 88 -1 154 -4 l 88 96 q 181 115 150 93 q 226 192 213 136 l 249 256 l 25 972 l 133 972 l 232 635 l 299 390 l 356 635 l 443 972 l 556 972 l 347 214 z "},"Ф":{"ha":790,"x_min":47,"x_max":740,"o":"m 515 858 q 687 795 633 858 q 740 615 740 732 l 740 350 q 687 170 740 233 q 515 107 633 107 l 447 107 l 447 0 l 340 0 l 340 107 l 272 107 q 101 170 154 107 q 47 350 47 233 l 47 615 q 101 795 47 732 q 272 858 154 858 l 340 858 l 340 972 l 447 972 l 447 858 l 515 858 m 272 763 q 182 728 210 763 q 154 622 154 693 l 154 343 q 182 237 154 272 q 272 201 210 201 l 340 201 l 340 763 l 272 763 m 515 201 q 635 343 635 201 l 635 622 q 606 728 635 693 q 515 763 578 763 l 447 763 l 447 201 l 515 201 z "},"Х":{"ha":604,"x_min":32,"x_max":572,"o":"m 297 419 l 135 0 l 32 0 l 228 501 l 44 972 l 157 972 l 307 583 l 458 972 l 560 972 l 378 501 l 572 0 l 458 0 l 297 419 z "},"Ч":{"ha":557,"x_min":49,"x_max":500,"o":"m 393 431 q 326 374 367 393 q 242 354 286 354 q 156 372 193 354 q 96 420 119 389 q 60 494 72 451 q 49 585 49 536 l 49 972 l 157 972 l 157 593 q 188 492 157 531 q 276 453 218 453 q 393 567 376 453 l 393 972 l 500 972 l 500 0 l 393 0 l 393 431 z "},"Ц":{"ha":632,"x_min":65,"x_max":594,"o":"m 489 -131 l 489 0 l 65 0 l 65 972 l 172 972 l 172 99 l 411 99 l 411 972 l 521 972 l 521 96 l 594 96 l 594 -131 l 489 -131 z "},"Ш":{"ha":807,"x_min":56,"x_max":751,"o":"m 164 972 l 164 99 l 350 99 l 350 972 l 458 972 l 458 99 l 644 99 l 644 972 l 751 972 l 751 0 l 56 0 l 56 972 l 164 972 z "},"Щ":{"ha":864,"x_min":56,"x_max":826,"o":"m 722 -131 l 722 0 l 56 0 l 56 972 l 164 972 l 164 99 l 350 99 l 350 972 l 457 972 l 457 99 l 644 99 l 644 972 l 751 972 l 751 96 l 826 96 l 826 -131 l 722 -131 z "},"Я":{"ha":547,"x_min":38,"x_max":492,"o":"m 307 415 q 202 384 239 415 q 165 271 165 353 l 165 118 q 161 45 165 69 q 147 0 157 21 l 38 0 q 53 55 50 25 q 57 117 57 85 l 57 268 q 84 399 57 347 q 178 471 111 451 q 58 671 58 510 l 58 750 q 109 915 58 858 q 275 972 160 972 l 492 972 l 492 0 l 383 0 l 383 415 l 307 415 m 278 874 q 191 840 217 874 q 165 740 165 807 l 165 647 q 201 541 165 568 q 301 514 238 514 l 383 514 l 383 874 l 278 874 z "},"Ь":{"ha":529,"x_min":56,"x_max":486,"o":"m 260 589 q 431 530 376 589 q 486 354 486 471 l 486 238 q 434 63 486 126 q 268 0 382 0 l 56 0 l 56 972 l 164 972 l 164 589 l 260 589 m 268 99 q 353 132 328 99 q 379 232 379 165 l 379 361 q 350 462 379 432 q 260 492 321 492 l 164 492 l 164 99 l 268 99 z "},"Ъ":{"ha":608,"x_min":14,"x_max":567,"o":"m 340 589 q 567 354 567 589 l 567 238 q 515 63 567 126 q 349 0 463 0 l 136 0 l 136 875 l 14 875 l 14 972 l 243 972 l 243 589 l 340 589 m 349 99 q 433 132 408 99 q 458 232 458 165 l 458 361 q 430 462 458 432 q 340 492 401 492 l 243 492 l 243 99 l 349 99 z "},"Ы":{"ha":739,"x_min":56,"x_max":683,"o":"m 260 589 q 431 530 376 589 q 486 354 486 471 l 486 238 q 434 63 486 126 q 268 0 382 0 l 56 0 l 56 972 l 164 972 l 164 589 l 260 589 m 683 972 l 683 0 l 576 0 l 576 972 l 683 972 m 268 99 q 353 132 328 99 q 379 232 379 165 l 379 361 q 350 462 379 432 q 260 492 321 492 l 164 492 l 164 99 l 268 99 z "},"Э":{"ha":528,"x_min":43,"x_max":479,"o":"m 261 982 q 358 965 317 982 q 426 915 399 947 q 466 838 453 883 q 479 738 479 793 l 479 235 q 426 57 479 124 q 261 -10 372 -10 q 97 57 150 -10 q 43 235 43 124 l 43 340 l 144 340 l 144 229 q 172 126 144 163 q 258 89 200 89 q 344 126 317 89 q 372 229 372 163 l 372 454 l 203 454 l 203 551 l 372 551 l 372 743 q 344 847 372 810 q 258 883 317 883 q 172 847 200 883 q 144 743 144 810 l 144 665 l 44 665 l 44 738 q 58 838 44 793 q 97 915 71 883 q 165 965 124 947 q 261 982 206 982 z "},"Ю":{"ha":799,"x_min":56,"x_max":750,"o":"m 528 982 q 695 916 640 982 q 750 738 750 850 l 750 235 q 695 57 750 124 q 528 -10 640 -10 q 360 57 415 -10 q 304 235 304 124 l 304 438 l 164 438 l 164 0 l 56 0 l 56 972 l 164 972 l 164 535 l 304 535 l 304 738 q 360 916 304 850 q 528 982 415 982 m 528 883 q 440 847 468 883 q 413 743 413 810 l 413 229 q 440 126 413 163 q 528 89 468 89 q 615 126 586 89 q 643 229 643 163 l 643 743 q 615 847 643 810 q 528 883 586 883 z "},"а":{"ha":586,"x_min":28,"x_max":557,"o":"m 165 196 l 128 0 l 28 0 l 214 972 l 371 972 l 557 0 l 449 0 l 411 196 l 165 196 m 179 289 l 396 289 l 286 850 l 179 289 z "},"б":{"ha":557,"x_min":57,"x_max":507,"o":"m 278 571 q 449 516 392 571 q 507 343 507 461 l 507 236 q 453 61 507 122 q 283 0 399 0 l 57 0 l 57 972 l 467 972 l 467 874 l 164 874 l 164 571 l 278 571 m 283 99 q 371 130 343 99 q 399 229 399 161 l 399 350 q 368 447 399 421 q 278 474 338 474 l 164 474 l 164 99 l 283 99 z "},"в":{"ha":544,"x_min":56,"x_max":501,"o":"m 274 972 q 436 919 388 972 q 485 757 485 865 l 485 711 q 460 585 485 633 q 371 518 435 538 q 472 444 442 499 q 501 310 501 390 l 501 228 q 447 59 501 118 q 279 0 393 0 l 56 0 l 56 972 l 274 972 m 247 560 q 345 586 313 560 q 378 689 378 613 l 378 746 q 353 842 378 811 q 271 874 329 874 l 164 874 l 164 560 l 247 560 m 279 99 q 394 231 394 99 l 394 317 q 362 430 394 399 q 258 461 329 461 l 164 461 l 164 99 l 279 99 z "},"г":{"ha":494,"x_min":57,"x_max":444,"o":"m 164 874 l 164 0 l 57 0 l 57 972 l 444 972 l 444 874 l 164 874 z "},"д":{"ha":679,"x_min":33,"x_max":640,"o":"m 535 -133 l 535 0 l 138 0 l 138 -133 l 33 -133 l 33 96 l 96 96 q 128 158 121 124 q 139 238 136 193 l 176 972 l 567 972 l 567 96 l 640 96 l 640 -133 l 535 -133 m 244 239 q 233 153 242 186 q 200 96 224 119 l 457 96 l 457 874 l 276 874 l 244 239 z "},"е":{"ha":500,"x_min":56,"x_max":456,"o":"m 401 542 l 401 444 l 164 444 l 164 99 l 456 99 l 456 0 l 56 0 l 56 972 l 456 972 l 456 874 l 164 874 l 164 542 l 401 542 z "},"ё":{"ha":500,"x_min":56,"x_max":456,"o":"m 215 1154 l 215 1029 l 121 1029 l 121 1154 l 215 1154 m 389 1154 l 389 1029 l 293 1029 l 293 1154 l 389 1154 m 401 542 l 401 444 l 164 444 l 164 99 l 456 99 l 456 0 l 56 0 l 56 972 l 456 972 l 456 874 l 164 874 l 164 542 l 401 542 z "},"ж":{"ha":851,"x_min":25,"x_max":828,"o":"m 531 458 l 479 367 l 479 0 l 372 0 l 372 367 l 322 460 l 136 0 l 25 0 l 247 560 l 31 972 l 139 972 l 372 525 l 372 972 l 479 972 l 479 525 l 714 972 l 822 972 l 607 563 l 828 0 l 717 0 l 531 458 z "},"з":{"ha":538,"x_min":50,"x_max":488,"o":"m 268 982 q 434 915 381 982 q 488 738 488 849 l 488 713 q 458 585 488 638 q 368 511 428 533 q 459 438 431 490 q 488 311 488 385 l 488 235 q 434 57 488 124 q 268 -10 381 -10 q 103 57 157 -10 q 50 235 50 124 l 50 329 l 151 329 l 151 229 q 179 126 151 163 q 265 89 207 89 q 352 126 325 89 q 379 238 379 164 l 379 314 q 254 458 379 458 l 208 458 l 208 556 l 260 556 q 347 590 314 556 q 379 689 379 625 l 379 733 q 352 846 379 808 q 265 883 325 883 q 179 847 207 883 q 151 743 151 810 l 151 678 l 51 678 l 51 739 q 103 917 51 851 q 268 982 156 982 z "},"и":{"ha":568,"x_min":56,"x_max":514,"o":"m 311 449 l 168 0 l 56 0 l 56 972 l 151 972 l 151 247 l 238 515 l 393 972 l 514 972 l 514 0 l 417 0 l 417 774 l 311 449 z "},"й":{"ha":569,"x_min":56,"x_max":514,"o":"m 440 1171 q 401 1071 440 1107 q 290 1035 361 1035 q 181 1071 219 1035 q 140 1171 143 1107 l 208 1171 q 233 1115 211 1131 q 290 1100 256 1100 q 348 1115 325 1100 q 374 1171 371 1131 l 440 1171 m 319 468 l 168 0 l 56 0 l 56 972 l 151 972 l 151 247 l 242 528 l 393 972 l 514 972 l 514 0 l 417 0 l 417 774 l 319 468 z "},"к":{"ha":568,"x_min":56,"x_max":540,"o":"m 221 422 l 164 326 l 164 0 l 56 0 l 56 972 l 164 972 l 164 503 l 422 972 l 532 972 l 286 529 l 540 0 l 429 0 l 221 422 z "},"л":{"ha":617,"x_min":26,"x_max":557,"o":"m 263 874 l 240 242 q 228 139 238 183 q 196 63 218 94 q 137 15 174 32 q 44 -1 100 -1 l 26 -1 l 26 97 q 81 106 60 97 q 113 131 101 114 q 129 175 125 149 q 135 236 133 201 l 161 972 l 557 972 l 557 0 l 449 0 l 449 874 l 263 874 z "},"м":{"ha":726,"x_min":54,"x_max":671,"o":"m 414 1 l 310 1 l 149 775 l 149 0 l 54 0 l 54 972 l 206 972 l 365 196 l 519 972 l 671 972 l 671 0 l 568 0 l 568 782 l 414 1 z "},"н":{"ha":567,"x_min":56,"x_max":511,"o":"m 164 438 l 164 0 l 56 0 l 56 972 l 164 972 l 164 535 l 403 535 l 403 972 l 511 972 l 511 0 l 403 0 l 403 438 l 164 438 z "},"о":{"ha":540,"x_min":47,"x_max":493,"o":"m 47 738 q 102 916 47 850 q 269 982 157 982 q 438 916 382 982 q 493 738 493 850 l 493 235 q 438 57 493 124 q 269 -10 382 -10 q 102 57 157 -10 q 47 235 47 124 l 47 738 m 154 229 q 183 126 154 163 q 269 89 211 89 q 357 126 329 89 q 385 229 385 163 l 385 743 q 357 847 385 810 q 269 883 329 883 q 183 847 211 883 q 154 743 154 810 l 154 229 z "},"п":{"ha":567,"x_min":56,"x_max":511,"o":"m 164 874 l 164 0 l 56 0 l 56 972 l 511 972 l 511 0 l 403 0 l 403 874 l 164 874 z "},"р":{"ha":515,"x_min":56,"x_max":486,"o":"m 268 972 q 435 909 383 972 q 486 735 486 846 l 486 618 q 431 442 486 501 q 260 383 376 383 l 164 383 l 164 0 l 56 0 l 56 972 l 268 972 m 260 481 q 350 510 321 481 q 379 611 379 540 l 379 740 q 353 840 379 807 q 268 874 328 874 l 164 874 l 164 481 l 260 481 z "},"с":{"ha":528,"x_min":47,"x_max":485,"o":"m 265 982 q 431 915 378 982 q 485 738 485 849 l 485 650 l 382 650 l 382 743 q 355 847 382 810 q 268 883 328 883 q 182 847 210 883 q 154 743 154 810 l 154 229 q 182 126 154 163 q 268 89 210 89 q 355 126 328 89 q 382 229 382 163 l 382 356 l 485 356 l 485 235 q 431 57 485 124 q 265 -10 378 -10 q 101 57 154 -10 q 47 235 47 124 l 47 738 q 60 838 47 793 q 101 915 74 883 q 169 965 128 947 q 265 982 210 982 z "},"т":{"ha":517,"x_min":25,"x_max":492,"o":"m 204 0 l 204 874 l 25 874 l 25 972 l 492 972 l 492 874 l 313 874 l 313 0 l 204 0 z "},"у":{"ha":579,"x_min":25,"x_max":556,"o":"m 347 214 q 317 118 335 160 q 271 49 300 76 q 198 8 242 21 q 88 -1 154 -4 l 88 96 q 181 115 150 93 q 226 192 213 136 l 249 256 l 25 972 l 133 972 l 232 635 l 299 390 l 356 635 l 443 972 l 556 972 l 347 214 z "},"ф":{"ha":790,"x_min":47,"x_max":740,"o":"m 515 858 q 687 795 633 858 q 740 615 740 732 l 740 350 q 687 170 740 233 q 515 107 633 107 l 447 107 l 447 0 l 340 0 l 340 107 l 272 107 q 101 170 154 107 q 47 350 47 233 l 47 615 q 101 795 47 732 q 272 858 154 858 l 340 858 l 340 972 l 447 972 l 447 858 l 515 858 m 272 763 q 182 728 210 763 q 154 622 154 693 l 154 343 q 182 237 154 272 q 272 201 210 201 l 340 201 l 340 763 l 272 763 m 515 201 q 635 343 635 201 l 635 622 q 606 728 635 693 q 515 763 578 763 l 447 763 l 447 201 l 515 201 z "},"х":{"ha":604,"x_min":32,"x_max":572,"o":"m 297 419 l 135 0 l 32 0 l 228 501 l 44 972 l 157 972 l 307 583 l 458 972 l 560 972 l 378 501 l 572 0 l 458 0 l 297 419 z "},"ч":{"ha":557,"x_min":49,"x_max":500,"o":"m 393 431 q 326 374 367 393 q 242 354 286 354 q 156 372 193 354 q 96 420 119 389 q 60 494 72 451 q 49 585 49 536 l 49 972 l 157 972 l 157 593 q 188 492 157 531 q 276 453 218 453 q 393 567 376 453 l 393 972 l 500 972 l 500 0 l 393 0 l 393 431 z "},"ц":{"ha":632,"x_min":65,"x_max":594,"o":"m 489 -131 l 489 0 l 65 0 l 65 972 l 172 972 l 172 99 l 411 99 l 411 972 l 521 972 l 521 96 l 594 96 l 594 -131 l 489 -131 z "},"ш":{"ha":807,"x_min":56,"x_max":751,"o":"m 164 972 l 164 99 l 350 99 l 350 972 l 458 972 l 458 99 l 644 99 l 644 972 l 751 972 l 751 0 l 56 0 l 56 972 l 164 972 z "},"щ":{"ha":864,"x_min":56,"x_max":826,"o":"m 722 -131 l 722 0 l 56 0 l 56 972 l 164 972 l 164 99 l 350 99 l 350 972 l 457 972 l 457 99 l 644 99 l 644 972 l 751 972 l 751 96 l 826 96 l 826 -131 l 722 -131 z "},"ь":{"ha":529,"x_min":56,"x_max":486,"o":"m 260 589 q 431 530 376 589 q 486 354 486 471 l 486 238 q 434 63 486 126 q 268 0 382 0 l 56 0 l 56 972 l 164 972 l 164 589 l 260 589 m 268 99 q 353 132 328 99 q 379 232 379 165 l 379 361 q 350 462 379 432 q 260 492 321 492 l 164 492 l 164 99 l 268 99 z "},"ъ":{"ha":608,"x_min":14,"x_max":567,"o":"m 340 589 q 567 354 567 589 l 567 238 q 515 63 567 126 q 349 0 463 0 l 136 0 l 136 875 l 14 875 l 14 972 l 243 972 l 243 589 l 340 589 m 349 99 q 433 132 408 99 q 458 232 458 165 l 458 361 q 430 462 458 432 q 340 492 401 492 l 243 492 l 243 99 l 349 99 z "},"ы":{"ha":739,"x_min":56,"x_max":683,"o":"m 260 589 q 431 530 376 589 q 486 354 486 471 l 486 238 q 434 63 486 126 q 268 0 382 0 l 56 0 l 56 972 l 164 972 l 164 589 l 260 589 m 683 972 l 683 0 l 576 0 l 576 972 l 683 972 m 268 99 q 353 132 328 99 q 379 232 379 165 l 379 361 q 350 462 379 432 q 260 492 321 492 l 164 492 l 164 99 l 268 99 z "},"э":{"ha":528,"x_min":43,"x_max":479,"o":"m 261 982 q 358 965 317 982 q 426 915 399 947 q 466 838 453 883 q 479 738 479 793 l 479 235 q 426 57 479 124 q 261 -10 372 -10 q 97 57 150 -10 q 43 235 43 124 l 43 340 l 144 340 l 144 229 q 172 126 144 163 q 258 89 200 89 q 344 126 317 89 q 372 229 372 163 l 372 454 l 203 454 l 203 551 l 372 551 l 372 743 q 344 847 372 810 q 258 883 317 883 q 172 847 200 883 q 144 743 144 810 l 144 665 l 44 665 l 44 738 q 58 838 44 793 q 97 915 71 883 q 165 965 124 947 q 261 982 206 982 z "},"ю":{"ha":799,"x_min":56,"x_max":750,"o":"m 528 982 q 695 916 640 982 q 750 738 750 850 l 750 235 q 695 57 750 124 q 528 -10 640 -10 q 360 57 415 -10 q 304 235 304 124 l 304 438 l 164 438 l 164 0 l 56 0 l 56 972 l 164 972 l 164 535 l 304 535 l 304 738 q 360 916 304 850 q 528 982 415 982 m 528 883 q 440 847 468 883 q 413 743 413 810 l 413 229 q 440 126 413 163 q 528 89 468 89 q 615 126 586 89 q 643 229 643 163 l 643 743 q 615 847 643 810 q 528 883 586 883 z "},"я":{"ha":547,"x_min":38,"x_max":492,"o":"m 307 415 q 202 384 239 415 q 165 271 165 353 l 165 118 q 161 45 165 69 q 147 0 157 21 l 38 0 q 53 55 50 25 q 57 117 57 85 l 57 268 q 84 399 57 347 q 178 471 111 451 q 58 671 58 510 l 58 750 q 109 915 58 858 q 275 972 160 972 l 492 972 l 492 0 l 383 0 l 383 415 l 307 415 m 278 874 q 191 840 217 874 q 165 740 165 807 l 165 647 q 201 541 165 568 q 301 514 238 514 l 383 514 l 383 874 l 278 874 z "},"⁄":{"ha":228,"x_min":-110,"x_max":339,"o":"m 339 972 l -44 0 l -110 0 l 274 972 l 339 972 z "},"½":{"ha":832,"x_min":79,"x_max":786,"o":"m 164 865 q 79 840 129 844 l 79 892 q 151 917 129 893 q 185 972 172 940 l 233 972 l 233 356 l 164 356 l 164 865 m 610 972 l 226 0 l 161 0 l 544 972 l 610 972 m 647 625 q 753 582 719 625 q 786 468 786 539 q 771 384 786 421 q 733 315 756 347 q 683 255 710 283 q 632 199 656 226 q 592 140 608 171 q 576 74 576 110 l 576 64 l 779 64 l 779 0 l 507 0 l 507 53 q 522 140 507 103 q 561 209 538 178 q 612 268 585 240 q 663 326 639 296 q 701 389 686 356 q 717 467 717 422 q 644 561 717 561 q 591 537 608 561 q 574 471 574 513 l 574 418 l 507 418 l 507 467 q 540 581 507 538 q 647 625 574 625 z "},"⅓":{"ha":828,"x_min":79,"x_max":776,"o":"m 164 865 q 79 840 129 844 l 79 892 q 151 917 129 893 q 185 972 172 940 l 233 972 l 233 356 l 164 356 l 164 865 m 610 972 l 226 0 l 161 0 l 544 972 l 610 972 m 636 624 q 742 581 708 624 q 776 467 776 539 l 776 451 q 703 325 776 354 q 759 276 742 310 q 776 197 776 243 l 776 150 q 742 35 776 78 q 636 -7 708 -7 q 531 35 564 -7 q 497 150 497 78 l 497 192 l 564 192 l 564 144 q 581 81 564 104 q 635 57 599 57 q 706 151 706 57 l 706 199 q 629 289 706 289 l 592 289 l 592 353 l 632 353 q 687 375 667 353 q 706 438 707 397 l 706 465 q 635 560 706 560 q 581 536 599 560 q 564 472 564 513 l 564 440 l 497 440 l 497 467 q 531 581 497 539 q 636 624 564 624 z "},"⅔":{"ha":858,"x_min":57,"x_max":807,"o":"m 197 979 q 303 936 269 979 q 336 822 336 893 q 320 738 336 775 q 281 668 304 700 q 231 607 258 636 q 180 549 203 578 q 142 491 157 521 q 126 425 126 461 l 126 418 l 329 418 l 329 354 l 57 354 l 57 407 q 72 495 57 457 q 111 565 88 533 q 162 624 135 596 q 213 681 189 651 q 251 744 236 710 q 267 821 267 778 q 194 915 267 915 q 141 891 158 915 q 124 825 124 867 l 124 772 l 57 772 l 57 822 q 90 936 57 893 q 197 979 124 979 m 278 0 l 213 0 l 596 972 l 661 972 l 278 0 m 668 624 q 773 581 739 624 q 807 467 807 539 l 807 451 q 733 325 807 354 q 790 276 772 310 q 807 197 807 243 l 807 150 q 773 35 807 78 q 668 -7 739 -7 q 562 35 596 -7 q 528 150 528 78 l 528 192 l 594 192 l 594 144 q 612 81 594 104 q 665 57 629 57 q 736 151 736 57 l 736 199 q 660 289 736 289 l 622 289 l 622 353 l 663 353 q 717 375 697 353 q 736 438 738 397 l 736 465 q 665 560 736 560 q 612 536 629 560 q 594 472 594 513 l 594 440 l 528 440 l 528 467 q 562 581 528 539 q 668 624 596 624 z "},"¼":{"ha":801,"x_min":79,"x_max":764,"o":"m 164 865 q 79 840 129 844 l 79 892 q 151 917 129 893 q 185 972 172 940 l 233 972 l 233 356 l 164 356 l 164 865 m 254 0 l 189 0 l 572 972 l 638 972 l 254 0 m 717 0 l 647 0 l 647 122 l 449 122 l 449 188 l 639 617 l 717 617 l 717 188 l 764 188 l 764 122 l 717 122 l 717 0 m 647 188 l 647 482 l 513 188 l 647 188 z "},"¾":{"ha":836,"x_min":51,"x_max":799,"o":"m 192 979 q 297 937 263 979 q 331 822 331 894 l 331 807 q 258 681 331 710 q 314 632 297 665 q 331 553 331 599 l 331 506 q 297 391 331 433 q 192 349 263 349 q 85 391 119 349 q 51 506 51 433 l 51 547 l 118 547 l 118 500 q 135 436 118 460 q 189 413 153 413 q 261 507 261 413 l 261 554 q 185 644 261 644 l 147 644 l 147 708 l 188 708 q 241 731 221 708 q 261 793 261 753 l 261 821 q 189 915 261 915 q 135 892 153 915 q 118 828 118 868 l 118 796 l 51 796 l 51 822 q 85 937 51 894 q 192 979 119 979 m 617 972 l 682 972 l 299 0 l 233 0 l 617 972 m 682 122 l 483 122 l 483 188 l 674 617 l 751 617 l 751 188 l 799 188 l 799 122 l 751 122 l 751 0 l 682 0 l 682 122 m 547 188 l 682 188 l 682 482 l 547 188 z "},"⅛":{"ha":835,"x_min":79,"x_max":788,"o":"m 164 865 q 79 840 129 844 l 79 892 q 151 917 129 893 q 185 972 172 940 l 233 972 l 233 356 l 164 356 l 164 865 m 161 0 l 544 972 l 610 972 l 226 0 l 161 0 m 642 624 q 750 583 713 624 q 788 471 788 542 l 788 450 q 772 372 788 406 q 721 324 756 339 q 772 272 757 307 q 788 193 788 238 l 788 147 q 751 35 788 76 q 642 -7 714 -7 q 531 35 568 -7 q 494 147 494 76 l 494 193 q 510 272 494 238 q 563 324 526 307 q 510 372 526 339 q 494 450 494 406 l 494 471 q 532 583 494 542 q 642 624 569 624 m 642 560 q 585 538 606 560 q 565 468 565 517 l 565 439 q 642 353 565 353 q 698 374 678 353 q 718 439 718 394 l 718 468 q 698 538 718 517 q 642 560 678 560 m 642 289 q 565 201 565 289 l 565 149 q 642 57 565 57 q 718 149 718 57 l 718 201 q 642 289 718 289 z "},"⅜":{"ha":869,"x_min":51,"x_max":822,"o":"m 192 979 q 297 937 263 979 q 331 822 331 894 l 331 807 q 258 681 331 710 q 314 632 297 665 q 331 553 331 599 l 331 506 q 297 391 331 433 q 192 349 263 349 q 85 391 119 349 q 51 506 51 433 l 51 547 l 118 547 l 118 500 q 135 436 118 460 q 189 413 153 413 q 261 507 261 413 l 261 554 q 185 644 261 644 l 147 644 l 147 708 l 188 708 q 241 731 221 708 q 261 793 261 753 l 261 821 q 189 915 261 915 q 135 892 153 915 q 118 828 118 868 l 118 796 l 51 796 l 51 822 q 85 937 51 894 q 192 979 119 979 m 657 972 l 274 0 l 208 0 l 592 972 l 657 972 m 676 624 q 785 583 749 624 q 822 471 822 542 l 822 450 q 807 372 822 406 q 756 324 792 339 q 807 272 792 307 q 822 193 822 238 l 822 147 q 785 35 822 76 q 676 -7 749 -7 q 567 35 604 -7 q 531 147 531 76 l 531 193 q 546 272 531 238 q 597 324 561 307 q 546 372 561 339 q 531 450 531 406 l 531 471 q 567 583 531 542 q 676 624 604 624 m 676 560 q 620 538 640 560 q 600 468 600 517 l 600 439 q 676 353 600 353 q 733 374 713 353 q 753 439 753 394 l 753 468 q 733 538 753 517 q 676 560 713 560 m 676 289 q 600 201 600 289 l 600 149 q 676 57 600 57 q 753 149 753 57 l 753 201 q 676 289 753 289 z "},"⅝":{"ha":869,"x_min":53,"x_max":822,"o":"m 590 972 l 656 972 l 272 0 l 207 0 l 590 972 m 126 722 q 218 771 156 771 q 304 731 276 771 q 332 624 332 690 l 332 503 q 298 389 332 432 q 192 346 264 346 q 87 389 121 346 q 53 503 53 432 l 53 544 l 119 544 l 119 499 q 137 434 119 457 q 190 411 154 411 q 244 434 226 411 q 261 499 261 457 l 261 618 q 244 682 261 658 q 190 706 226 706 q 144 690 164 706 q 122 640 125 674 l 122 626 l 56 626 l 74 971 l 317 971 l 317 907 l 135 907 l 126 722 m 675 624 q 785 583 747 624 q 822 471 822 542 l 822 450 q 806 372 822 406 q 754 324 790 339 q 806 272 790 307 q 822 193 822 238 l 822 147 q 785 35 822 76 q 675 -7 749 -7 q 566 35 603 -7 q 529 147 529 76 l 529 193 q 544 272 529 238 q 596 324 560 307 q 545 372 561 339 q 529 450 529 406 l 529 471 q 567 583 529 542 q 675 624 604 624 m 675 560 q 619 538 639 560 q 599 468 599 517 l 599 439 q 675 353 599 353 q 731 374 711 353 q 751 439 751 394 l 751 468 q 731 538 751 517 q 675 560 711 560 m 675 289 q 599 201 599 289 l 599 149 q 675 57 599 57 q 751 149 751 57 l 751 201 q 675 289 751 289 z "},"⅞":{"ha":825,"x_min":51,"x_max":778,"o":"m 260 908 l 51 908 l 51 972 l 332 972 l 332 911 l 172 356 l 103 356 l 260 908 m 200 0 l 135 0 l 518 972 l 583 972 l 200 0 m 631 624 q 740 583 703 624 q 778 471 778 542 l 778 450 q 762 372 778 406 q 710 324 746 339 q 762 272 746 307 q 778 193 778 238 l 778 147 q 741 35 778 76 q 631 -7 704 -7 q 522 35 558 -7 q 485 147 485 76 l 485 193 q 500 272 485 238 q 551 324 515 307 q 500 372 515 339 q 485 450 485 406 l 485 471 q 522 583 485 542 q 631 624 558 624 m 631 560 q 574 538 594 560 q 554 468 554 517 l 554 439 q 631 353 554 353 q 687 374 667 353 q 707 439 707 394 l 707 468 q 687 538 707 517 q 631 560 667 560 m 631 289 q 554 201 554 289 l 554 149 q 631 57 554 57 q 707 149 707 57 l 707 201 q 631 289 707 289 z "},"₀":{"ha":385,"x_min":50,"x_max":335,"o":"m 50 376 q 85 491 50 449 q 192 533 119 533 q 299 491 264 533 q 335 376 335 449 l 335 60 q 299 -55 335 -12 q 192 -97 264 -97 q 85 -55 119 -97 q 50 60 50 -12 l 50 376 m 119 54 q 137 -10 119 14 q 192 -33 154 -33 q 247 -10 229 -33 q 264 54 264 14 l 264 382 q 247 446 264 422 q 192 469 229 469 q 137 446 154 469 q 119 382 119 422 l 119 54 z "},"₁":{"ha":263,"x_min":42,"x_max":196,"o":"m 126 419 q 42 394 92 399 l 42 446 q 113 471 92 447 q 147 526 135 494 l 196 526 l 196 -90 l 126 -90 l 126 419 z "},"₂":{"ha":382,"x_min":57,"x_max":336,"o":"m 197 535 q 303 492 269 535 q 336 378 336 449 q 320 293 336 331 q 281 223 304 256 q 230 162 257 190 q 179 105 203 133 q 140 46 156 76 q 126 -21 125 15 l 126 -26 l 329 -26 l 329 -90 l 57 -90 l 57 -37 q 72 50 57 13 q 111 119 88 88 q 162 178 135 150 q 213 235 189 206 q 251 299 236 265 q 267 376 267 332 q 194 471 267 471 q 141 447 158 471 q 124 381 124 422 l 124 328 l 57 328 l 57 376 q 90 491 57 447 q 197 535 124 535 z "},"₃":{"ha":382,"x_min":51,"x_max":331,"o":"m 192 533 q 297 491 263 533 q 331 376 331 449 l 331 361 q 258 235 331 264 q 313 186 296 219 q 331 107 331 153 l 331 60 q 297 -55 331 -12 q 192 -97 263 -97 q 85 -55 119 -97 q 51 60 51 -12 l 51 101 l 118 101 l 118 54 q 135 -10 118 14 q 189 -33 153 -33 q 261 61 261 -33 l 261 108 q 185 199 261 199 l 147 199 l 147 263 l 188 263 q 241 285 221 263 q 261 347 261 307 l 261 375 q 189 469 261 469 q 135 446 153 469 q 118 382 118 422 l 118 350 l 51 350 l 51 376 q 85 491 51 449 q 192 533 119 533 z "},"₄":{"ha":393,"x_min":40,"x_max":357,"o":"m 308 31 l 308 -93 l 239 -93 l 239 31 l 40 31 l 40 94 l 232 524 l 308 524 l 308 94 l 357 94 l 357 31 l 308 31 m 104 94 l 239 94 l 239 389 l 104 94 z "},"₅":{"ha":382,"x_min":53,"x_max":332,"o":"m 119 56 q 137 -9 119 14 q 190 -32 154 -32 q 244 -9 226 -32 q 261 56 261 14 l 261 175 q 244 239 261 215 q 190 263 226 263 q 144 247 164 263 q 122 197 125 231 l 122 183 l 56 183 l 74 528 l 317 528 l 317 464 l 135 464 l 126 278 q 218 326 156 326 q 304 287 276 326 q 332 181 332 247 l 332 58 q 298 -55 332 -12 q 192 -97 264 -97 q 87 -55 121 -97 q 53 58 53 -12 l 53 101 l 119 101 l 119 56 z "},"₆":{"ha":385,"x_min":51,"x_max":336,"o":"m 194 533 q 301 491 267 533 q 335 378 335 449 l 335 367 l 268 367 l 268 382 q 251 447 268 424 q 197 469 233 469 q 140 445 157 469 q 122 371 122 421 l 122 238 q 221 300 150 300 q 308 260 281 300 q 336 153 336 219 l 336 60 q 301 -54 336 -11 q 194 -97 267 -97 q 87 -54 122 -97 q 51 60 51 -11 l 51 374 q 85 490 51 447 q 194 533 119 533 m 194 236 q 140 213 157 236 q 122 147 122 189 l 122 54 q 140 -10 122 13 q 194 -33 157 -33 q 249 -10 231 -33 q 267 54 267 13 l 267 147 q 249 213 267 189 q 194 236 231 236 z "},"₇":{"ha":382,"x_min":51,"x_max":332,"o":"m 260 465 l 51 465 l 51 529 l 332 529 l 332 468 l 172 -87 l 103 -87 l 260 465 z "},"₈":{"ha":388,"x_min":47,"x_max":340,"o":"m 193 533 q 303 492 265 533 q 340 381 340 451 l 340 360 q 324 282 340 315 q 272 233 308 249 q 324 182 308 217 q 340 103 340 147 l 340 57 q 303 -56 340 -14 q 193 -97 267 -97 q 84 -56 121 -97 q 47 57 47 -14 l 47 103 q 63 182 47 147 q 114 233 78 217 q 63 282 79 249 q 47 360 47 315 l 47 381 q 85 492 47 451 q 193 533 122 533 m 193 469 q 137 448 157 469 q 117 378 117 426 l 117 349 q 193 263 117 263 q 249 283 229 263 q 269 349 269 304 l 269 378 q 249 448 269 426 q 193 469 229 469 m 193 199 q 117 111 117 199 l 117 58 q 193 -33 117 -33 q 269 58 269 -33 l 269 111 q 193 199 269 199 z "},"₉":{"ha":385,"x_min":49,"x_max":332,"o":"m 190 533 q 297 490 263 533 q 332 376 332 447 l 332 63 q 298 -54 332 -11 q 189 -97 264 -97 q 83 -55 118 -97 q 49 58 49 -12 l 49 69 l 115 69 l 115 54 q 133 -10 115 13 q 188 -33 151 -33 q 263 65 263 -33 l 263 199 q 163 136 235 136 q 76 176 104 136 q 49 283 49 217 l 49 376 q 83 490 49 447 q 190 533 118 533 m 190 469 q 136 447 154 469 q 118 382 118 424 l 118 289 q 136 224 118 247 q 190 200 154 200 q 244 224 226 200 q 263 289 263 247 l 263 382 q 244 447 263 424 q 190 469 226 469 z "},"⁰":{"ha":385,"x_min":50,"x_max":335,"o":"m 50 954 q 85 1069 50 1026 q 192 1111 119 1111 q 299 1069 264 1111 q 335 954 335 1026 l 335 638 q 299 523 335 565 q 192 481 264 481 q 85 523 119 481 q 50 638 50 565 l 50 954 m 119 632 q 137 568 119 592 q 192 544 154 544 q 247 568 229 544 q 264 632 264 592 l 264 960 q 247 1024 264 1000 q 192 1047 229 1047 q 137 1024 154 1047 q 119 960 119 1000 l 119 632 z "},"¹":{"ha":263,"x_min":42,"x_max":196,"o":"m 42 1024 q 113 1049 92 1025 q 147 1104 135 1072 l 196 1104 l 196 488 l 126 488 l 126 997 q 42 972 92 976 l 42 1024 z "},"²":{"ha":382,"x_min":57,"x_max":336,"o":"m 197 1113 q 303 1069 269 1113 q 336 956 336 1026 q 321 871 336 908 q 283 801 306 833 q 233 742 260 769 q 182 685 206 714 q 142 626 158 657 q 126 560 126 596 l 126 551 l 329 551 l 329 488 l 57 488 l 57 540 q 72 628 57 590 q 111 697 88 665 q 162 756 135 728 q 213 813 189 783 q 251 876 236 843 q 267 954 267 910 q 194 1049 267 1049 q 141 1024 158 1049 q 124 958 124 1000 l 124 906 l 57 906 l 57 954 q 90 1069 57 1025 q 197 1113 124 1113 z "},"³":{"ha":382,"x_min":51,"x_max":331,"o":"m 192 1111 q 297 1069 263 1111 q 331 954 331 1026 l 331 939 q 258 813 331 842 q 314 764 297 797 q 331 685 331 731 l 331 638 q 297 523 331 565 q 192 481 263 481 q 85 523 119 481 q 51 638 51 565 l 51 679 l 118 679 l 118 632 q 135 568 118 592 q 189 544 153 544 q 261 639 261 544 l 261 686 q 185 776 261 776 l 147 776 l 147 840 l 188 840 q 241 863 221 840 q 261 925 261 885 l 261 953 q 189 1047 261 1047 q 135 1024 153 1047 q 118 960 118 1000 l 118 928 l 51 928 l 51 954 q 85 1069 51 1026 q 192 1111 119 1111 z "},"⁴":{"ha":393,"x_min":40,"x_max":357,"o":"m 308 610 l 308 488 l 239 488 l 239 610 l 40 610 l 40 675 l 232 1104 l 308 1104 l 308 675 l 357 675 l 357 610 l 308 610 m 104 675 l 239 675 l 239 969 l 104 675 z "},"⁵":{"ha":382,"x_min":53,"x_max":332,"o":"m 119 631 q 137 566 119 589 q 190 543 154 543 q 244 566 226 543 q 261 631 261 589 l 261 750 q 244 814 261 790 q 190 838 226 838 q 144 822 164 838 q 122 772 125 806 l 122 758 l 56 758 l 74 1103 l 317 1103 l 317 1039 l 135 1039 l 126 854 q 218 903 156 903 q 304 863 276 903 q 332 756 332 822 l 332 635 q 298 521 332 564 q 192 478 264 478 q 87 521 121 478 q 53 635 53 564 l 53 676 l 119 676 l 119 631 z "},"⁶":{"ha":385,"x_min":51,"x_max":336,"o":"m 194 1111 q 301 1069 267 1111 q 335 956 335 1026 l 335 944 l 268 944 l 268 960 q 251 1024 268 1001 q 197 1047 233 1047 q 140 1023 157 1047 q 122 949 122 999 l 122 815 q 221 878 150 878 q 308 838 281 878 q 336 731 336 797 l 336 638 q 301 524 336 567 q 194 481 267 481 q 87 524 122 481 q 51 638 51 567 l 51 951 q 85 1068 51 1025 q 194 1111 119 1111 m 194 814 q 140 790 157 814 q 122 725 122 767 l 122 632 q 140 567 122 590 q 194 544 157 544 q 249 567 231 544 q 267 632 267 590 l 267 725 q 249 790 267 767 q 194 814 231 814 z "},"⁷":{"ha":382,"x_min":51,"x_max":332,"o":"m 260 1040 l 51 1040 l 51 1104 l 332 1104 l 332 1043 l 172 488 l 103 488 l 260 1040 z "},"⁸":{"ha":388,"x_min":47,"x_max":340,"o":"m 193 1111 q 303 1070 265 1111 q 340 958 340 1029 l 340 938 q 324 860 340 893 q 272 811 308 826 q 324 760 308 794 q 340 681 340 725 l 340 635 q 303 522 340 564 q 193 481 267 481 q 84 522 121 481 q 47 635 47 564 l 47 681 q 63 760 47 725 q 114 811 78 794 q 63 860 79 826 q 47 938 47 893 l 47 958 q 85 1070 47 1029 q 193 1111 122 1111 m 193 1047 q 137 1026 157 1047 q 117 956 117 1004 l 117 926 q 193 840 117 840 q 249 861 229 840 q 269 926 269 882 l 269 956 q 249 1026 269 1004 q 193 1047 229 1047 m 193 776 q 117 689 117 776 l 117 636 q 193 544 117 544 q 269 636 269 544 l 269 689 q 193 776 269 776 z "},"⁹":{"ha":385,"x_min":49,"x_max":332,"o":"m 190 1111 q 297 1068 263 1111 q 332 954 332 1025 l 332 640 q 298 524 332 567 q 189 481 264 481 q 83 523 118 481 q 49 636 49 565 l 49 647 l 115 647 l 115 632 q 133 567 115 590 q 188 544 151 544 q 263 643 263 544 l 263 776 q 163 714 235 714 q 76 754 104 714 q 49 861 49 794 l 49 954 q 83 1068 49 1025 q 190 1111 118 1111 m 190 1047 q 136 1024 154 1047 q 118 960 118 1001 l 118 867 q 136 801 118 825 q 190 778 154 778 q 244 801 226 778 q 263 867 263 825 l 263 960 q 244 1024 263 1001 q 190 1047 226 1047 z "},"*":{"ha":549,"x_min":25,"x_max":524,"o":"m 307 708 l 454 546 l 383 493 l 274 686 l 165 493 l 94 546 l 240 708 l 25 753 l 51 838 l 254 749 l 229 968 l 318 968 l 294 749 l 497 836 l 524 751 l 307 708 z "},"\\":{"ha":522,"x_min":22,"x_max":500,"o":"m 117 972 l 500 0 l 406 0 l 22 972 l 117 972 z "},"•":{"ha":456,"x_min":82,"x_max":374,"o":"m 228 632 q 285 620 258 632 q 331 589 311 608 q 362 543 350 569 q 374 486 374 517 q 362 429 374 456 q 331 383 350 403 q 285 351 311 363 q 228 340 258 340 q 171 351 197 340 q 124 383 144 363 q 93 429 104 403 q 82 486 82 456 q 93 543 82 517 q 124 589 104 569 q 171 620 144 608 q 228 632 197 632 z "},":":{"ha":215,"x_min":56,"x_max":160,"o":"m 160 664 l 160 529 l 56 529 l 56 664 l 160 664 m 160 135 l 160 0 l 56 0 l 56 135 l 160 135 z "},",":{"ha":222,"x_min":63,"x_max":167,"o":"m 103 0 l 63 0 l 63 135 l 167 135 l 167 10 l 113 -122 l 68 -122 l 103 0 z "},"…":{"ha":526,"x_min":56,"x_max":471,"o":"m 160 135 l 160 0 l 56 0 l 56 135 l 160 135 m 315 135 l 315 0 l 211 0 l 211 135 l 315 135 m 471 135 l 471 0 l 367 0 l 367 135 l 471 135 z "},"!":{"ha":219,"x_min":56,"x_max":164,"o":"m 56 515 l 56 972 l 164 972 l 164 515 l 150 215 l 69 215 l 56 515 m 161 135 l 161 0 l 57 0 l 57 135 l 161 135 z "},"¡":{"ha":219,"x_min":56,"x_max":164,"o":"m 161 972 l 161 839 l 57 839 l 57 972 l 161 972 m 56 429 l 69 757 l 150 757 l 164 429 l 164 0 l 56 0 l 56 429 z "},"#":{"ha":572,"x_min":32,"x_max":540,"o":"m 454 656 l 425 371 l 503 371 l 494 293 l 417 293 l 386 0 l 297 0 l 328 293 l 201 293 l 169 0 l 81 0 l 113 293 l 32 293 l 40 371 l 119 371 l 150 656 l 68 656 l 76 733 l 157 733 l 182 972 l 271 972 l 246 733 l 374 733 l 399 972 l 488 972 l 463 733 l 540 733 l 532 656 l 454 656 m 365 656 l 239 656 l 208 371 l 336 371 l 365 656 z "},".":{"ha":215,"x_min":56,"x_max":160,"o":"m 160 135 l 160 0 l 56 0 l 56 135 l 160 135 z "},"·":{"ha":215,"x_min":56,"x_max":160,"o":"m 160 560 l 160 425 l 56 425 l 56 560 l 160 560 z "},"?":{"ha":501,"x_min":38,"x_max":469,"o":"m 253 982 q 417 915 365 982 q 469 736 469 849 q 455 633 469 678 q 419 552 440 589 q 373 484 399 515 q 326 421 347 453 q 291 352 306 389 q 276 269 276 315 q 283 217 276 244 l 186 217 q 181 242 183 229 q 179 272 179 256 q 192 365 179 325 q 226 439 206 406 q 270 503 247 472 q 314 567 293 533 q 348 643 335 601 q 361 742 361 685 q 335 847 361 808 q 250 885 310 885 q 165 846 190 885 q 139 742 139 807 l 139 656 l 38 656 l 38 735 q 50 835 38 790 q 89 913 63 881 q 156 964 115 946 q 253 982 197 982 m 285 135 l 285 0 l 182 0 l 182 135 l 285 135 z "},"¿":{"ha":501,"x_min":33,"x_max":465,"o":"m 321 972 l 321 838 l 217 838 l 217 972 l 321 972 m 315 756 q 324 700 324 731 q 310 607 324 647 q 276 533 296 567 q 232 469 256 500 q 188 405 208 439 q 153 328 167 371 q 140 231 140 286 q 166 126 140 164 q 251 88 192 88 q 337 126 311 88 q 363 231 363 165 l 363 317 l 465 317 l 465 238 q 413 58 465 126 q 249 -10 361 -10 q 85 57 136 -10 q 33 236 33 124 q 47 339 33 294 q 83 420 61 383 q 129 488 104 457 q 176 551 154 519 q 211 619 197 583 q 225 703 225 656 q 219 756 225 733 l 315 756 z "},"\"":{"ha":368,"x_min":56,"x_max":313,"o":"m 160 972 l 144 710 l 69 710 l 56 972 l 160 972 m 313 972 l 297 710 l 222 710 l 208 972 l 313 972 z "},"'":{"ha":210,"x_min":53,"x_max":157,"o":"m 157 972 l 142 710 l 67 710 l 53 972 l 157 972 z "},";":{"ha":222,"x_min":63,"x_max":167,"o":"m 167 664 l 167 529 l 63 529 l 63 664 l 167 664 m 103 0 l 63 0 l 63 135 l 167 135 l 167 10 l 113 -122 l 68 -122 l 103 0 z "},"/":{"ha":522,"x_min":22,"x_max":500,"o":"m 500 972 l 117 0 l 22 0 l 406 972 l 500 972 z "},"_":{"ha":704,"x_min":18,"x_max":681,"o":"m 681 -14 l 681 -93 l 18 -93 l 18 -14 l 681 -14 z "},"{":{"ha":357,"x_min":28,"x_max":324,"o":"m 297 883 q 237 858 253 883 q 218 776 221 832 l 210 619 q 205 576 208 597 q 192 538 201 556 q 165 507 182 521 q 119 486 147 493 q 165 465 147 479 q 192 434 182 451 q 205 396 201 417 q 210 353 208 375 l 218 196 q 237 115 221 140 q 297 89 253 89 l 324 89 l 324 0 l 260 0 q 160 39 193 0 q 121 149 126 78 l 111 338 q 94 413 108 389 q 28 440 79 436 l 28 532 q 94 560 79 536 q 111 635 108 583 l 121 824 q 160 933 126 894 q 260 972 193 972 l 324 972 l 324 883 l 297 883 z "},"}":{"ha":357,"x_min":33,"x_max":328,"o":"m 97 972 q 197 933 163 972 q 235 824 231 894 l 246 635 q 251 591 247 610 q 263 560 254 572 q 287 540 271 547 q 328 532 303 533 l 328 440 q 287 431 303 438 q 263 413 271 425 q 251 381 254 400 q 246 338 247 363 l 235 149 q 197 39 231 78 q 97 0 163 0 l 33 0 l 33 89 l 60 89 q 120 115 104 89 q 139 196 136 140 l 147 353 q 152 396 149 375 q 165 434 156 417 q 192 465 175 451 q 238 486 210 479 q 192 507 210 493 q 165 538 175 521 q 152 576 156 556 q 147 619 149 597 l 139 776 q 120 858 136 832 q 60 883 104 883 l 33 883 l 33 972 l 97 972 z "},"[":{"ha":336,"x_min":63,"x_max":297,"o":"m 297 89 l 297 0 l 63 0 l 63 972 l 297 972 l 297 883 l 169 883 l 169 89 l 297 89 z "},"]":{"ha":336,"x_min":39,"x_max":274,"o":"m 165 89 l 165 883 l 39 883 l 39 972 l 274 972 l 274 0 l 39 0 l 39 89 l 165 89 z "},"(":{"ha":335,"x_min":63,"x_max":301,"o":"m 269 883 q 191 853 213 883 q 169 758 169 822 l 169 214 q 190 119 169 150 q 269 89 211 89 l 301 89 l 301 0 l 263 0 q 107 52 151 0 q 63 214 63 104 l 63 758 q 107 920 63 868 q 263 972 151 972 l 301 972 l 301 883 l 269 883 z "},")":{"ha":335,"x_min":33,"x_max":272,"o":"m 72 972 q 228 920 183 972 q 272 758 272 868 l 272 214 q 228 52 272 104 q 72 0 183 0 l 33 0 l 33 89 l 65 89 q 144 119 124 89 q 165 214 165 150 l 165 758 q 144 853 165 822 q 65 883 122 883 l 33 883 l 33 972 l 72 972 z "},"—":{"ha":1157,"x_min":18,"x_max":1139,"o":"m 18 531 l 1139 531 l 1139 442 l 18 442 l 18 531 z "},"–":{"ha":636,"x_min":18,"x_max":618,"o":"m 18 531 l 618 531 l 618 442 l 18 442 l 18 531 z "},"‒":{"ha":590,"x_min":18,"x_max":572,"o":"m 18 531 l 572 531 l 572 442 l 18 442 l 18 531 z "},"-":{"ha":368,"x_min":51,"x_max":317,"o":"m 51 535 l 317 535 l 317 438 l 51 438 l 51 535 z "},"­":{"ha":368,"x_min":51,"x_max":317,"o":"m 51 535 l 317 535 l 317 438 l 51 438 l 51 535 z "},"«":{"ha":444,"x_min":33,"x_max":411,"o":"m 33 488 l 121 836 l 219 836 l 132 488 l 219 125 l 121 125 l 33 488 m 225 488 l 314 836 l 411 836 l 324 488 l 411 125 l 314 125 l 225 488 z "},"»":{"ha":444,"x_min":33,"x_max":411,"o":"m 121 488 l 33 836 l 131 836 l 219 488 l 131 125 l 33 125 l 121 488 m 313 488 l 225 836 l 322 836 l 411 488 l 322 125 l 225 125 l 313 488 z "},"‹":{"ha":254,"x_min":33,"x_max":222,"o":"m 33 488 l 119 844 l 222 844 l 136 488 l 222 115 l 119 115 l 33 488 z "},"›":{"ha":254,"x_min":33,"x_max":222,"o":"m 118 488 l 33 844 l 135 844 l 222 488 l 135 117 l 33 117 l 118 488 z "},"„":{"ha":381,"x_min":63,"x_max":325,"o":"m 113 -122 l 68 -122 l 103 0 l 63 0 l 63 135 l 167 135 l 167 10 l 113 -122 m 272 -122 l 226 -122 l 261 0 l 221 0 l 221 135 l 325 135 l 325 10 l 272 -122 z "},"“":{"ha":376,"x_min":56,"x_max":314,"o":"m 108 972 l 154 972 l 119 850 l 160 850 l 160 715 l 56 715 l 56 840 l 108 972 m 264 972 l 308 972 l 275 850 l 314 850 l 314 715 l 211 715 l 211 840 l 264 972 z "},"”":{"ha":376,"x_min":56,"x_max":314,"o":"m 106 715 l 61 715 l 94 838 l 56 838 l 56 972 l 158 972 l 158 847 l 106 715 m 261 715 l 215 715 l 250 838 l 210 838 l 210 972 l 314 972 l 314 847 l 261 715 z "},"‘":{"ha":222,"x_min":56,"x_max":160,"o":"m 108 972 l 154 972 l 119 850 l 160 850 l 160 715 l 56 715 l 56 840 l 108 972 z "},"’":{"ha":222,"x_min":63,"x_max":167,"o":"m 113 715 l 68 715 l 103 838 l 63 838 l 63 972 l 167 972 l 167 849 l 113 715 z "},"‚":{"ha":222,"x_min":63,"x_max":167,"o":"m 113 -122 l 68 -122 l 103 0 l 63 0 l 63 135 l 167 135 l 167 10 l 113 -122 z "},"Ă":{"ha":586,"x_min":28,"x_max":557,"o":"m 436 1158 q 397 1056 436 1093 q 290 1018 358 1018 q 185 1056 222 1018 q 147 1158 149 1093 l 213 1158 q 237 1102 215 1118 q 290 1086 258 1086 q 346 1102 324 1086 q 371 1158 368 1118 l 436 1158 m 165 196 l 128 0 l 28 0 l 214 972 l 371 972 l 557 0 l 449 0 l 411 196 l 165 196 m 179 289 l 396 289 l 286 850 l 179 289 z "}," ":{"ha":215,"x_min":0,"x_max":0,"o":""},"€":{"ha":551,"x_min":18,"x_max":507,"o":"m 79 738 q 92 838 79 793 q 131 915 104 883 q 197 965 157 947 q 293 982 238 982 q 389 965 349 982 q 456 915 429 947 q 494 838 482 883 q 507 738 507 793 l 507 675 l 406 675 l 406 743 q 380 846 406 808 q 296 883 354 883 q 212 846 238 883 q 186 743 186 808 l 186 593 l 428 593 l 428 538 l 186 538 l 186 442 l 428 442 l 428 385 l 186 385 l 186 229 q 212 126 186 164 q 296 89 238 89 q 380 126 354 89 q 406 229 406 164 l 406 304 l 507 304 l 507 235 q 456 58 507 125 q 293 -10 404 -10 q 131 58 182 -10 q 79 235 79 125 l 79 385 l 18 385 l 18 442 l 79 442 l 79 538 l 18 538 l 18 593 l 79 593 l 79 738 z "},"¢":{"ha":538,"x_min":51,"x_max":489,"o":"m 313 918 q 447 844 404 907 q 489 681 489 781 l 489 625 l 388 625 l 388 686 q 360 788 388 753 q 274 824 332 824 q 187 787 214 824 q 160 683 160 750 l 160 289 q 187 187 160 224 q 274 150 214 150 q 360 186 332 150 q 388 289 388 222 l 388 382 l 489 382 l 489 296 q 447 131 489 196 q 313 56 404 67 l 313 -14 l 224 -14 l 224 56 q 93 133 135 68 q 51 296 51 197 l 51 676 q 93 840 51 775 q 224 917 135 904 l 224 986 l 313 986 l 313 918 z "},"¤":{"ha":517,"x_min":49,"x_max":469,"o":"m 397 581 q 428 486 428 539 q 397 390 428 432 l 469 319 l 425 276 l 354 346 q 310 324 335 332 q 258 317 285 317 q 163 346 207 317 l 92 276 l 49 319 l 119 390 q 89 486 89 432 q 119 581 89 542 l 49 653 l 92 696 l 164 625 q 258 656 206 656 q 354 625 311 656 l 425 696 l 469 653 l 397 581 m 258 589 q 185 559 215 589 q 156 486 156 529 q 185 413 156 443 q 258 383 215 383 q 332 413 301 383 q 363 486 363 443 q 332 559 363 529 q 258 589 301 589 z "},"$":{"ha":538,"x_min":50,"x_max":488,"o":"m 314 968 q 444 892 403 956 q 486 729 486 828 l 486 703 l 385 703 l 385 736 q 358 838 385 801 q 272 875 331 875 q 188 838 214 875 q 161 736 161 801 q 185 643 161 682 q 246 572 210 604 q 324 510 282 540 q 403 444 367 481 q 463 359 439 407 q 488 243 488 311 q 445 80 488 144 q 314 3 403 15 l 314 -71 l 225 -71 l 225 3 q 92 79 133 15 q 50 243 50 143 l 50 303 l 151 303 l 151 236 q 179 134 151 169 q 265 99 207 99 q 352 134 325 99 q 379 236 379 169 q 355 329 379 290 q 294 400 331 368 q 217 462 258 432 q 139 528 175 492 q 78 613 103 565 q 54 729 54 661 q 96 892 54 829 q 225 968 138 954 l 225 1046 l 314 1046 l 314 968 z "},"£":{"ha":543,"x_min":46,"x_max":493,"o":"m 278 982 q 374 964 333 982 q 442 913 415 946 q 481 835 468 881 q 493 735 493 790 l 493 657 l 390 657 l 390 740 q 365 845 390 807 q 281 883 340 883 q 195 846 221 883 q 169 742 169 808 q 181 632 169 678 q 209 549 193 586 q 242 476 225 511 q 271 397 260 440 l 457 397 l 457 313 l 278 313 q 257 205 279 256 q 182 99 235 154 l 489 99 l 489 0 l 46 0 l 46 94 q 99 126 74 106 q 144 174 125 146 q 173 236 163 201 q 181 313 183 271 l 65 313 l 65 397 l 167 397 q 136 472 154 438 q 101 544 118 507 q 73 628 85 582 q 61 736 61 674 q 113 915 61 849 q 278 982 165 982 z "},"₹":{"ha":539,"x_min":43,"x_max":496,"o":"m 340 888 q 392 827 376 865 q 411 746 408 789 l 496 746 l 496 661 l 411 661 q 343 506 404 564 q 182 449 282 449 l 158 449 l 494 0 l 378 0 l 43 449 l 43 532 l 154 532 q 268 565 232 532 q 306 661 304 597 l 44 661 l 44 746 l 306 746 q 267 851 306 815 q 154 888 229 888 l 44 888 l 44 972 l 496 972 l 496 888 l 340 888 z "},"¥":{"ha":575,"x_min":25,"x_max":550,"o":"m 342 322 l 342 240 l 481 240 l 481 185 l 342 185 l 342 0 l 233 0 l 233 185 l 94 185 l 94 240 l 233 240 l 233 322 l 94 322 l 94 379 l 225 379 l 25 972 l 138 972 l 292 497 l 447 972 l 550 972 l 349 379 l 481 379 l 481 322 l 342 322 z "},"≈":{"ha":550,"x_min":25,"x_max":525,"o":"m 174 683 q 231 669 203 683 q 284 640 258 656 q 335 610 310 624 q 383 597 360 597 q 428 617 410 599 q 472 675 446 636 l 525 622 q 453 540 486 563 q 382 515 421 517 q 326 528 353 515 q 274 558 300 542 q 224 587 249 574 q 174 600 199 600 q 126 582 146 600 q 78 524 106 564 l 25 572 q 100 658 65 633 q 174 683 135 682 m 174 456 q 231 442 203 456 q 284 413 258 429 q 335 384 310 397 q 383 371 360 371 q 428 390 410 371 q 472 447 446 410 l 525 396 q 453 313 486 336 q 382 289 421 289 q 326 302 353 289 q 274 331 300 315 q 224 360 249 347 q 174 374 199 374 q 126 355 146 374 q 78 297 106 336 l 25 346 q 100 431 65 407 q 174 456 135 456 z "},"~":{"ha":550,"x_min":25,"x_max":525,"o":"m 174 569 q 231 556 203 569 q 284 527 258 543 q 334 498 310 511 q 382 485 358 485 q 427 503 408 485 q 472 561 446 522 l 525 508 q 453 426 486 449 q 382 401 421 403 q 326 415 353 401 q 273 444 299 428 q 223 474 247 460 q 174 488 199 488 q 126 469 146 488 q 78 410 106 450 l 25 460 q 99 545 65 521 q 174 569 133 569 z "},"÷":{"ha":486,"x_min":42,"x_max":444,"o":"m 294 732 l 294 597 l 190 597 l 190 732 l 294 732 m 444 525 l 444 447 l 42 447 l 42 525 l 444 525 m 294 375 l 294 240 l 190 240 l 190 375 l 294 375 z "},"=":{"ha":486,"x_min":51,"x_max":435,"o":"m 435 633 l 435 556 l 51 556 l 51 633 l 435 633 m 435 436 l 435 358 l 51 358 l 51 436 l 435 436 z "},">":{"ha":532,"x_min":56,"x_max":486,"o":"m 56 350 l 385 486 l 56 622 l 56 701 l 486 525 l 486 447 l 56 271 l 56 350 z "},"∞":{"ha":810,"x_min":54,"x_max":764,"o":"m 581 671 q 715 627 667 671 q 764 497 764 583 q 715 368 764 411 q 581 325 667 325 l 563 325 q 468 343 507 325 q 411 401 429 361 q 351 342 392 358 q 256 325 310 325 l 239 325 q 103 368 153 325 q 54 497 54 411 q 103 627 54 583 q 239 671 153 671 l 256 671 q 351 653 310 671 q 411 593 392 636 q 468 653 429 635 q 563 671 507 671 l 581 671 m 240 596 q 156 569 181 596 q 131 497 131 542 q 156 427 131 453 q 240 400 181 401 l 265 400 q 347 426 321 400 q 374 497 374 451 q 347 569 374 543 q 265 596 321 596 l 240 596 m 551 596 q 467 569 490 596 q 444 497 444 542 q 467 427 444 453 q 551 400 490 401 l 576 400 q 660 426 632 400 q 688 497 688 451 q 660 569 688 543 q 576 596 632 596 l 551 596 z "},"<":{"ha":532,"x_min":46,"x_max":476,"o":"m 476 271 l 46 447 l 46 525 l 476 701 l 476 622 l 147 486 l 476 350 l 476 271 z "},"¬":{"ha":539,"x_min":42,"x_max":497,"o":"m 42 447 l 42 525 l 497 525 l 497 260 l 419 260 l 419 447 l 42 447 z "},"−":{"ha":544,"x_min":42,"x_max":503,"o":"m 503 525 l 503 447 l 42 447 l 42 525 l 503 525 z "},"×":{"ha":508,"x_min":54,"x_max":454,"o":"m 401 286 l 254 433 l 107 286 l 54 339 l 200 486 l 54 632 l 107 685 l 254 539 l 401 685 l 454 632 l 307 486 l 454 339 l 401 286 z "},"%":{"ha":856,"x_min":50,"x_max":806,"o":"m 189 978 q 294 935 260 978 q 328 821 328 892 l 328 514 q 294 400 328 443 q 189 357 260 357 q 84 400 118 357 q 50 514 50 443 l 50 821 q 84 935 50 892 q 189 978 118 978 m 649 972 l 265 0 l 200 0 l 583 972 l 649 972 m 189 914 q 135 890 151 914 q 119 825 119 865 l 119 508 q 135 444 119 468 q 189 421 151 421 q 242 444 225 421 q 258 508 258 468 l 258 825 q 242 890 258 865 q 189 914 225 914 m 667 614 q 772 572 739 614 q 806 458 806 529 l 806 153 q 772 39 806 82 q 667 -4 739 -4 q 562 39 596 -4 q 528 153 528 82 l 528 458 q 562 572 528 529 q 667 614 596 614 m 667 550 q 614 526 631 550 q 597 463 597 503 l 597 147 q 614 83 597 107 q 667 58 631 58 q 719 83 703 58 q 736 147 736 107 l 736 463 q 719 526 736 503 q 667 550 703 550 z "},"‰":{"ha":1204,"x_min":50,"x_max":1154,"o":"m 189 978 q 294 935 260 978 q 328 821 328 892 l 328 514 q 294 400 328 443 q 189 357 260 357 q 84 400 118 357 q 50 514 50 443 l 50 821 q 84 935 50 892 q 189 978 118 978 m 649 972 l 265 0 l 200 0 l 583 972 l 649 972 m 189 914 q 135 890 151 914 q 119 825 119 865 l 119 508 q 135 444 119 468 q 189 421 151 421 q 242 444 225 421 q 258 508 258 468 l 258 825 q 242 890 258 865 q 189 914 225 914 m 667 614 q 772 572 739 614 q 806 458 806 529 l 806 153 q 772 39 806 82 q 667 -4 739 -4 q 562 39 596 -4 q 528 153 528 82 l 528 458 q 562 572 528 529 q 667 614 596 614 m 1015 614 q 1121 572 1088 614 q 1154 458 1154 529 l 1154 153 q 1121 39 1154 82 q 1015 -4 1088 -4 q 910 39 944 -4 q 876 153 876 82 l 876 458 q 910 572 876 529 q 1015 614 944 614 m 667 550 q 614 526 631 550 q 597 463 597 503 l 597 147 q 614 83 597 107 q 667 58 631 58 q 719 83 703 58 q 736 147 736 107 l 736 463 q 719 526 736 503 q 667 550 703 550 m 1015 550 q 963 526 979 550 q 947 463 947 503 l 947 147 q 963 83 947 107 q 1015 58 979 58 q 1068 83 1051 58 q 1085 147 1085 107 l 1085 463 q 1068 526 1085 503 q 1015 550 1051 550 z "},"+":{"ha":544,"x_min":42,"x_max":503,"o":"m 311 447 l 311 251 l 233 251 l 233 447 l 42 447 l 42 525 l 233 525 l 233 718 l 311 718 l 311 525 l 503 525 l 503 447 l 311 447 z "},"±":{"ha":544,"x_min":51,"x_max":493,"o":"m 233 329 l 233 467 l 51 467 l 51 544 l 233 544 l 233 718 l 311 718 l 311 544 l 493 544 l 493 467 l 311 467 l 311 329 l 493 329 l 493 251 l 51 251 l 51 329 l 233 329 z "},"µ":{"ha":553,"x_min":54,"x_max":496,"o":"m 397 100 q 340 20 378 50 q 257 -10 303 -10 q 197 8 221 -10 q 163 54 174 26 l 163 -128 l 54 -128 l 54 694 l 163 694 l 163 231 q 190 127 163 164 q 275 90 217 90 q 360 127 333 90 q 388 231 388 164 l 388 694 l 496 694 l 496 0 l 397 0 l 397 100 z "},"&":{"ha":567,"x_min":57,"x_max":540,"o":"m 289 874 q 195 840 226 874 q 164 736 164 807 l 164 688 q 194 592 164 625 q 276 556 224 558 l 386 556 l 386 664 l 493 664 l 493 556 l 540 556 l 540 458 l 493 458 l 493 124 q 496 58 493 88 q 514 0 499 28 l 404 0 q 392 35 396 18 q 386 85 388 53 q 326 14 365 38 q 233 -10 286 -10 q 99 50 142 -10 q 57 214 57 110 l 57 308 q 84 434 57 381 q 172 511 111 488 q 85 584 113 532 q 57 710 57 636 l 57 732 q 113 910 57 849 q 286 972 169 972 l 443 972 l 443 874 l 289 874 m 285 458 q 164 311 164 454 l 164 222 q 192 123 164 157 q 276 89 219 89 q 353 116 324 89 q 386 200 383 143 l 386 458 l 285 458 z "},"^":{"ha":560,"x_min":38,"x_max":522,"o":"m 125 542 l 38 542 l 240 972 l 319 972 l 522 542 l 435 542 l 279 874 l 125 542 z "},"@":{"ha":957,"x_min":40,"x_max":922,"o":"m 543 1021 q 720 990 647 1021 q 838 906 793 960 q 902 780 882 853 q 922 621 922 707 q 901 438 922 518 q 844 301 879 357 q 763 217 808 246 q 668 188 717 188 q 558 282 565 188 q 502 211 538 236 q 415 188 467 186 q 308 248 338 189 q 288 400 278 307 l 303 539 q 355 690 313 635 q 475 742 397 744 q 552 718 522 742 q 594 650 582 694 l 604 736 l 699 736 l 657 338 q 663 296 654 314 q 697 278 671 278 q 765 312 738 278 q 808 397 792 346 q 832 507 825 447 q 839 618 839 567 q 822 749 839 690 q 767 850 804 808 q 674 914 731 892 q 540 936 618 936 q 360 895 436 936 q 233 782 283 854 q 158 610 182 710 q 133 394 133 511 q 154 233 133 304 q 218 112 175 161 q 328 36 261 63 q 485 10 394 10 q 625 28 558 10 q 758 97 692 46 l 750 1 q 619 -58 686 -43 q 479 -74 553 -74 q 281 -40 364 -74 q 145 56 199 -6 q 66 206 92 118 q 40 400 40 293 q 70 636 40 524 q 163 834 100 749 q 319 970 225 919 q 543 1021 414 1021 m 503 647 q 428 617 454 649 q 396 529 403 586 l 383 404 q 395 315 376 350 q 463 279 414 281 q 537 312 511 278 q 569 403 563 346 l 583 536 q 569 616 589 585 q 503 647 549 647 z "},"|":{"ha":518,"x_min":219,"x_max":308,"o":"m 308 1033 l 308 -61 l 219 -61 l 219 1033 l 308 1033 z "},"¦":{"ha":519,"x_min":219,"x_max":308,"o":"m 219 1033 l 308 1033 l 308 569 l 219 569 l 219 1033 m 219 403 l 308 403 l 308 -61 l 219 -61 l 219 403 z "},"©":{"ha":1031,"x_min":38,"x_max":993,"o":"m 515 978 q 706 941 618 978 q 857 838 793 904 q 957 682 921 772 q 993 486 993 592 q 957 290 993 379 q 857 134 921 200 q 706 31 793 68 q 515 -6 618 -6 q 325 31 413 -6 q 174 134 238 68 q 74 290 110 200 q 38 486 38 379 q 74 682 38 592 q 174 838 110 772 q 325 941 238 904 q 515 978 413 978 m 515 908 q 353 876 428 908 q 224 788 278 844 q 139 654 169 732 q 108 486 108 576 q 139 318 108 396 q 224 184 169 240 q 353 96 278 128 q 515 64 428 64 q 678 96 603 64 q 807 184 753 128 q 892 318 861 240 q 922 486 922 396 q 892 654 922 576 q 807 788 861 732 q 678 876 753 844 q 515 908 603 908 m 510 792 q 624 745 588 792 q 661 619 661 699 l 661 578 l 589 578 l 589 625 q 570 695 589 669 q 511 721 551 721 q 452 695 471 721 q 433 625 433 669 l 433 347 q 452 277 433 303 q 511 251 471 251 q 570 277 551 251 q 589 347 589 303 l 589 415 l 661 415 l 661 351 q 624 227 661 274 q 510 181 588 181 q 394 227 431 181 q 358 351 358 274 l 358 619 q 394 745 358 699 q 510 792 431 792 z "},"†":{"ha":547,"x_min":42,"x_max":507,"o":"m 318 713 l 507 713 l 507 628 l 318 628 l 318 -90 l 229 -90 l 229 628 l 42 628 l 42 713 l 229 713 l 229 972 l 318 972 l 318 713 z "},"‡":{"ha":547,"x_min":42,"x_max":507,"o":"m 318 713 l 507 713 l 507 628 l 318 628 l 318 256 l 507 256 l 507 171 l 318 171 l 318 -90 l 229 -90 l 229 171 l 42 171 l 42 256 l 229 256 l 229 628 l 42 628 l 42 713 l 229 713 l 229 972 l 318 972 l 318 713 z "},"°":{"ha":304,"x_min":32,"x_max":272,"o":"m 151 983 q 237 949 201 983 q 272 864 272 914 q 237 779 272 814 q 151 744 201 744 q 105 753 126 744 q 67 779 83 763 q 42 817 51 796 q 32 864 32 839 q 42 910 32 889 q 67 949 51 932 q 105 974 83 965 q 151 983 126 983 m 151 932 q 103 913 124 932 q 83 864 83 893 q 103 816 83 836 q 151 796 124 796 q 200 816 179 796 q 221 864 221 836 q 200 913 221 893 q 151 932 179 932 z "},"¶":{"ha":550,"x_min":26,"x_max":486,"o":"m 282 893 l 282 -87 l 203 -87 l 204 385 q 69 450 113 388 q 26 618 26 513 l 26 738 q 75 910 26 849 q 236 972 124 972 l 486 972 l 486 -87 l 407 -87 l 407 893 l 282 893 z "},"®":{"ha":1031,"x_min":38,"x_max":993,"o":"m 515 978 q 706 941 618 978 q 857 838 793 904 q 957 682 921 772 q 993 486 993 592 q 957 290 993 379 q 857 134 921 200 q 706 31 793 68 q 515 -6 618 -6 q 325 31 413 -6 q 174 134 238 68 q 74 290 110 200 q 38 486 38 379 q 74 682 38 592 q 174 838 110 772 q 325 941 238 904 q 515 978 413 978 m 515 908 q 353 876 428 908 q 224 788 278 844 q 139 654 169 732 q 108 486 108 576 q 139 318 108 396 q 224 184 169 240 q 353 96 278 128 q 515 64 428 64 q 678 96 603 64 q 807 184 753 128 q 892 318 861 240 q 922 486 922 396 q 892 654 922 576 q 807 788 861 732 q 678 876 753 844 q 515 908 603 908 m 522 783 q 638 744 601 783 q 674 628 674 704 l 674 614 q 655 524 674 560 q 593 474 636 489 q 656 423 638 458 q 674 335 674 388 l 674 271 q 676 227 674 247 q 689 189 678 207 l 610 189 q 601 220 603 204 q 599 271 599 236 l 599 335 q 572 414 599 393 q 497 435 546 435 l 446 435 l 446 189 l 371 189 l 371 783 l 522 783 m 508 506 q 574 525 551 506 q 597 597 597 544 l 597 619 q 580 690 597 665 q 518 714 563 714 l 446 714 l 446 506 l 508 506 z "},"§":{"ha":538,"x_min":51,"x_max":486,"o":"m 269 982 q 426 932 369 982 q 483 799 483 882 l 483 761 l 381 761 l 381 785 q 351 863 381 833 q 272 892 321 892 q 192 867 225 892 q 160 793 160 843 q 183 735 158 758 q 243 694 207 713 q 322 657 279 675 q 400 611 364 639 q 460 543 436 583 q 485 442 485 503 q 453 337 485 382 q 369 265 422 292 q 415 236 393 253 q 452 198 436 219 q 477 149 468 176 q 486 86 486 121 q 426 -47 485 4 q 269 -97 367 -97 q 110 -48 168 -97 q 51 86 51 1 l 51 143 l 154 143 l 154 100 q 186 21 154 49 q 267 -7 218 -7 q 344 17 311 -7 q 378 90 376 42 q 354 149 378 126 q 294 190 331 172 q 216 227 258 208 q 138 272 174 246 q 77 339 101 299 q 53 440 53 379 q 87 547 53 501 q 174 615 121 592 q 126 646 149 629 q 88 684 104 663 q 61 733 71 706 q 51 797 51 761 q 111 931 53 881 q 269 982 169 982 m 265 572 q 188 530 221 565 q 156 444 156 494 q 166 396 156 417 q 194 359 176 375 q 233 331 211 343 q 279 308 256 318 q 353 354 324 319 q 382 439 382 389 q 347 520 382 490 q 265 572 313 550 z "},"™":{"ha":810,"x_min":17,"x_max":768,"o":"m 131 478 l 131 908 l 17 908 l 17 972 l 313 972 l 313 908 l 200 908 l 200 478 l 131 478 m 606 481 l 539 481 l 438 865 l 438 478 l 375 478 l 375 972 l 472 972 l 574 586 l 671 972 l 768 972 l 768 478 l 701 478 l 701 868 l 606 481 z "},"℗":{"ha":1031,"x_min":38,"x_max":993,"o":"m 515 978 q 706 941 618 978 q 857 838 793 904 q 957 682 921 772 q 993 486 993 592 q 957 290 993 381 q 857 135 921 200 q 706 32 793 69 q 515 -6 618 -6 q 325 32 413 -6 q 174 135 238 69 q 74 290 110 200 q 38 486 38 381 q 74 682 38 592 q 174 838 110 772 q 325 941 238 904 q 515 978 413 978 m 515 908 q 353 876 428 908 q 224 788 278 844 q 139 654 169 732 q 108 486 108 576 q 139 318 108 396 q 224 184 169 240 q 353 96 278 128 q 515 64 428 64 q 678 96 603 64 q 807 184 753 128 q 892 318 861 240 q 922 486 922 396 q 892 654 922 576 q 807 788 861 732 q 678 876 753 844 q 515 908 603 908 m 546 771 q 661 730 626 771 q 696 614 696 689 l 696 550 q 659 432 696 471 q 540 393 622 393 l 469 393 l 469 176 l 394 176 l 394 771 l 546 771 m 536 464 q 601 487 581 464 q 621 558 621 510 l 621 606 q 603 676 621 650 q 542 701 586 701 l 469 701 l 469 464 l 536 464 z "},"´":{"ha":310,"x_min":43,"x_max":247,"o":"m 247 1178 l 118 1035 l 43 1035 l 140 1178 l 247 1178 z "},"˘":{"ha":350,"x_min":31,"x_max":321,"o":"m 321 1158 q 281 1056 319 1093 q 174 1018 243 1018 q 69 1056 106 1018 q 31 1158 32 1093 l 96 1158 q 120 1102 99 1118 q 174 1086 142 1086 q 230 1102 208 1086 q 254 1158 251 1118 l 321 1158 z "},"ˇ":{"ha":347,"x_min":6,"x_max":342,"o":"m 100 1178 l 174 1094 l 247 1178 l 342 1178 l 222 1039 l 126 1039 l 6 1178 l 100 1178 z "},"¸":{"ha":346,"x_min":43,"x_max":301,"o":"m 199 -54 q 274 -68 246 -54 q 301 -122 301 -82 q 291 -165 301 -149 q 263 -191 281 -182 q 221 -203 244 -200 q 171 -207 197 -207 q 122 -203 146 -207 q 81 -190 99 -199 q 53 -165 64 -181 q 43 -125 43 -149 l 43 -114 l 117 -114 l 117 -124 q 134 -156 117 -147 q 171 -165 151 -164 q 210 -155 193 -165 q 226 -119 226 -144 q 208 -83 226 -92 q 161 -75 189 -75 l 150 -75 l 150 13 l 199 13 l 199 -54 z "},"ˆ":{"ha":347,"x_min":6,"x_max":342,"o":"m 100 1039 l 6 1039 l 126 1178 l 222 1178 l 342 1039 l 247 1039 l 174 1121 l 100 1039 z "},"¨":{"ha":304,"x_min":49,"x_max":256,"o":"m 143 1154 l 143 1029 l 49 1029 l 49 1154 l 143 1154 m 256 1154 l 256 1029 l 161 1029 l 161 1154 l 256 1154 z "},"˙":{"ha":275,"x_min":90,"x_max":185,"o":"m 185 1157 l 185 1032 l 90 1032 l 90 1157 l 185 1157 z "},"`":{"ha":310,"x_min":60,"x_max":268,"o":"m 172 1178 l 268 1035 l 189 1035 l 60 1178 l 172 1178 z "},"˝":{"ha":336,"x_min":-6,"x_max":324,"o":"m 175 1178 l 64 1035 l -6 1035 l 75 1178 l 175 1178 m 324 1178 l 213 1035 l 144 1035 l 224 1178 l 324 1178 z "},"¯":{"ha":349,"x_min":28,"x_max":322,"o":"m 322 1111 l 322 1033 l 28 1033 l 28 1111 l 322 1111 z "},"˛":{"ha":315,"x_min":61,"x_max":253,"o":"m 201 4 q 158 -47 172 -18 q 146 -96 144 -75 q 162 -128 146 -118 q 197 -137 178 -137 q 229 -134 217 -137 q 253 -125 242 -131 l 253 -182 q 212 -195 232 -192 q 167 -199 192 -199 q 92 -180 121 -199 q 63 -121 63 -161 q 85 -53 61 -86 q 154 4 110 -21 l 201 4 z "},"˚":{"ha":325,"x_min":60,"x_max":264,"o":"m 163 1232 q 235 1203 206 1232 q 264 1131 264 1174 q 235 1058 264 1088 q 163 1029 206 1029 q 90 1058 119 1029 q 60 1131 60 1088 q 90 1203 60 1174 q 163 1232 119 1232 m 163 1181 q 126 1167 140 1181 q 111 1131 111 1153 q 126 1094 111 1108 q 163 1081 140 1081 q 198 1094 183 1081 q 213 1131 213 1108 q 198 1167 213 1153 q 163 1181 183 1181 z "},"˜":{"ha":356,"x_min":8,"x_max":347,"o":"m 347 1114 q 306 1053 332 1072 q 249 1033 281 1033 q 212 1040 228 1033 q 181 1053 196 1046 q 151 1067 165 1061 q 121 1074 138 1074 q 88 1065 101 1074 q 63 1033 74 1057 l 8 1069 q 53 1131 26 1113 q 111 1150 79 1150 q 149 1144 132 1150 q 180 1130 165 1138 q 209 1116 194 1122 q 239 1110 224 1110 q 270 1119 257 1110 q 294 1150 283 1128 l 347 1114 z "},"":{"ha":0,"x_min":99,"x_max":190,"o":"m 142 -246 l 101 -246 l 133 -168 l 99 -168 l 99 -46 l 190 -46 l 190 -158 l 142 -246 z "},"ʼ":{"ha":222,"x_min":63,"x_max":167,"o":"m 113 715 l 68 715 l 103 838 l 63 838 l 63 972 l 167 972 l 167 849 l 113 715 z "},"A":{"ha":586,"x_min":28,"x_max":557,"o":"m 165 196 l 128 0 l 28 0 l 214 972 l 371 972 l 557 0 l 449 0 l 411 196 l 165 196 m 179 289 l 396 289 l 286 850 l 179 289 z "},"Á":{"ha":586,"x_min":28,"x_max":557,"o":"m 424 1167 l 296 1024 l 219 1024 l 317 1167 l 424 1167 m 165 196 l 128 0 l 28 0 l 214 972 l 371 972 l 557 0 l 449 0 l 411 196 l 165 196 m 179 289 l 396 289 l 286 850 l 179 289 z "}}}
